M48
;Layer_Color=9474304
;FILE_FORMAT=2:5
INCH,LZ
;TYPE=PLATED
T02F00S00C0.01575
;TYPE=NON_PLATED
%
T02
X014095Y002145
X01964Y005405
X020095Y00539
X028575Y005225
X029035
X02949
X02914Y00331
X029125Y00277
X03076Y00272
X03128
X032735Y00277
X033055Y00318
X03459Y003325
X034485Y005225
X033885
X03473Y007815
X033445Y008945
X033105Y009345
X03003Y00942
X02939
X028485Y00827
X02789
X025815Y00862
Y00921
X025105Y00862
X02703Y006155
X021905Y01718
X02134
Y01776
X021905
X020795
Y01718
X01683Y01613
X017255Y015605
X01726Y01492
X01751Y01429
X01788Y013445
X01638Y015605
X015355Y0157
X0146945
X0150365Y0151599
X011675Y014935
X011105Y01486
X00848Y012525
X008465Y011985
X00848Y01142
X0085128Y0105122
X008935Y010115
X00937Y009705
X01507Y010175
Y010695
X015635
Y010175
X016185
Y010695
X0152Y006005
X01413Y006065
X01438Y019595
X014885
X01547
X016054
X004175Y02125
X001895
X00473Y015815
X0027Y02379
X0026954Y0243849
X00308Y02504
X002985Y02782
X00294Y029005
X01949Y027665
Y0271
X019985
X02051
X017735Y02362
X01409Y021955
X021655Y02421
X012525Y038755
M30
