G04*
G04 #@! TF.GenerationSoftware,Altium Limited,Altium Designer,23.7.1 (13)*
G04*
G04 Layer_Color=128*
%FSLAX25Y25*%
%MOIN*%
G70*
G04*
G04 #@! TF.SameCoordinates,AA4D2978-76EA-46CB-BF31-C62278C5BCD9*
G04*
G04*
G04 #@! TF.FilePolarity,Positive*
G04*
G01*
G75*
%ADD21C,0.00500*%
D21*
X37154Y339823D02*
X43846D01*
X40500Y336476D02*
Y343169D01*
X37154Y319823D02*
X43846D01*
X40500Y316476D02*
Y323169D01*
X214417Y8200D02*
X217961D01*
X216189Y6428D02*
Y9972D01*
X15583Y243200D02*
X18732D01*
X17157Y241625D02*
Y244775D01*
X35268Y243200D02*
X38417D01*
X36843Y241625D02*
Y244775D01*
X320638Y28600D02*
X322606D01*
X321622Y27616D02*
Y29584D01*
X300594Y28600D02*
X302562D01*
X301578Y27616D02*
Y29584D01*
X310556Y18539D02*
X312525D01*
X311541Y17555D02*
Y19524D01*
X250472Y66611D02*
X253228D01*
X251850Y65233D02*
Y67989D01*
X250137Y48895D02*
X253563D01*
X251850Y47182D02*
Y50607D01*
X250472Y54800D02*
X253228D01*
X251850Y53422D02*
Y56178D01*
X250472Y60706D02*
X253228D01*
X251850Y59328D02*
Y62084D01*
X250472Y72517D02*
X253228D01*
X251850Y71139D02*
Y73895D01*
X250137Y78422D02*
X253563D01*
X251850Y76710D02*
Y80135D01*
X207287Y116936D02*
X210713D01*
X209000Y115224D02*
Y118649D01*
X207622Y122842D02*
X210378D01*
X209000Y121464D02*
Y124220D01*
X207622Y134653D02*
X210378D01*
X209000Y133275D02*
Y136031D01*
X207622Y140558D02*
X210378D01*
X209000Y139180D02*
Y141936D01*
X207287Y146464D02*
X210713D01*
X209000Y144751D02*
Y148176D01*
X207622Y128747D02*
X210378D01*
X209000Y127369D02*
Y130125D01*
X226228Y8200D02*
X229772D01*
X228000Y6428D02*
Y9972D01*
X122244Y8700D02*
X127756D01*
X125000Y5944D02*
Y11456D01*
X122244Y38700D02*
X127756D01*
X125000Y35944D02*
Y41456D01*
X52244Y38700D02*
X57756D01*
X55000Y35944D02*
Y41456D01*
X82244Y38700D02*
X87756D01*
X85000Y35944D02*
Y41456D01*
X82244Y80200D02*
X87756D01*
X85000Y77444D02*
Y82956D01*
X122244Y80200D02*
X127756D01*
X125000Y77444D02*
Y82956D01*
X122244Y50200D02*
X127756D01*
X125000Y47444D02*
Y52956D01*
X52244Y80200D02*
X57756D01*
X55000Y77444D02*
Y82956D01*
X125390Y375700D02*
X129720D01*
X127555Y373535D02*
Y377865D01*
X7280Y375700D02*
X11610D01*
X9445Y373535D02*
Y377865D01*
X198134Y331200D02*
X200496D01*
X199315Y330019D02*
Y332381D01*
X217819Y331200D02*
X220181D01*
X219000Y330019D02*
Y332381D01*
X198319Y288200D02*
X200681D01*
X199500Y287019D02*
Y289381D01*
X218004Y288200D02*
X220366D01*
X219185Y287019D02*
Y289381D01*
X103319Y221543D02*
X105681D01*
X104500Y220361D02*
Y222724D01*
X103319Y201857D02*
X105681D01*
X104500Y200676D02*
Y203039D01*
X37154Y14200D02*
X43846D01*
X40500Y10853D02*
Y17546D01*
X37154Y34200D02*
X43846D01*
X40500Y30854D02*
Y37546D01*
X37154Y83700D02*
X43846D01*
X40500Y80353D02*
Y87046D01*
X37154Y63700D02*
X43846D01*
X40500Y60353D02*
Y67046D01*
X7866Y200594D02*
X16134D01*
X12000Y196460D02*
Y204728D01*
X27748Y200594D02*
X31685D01*
X29717Y198625D02*
Y202562D01*
X39953Y181696D02*
X44677D01*
X42315Y179334D02*
Y184058D01*
X52157Y204924D02*
X56882D01*
X54520Y202562D02*
Y207287D01*
X7866Y132200D02*
X16134D01*
X12000Y128066D02*
Y136334D01*
X27748Y132200D02*
X31685D01*
X29717Y130231D02*
Y134169D01*
X39953Y113302D02*
X44677D01*
X42315Y110940D02*
Y115665D01*
X52157Y136531D02*
X56882D01*
X54520Y134169D02*
Y138893D01*
X139980Y256960D02*
X143130D01*
X141555Y255385D02*
Y258535D01*
X80925Y335700D02*
X84075D01*
X82500Y334125D02*
Y337275D01*
X100610Y256960D02*
X103760D01*
X102185Y255385D02*
Y258535D01*
X159665Y335700D02*
X162815D01*
X161240Y334125D02*
Y337275D01*
X188010Y115550D02*
X189191D01*
X188600Y114959D02*
Y116141D01*
X263566Y61250D02*
X265534D01*
X264550Y60266D02*
Y62234D01*
X337391Y36475D02*
X339359D01*
X338375Y35491D02*
Y37459D01*
X91813Y182800D02*
X93387D01*
X92600Y182013D02*
Y183587D01*
X101413Y166850D02*
X102987D01*
X102200Y166063D02*
Y167637D01*
X137455Y107731D02*
X139030D01*
X138242Y106944D02*
Y108519D01*
X134545Y108337D02*
X135726D01*
X135135Y107746D02*
Y108927D01*
X136813Y104431D02*
X138387D01*
X137600Y103644D02*
Y105219D01*
X278613Y35400D02*
X280187D01*
X279400Y34613D02*
Y36187D01*
X282933Y32979D02*
X284508D01*
X283721Y32192D02*
Y33767D01*
X107413Y131641D02*
X108987D01*
X108200Y130854D02*
Y132429D01*
X141074Y107469D02*
X142649D01*
X141862Y106682D02*
Y108256D01*
X140310Y93350D02*
X141491D01*
X140900Y92760D02*
Y93941D01*
X171213Y114102D02*
X172787D01*
X172000Y113314D02*
Y114889D01*
X170521Y120731D02*
X172096D01*
X171308Y119944D02*
Y121519D01*
X170424Y117370D02*
X171999D01*
X171212Y116583D02*
Y118158D01*
X165059Y119400D02*
X166241D01*
X165650Y118809D02*
Y119991D01*
X120463Y161850D02*
X122037D01*
X121250Y161063D02*
Y162637D01*
X218359Y117100D02*
X219541D01*
X218950Y116509D02*
Y117691D01*
X37516Y291193D02*
X39484D01*
X38500Y290209D02*
Y292177D01*
X37516Y285443D02*
X39484D01*
X38500Y284459D02*
Y286427D01*
X100016Y94650D02*
X101984D01*
X101000Y93666D02*
Y95634D01*
X100016Y90100D02*
X101984D01*
X101000Y89116D02*
Y91084D01*
X263716Y72350D02*
X265684D01*
X264700Y71366D02*
Y73334D01*
X278063Y41300D02*
X279637D01*
X278850Y40513D02*
Y42087D01*
X269216Y33550D02*
X271184D01*
X270200Y32566D02*
Y34534D01*
X97817Y236822D02*
X99786D01*
X98801Y235838D02*
Y237806D01*
X143519Y151710D02*
X144700D01*
X144110Y151119D02*
Y152300D01*
X120013Y174450D02*
X121587D01*
X120800Y173663D02*
Y175237D01*
X120349Y183600D02*
X121923D01*
X121136Y182813D02*
Y184387D01*
X105716Y90100D02*
X107684D01*
X106700Y89116D02*
Y91084D01*
X105716Y94650D02*
X107684D01*
X106700Y93666D02*
Y95634D01*
X225266Y219900D02*
X227234D01*
X226250Y218916D02*
Y220884D01*
X221516Y215250D02*
X223484D01*
X222500Y214266D02*
Y216234D01*
X227766Y214800D02*
X229734D01*
X228750Y213816D02*
Y215784D01*
X148366Y76050D02*
X150334D01*
X149350Y75066D02*
Y77034D01*
X115766Y108700D02*
X117734D01*
X116750Y107716D02*
Y109684D01*
X112091Y101600D02*
X114059D01*
X113075Y100616D02*
Y102584D01*
X127866Y227600D02*
X129834D01*
X128850Y226616D02*
Y228584D01*
X140310Y157050D02*
X141491D01*
X140900Y156459D02*
Y157641D01*
X177859Y115450D02*
X179041D01*
X178450Y114859D02*
Y116041D01*
M02*
