M48
;Layer_Color=9474304
;FILE_FORMAT=2:5
INCH,LZ
;TYPE=PLATED
T02F00S00C0.01575
T03F00S00C0.01968
;TYPE=NON_PLATED
%
T02
X015395Y01193
X01633Y018345
X0167Y018765
X01793Y01883
X01759Y019175
T03
X014685Y0020525
X032475Y00738
Y007735
Y008045
Y008365
X01708Y013355
Y01377
X013895Y01625
X012805Y01551
X01239Y01679
X01149Y016885
X01059Y01554
X00927Y015705
X008765Y01628
X008685Y009115
X0049252Y0266817
X0050794Y0272675
X01656Y022775
X01638Y022295
X01662Y02183
X01621Y02152
X015805Y021845
M30
