G04*
G04 #@! TF.GenerationSoftware,Altium Limited,Altium Designer,23.7.1 (13)*
G04*
G04 Layer_Color=8421504*
%FSLAX25Y25*%
%MOIN*%
G70*
G04*
G04 #@! TF.SameCoordinates,AA4D2978-76EA-46CB-BF31-C62278C5BCD9*
G04*
G04*
G04 #@! TF.FilePolarity,Positive*
G04*
G01*
G75*
%ADD26R,0.04528X0.07087*%
%ADD27R,0.03937X0.02953*%
%ADD28R,0.03150X0.03799*%
%ADD29R,0.05709X0.03937*%
%ADD30R,0.01968X0.02362*%
%ADD31R,0.03799X0.03150*%
%ADD32R,0.04646X0.02284*%
%ADD33R,0.03937X0.05709*%
%ADD34R,0.02953X0.03937*%
%ADD35R,0.07087X0.05906*%
%ADD36R,0.04331X0.02362*%
G04:AMPARAMS|DCode=37|XSize=125.98mil|YSize=62.99mil|CornerRadius=7.87mil|HoleSize=0mil|Usage=FLASHONLY|Rotation=0.000|XOffset=0mil|YOffset=0mil|HoleType=Round|Shape=RoundedRectangle|*
%AMROUNDEDRECTD37*
21,1,0.12598,0.04724,0,0,0.0*
21,1,0.11024,0.06299,0,0,0.0*
1,1,0.01575,0.05512,-0.02362*
1,1,0.01575,-0.05512,-0.02362*
1,1,0.01575,-0.05512,0.02362*
1,1,0.01575,0.05512,0.02362*
%
%ADD37ROUNDEDRECTD37*%
%ADD38R,0.03937X0.03150*%
%ADD39R,0.02756X0.05906*%
%ADD40R,0.04095X0.07520*%
%ADD41R,0.03543X0.03150*%
%ADD42R,0.02165X0.04134*%
%ADD43R,0.02362X0.01968*%
%ADD44R,0.03150X0.03543*%
%ADD45R,0.04724X0.02362*%
%ADD46R,0.04724X0.02362*%
%ADD47R,0.07480X0.07087*%
%ADD48R,0.07480X0.07480*%
%ADD49R,0.06299X0.08268*%
%ADD50R,0.06299X0.01575*%
%ADD51R,0.10799X0.08500*%
%ADD52R,0.04331X0.05984*%
%ADD53R,0.04331X0.07874*%
%ADD54R,0.04134X0.02165*%
%ADD55R,0.03937X0.01968*%
%ADD56R,0.05906X0.01968*%
%ADD57R,0.06102X0.02362*%
%ADD58R,0.01968X0.05906*%
%ADD59R,0.02362X0.06102*%
%ADD60R,0.05118X0.11811*%
%ADD61R,0.06299X0.12992*%
%ADD62R,0.06299X0.04724*%
G04:AMPARAMS|DCode=63|XSize=29.53mil|YSize=39.37mil|CornerRadius=0mil|HoleSize=0mil|Usage=FLASHONLY|Rotation=50.000|XOffset=0mil|YOffset=0mil|HoleType=Round|Shape=Rectangle|*
%AMROTATEDRECTD63*
4,1,4,0.00559,-0.02396,-0.02457,0.00134,-0.00559,0.02396,0.02457,-0.00134,0.00559,-0.02396,0.0*
%
%ADD63ROTATEDRECTD63*%

G04:AMPARAMS|DCode=64|XSize=62.99mil|YSize=49.21mil|CornerRadius=0mil|HoleSize=0mil|Usage=FLASHONLY|Rotation=50.000|XOffset=0mil|YOffset=0mil|HoleType=Round|Shape=Rectangle|*
%AMROTATEDRECTD64*
4,1,4,-0.00140,-0.03994,-0.03910,-0.00831,0.00140,0.03994,0.03910,0.00831,-0.00140,-0.03994,0.0*
%
%ADD64ROTATEDRECTD64*%

%ADD65R,0.17323X0.12992*%
%ADD66R,0.24410X0.15354*%
%ADD67R,0.01181X0.05709*%
%ADD68R,0.05709X0.01181*%
D26*
X277391Y71750D02*
D03*
X288809D02*
D03*
X277391Y61750D02*
D03*
X288809D02*
D03*
D27*
X299350Y74500D02*
D03*
Y68200D02*
D03*
X305100Y50900D02*
D03*
Y57200D02*
D03*
X290250Y46300D02*
D03*
Y40000D02*
D03*
X300350Y41600D02*
D03*
Y35300D02*
D03*
X203500Y234850D02*
D03*
Y228550D02*
D03*
X191500Y193850D02*
D03*
Y187550D02*
D03*
X94950Y116200D02*
D03*
Y122499D02*
D03*
D28*
X294600Y74450D02*
D03*
Y68150D02*
D03*
X300100Y50551D02*
D03*
Y56850D02*
D03*
X285450Y46300D02*
D03*
Y40000D02*
D03*
X350000Y51799D02*
D03*
Y45500D02*
D03*
X225050Y23350D02*
D03*
Y29649D02*
D03*
X213250Y29649D02*
D03*
Y23350D02*
D03*
X147000Y14338D02*
D03*
Y8039D02*
D03*
X135500Y89401D02*
D03*
Y95700D02*
D03*
X45600Y251350D02*
D03*
Y257650D02*
D03*
X129500Y168999D02*
D03*
Y162700D02*
D03*
X134500Y168999D02*
D03*
Y162700D02*
D03*
X129250Y93851D02*
D03*
Y100150D02*
D03*
X123750Y93851D02*
D03*
Y100150D02*
D03*
X118250Y93851D02*
D03*
Y100150D02*
D03*
D29*
X339000Y72700D02*
D03*
Y80180D02*
D03*
X331950Y72700D02*
D03*
Y80180D02*
D03*
X265200Y47250D02*
D03*
Y54730D02*
D03*
X271950Y47260D02*
D03*
Y54740D02*
D03*
X278750Y47260D02*
D03*
Y54740D02*
D03*
X308200Y75660D02*
D03*
Y83140D02*
D03*
X198000Y186960D02*
D03*
Y194440D02*
D03*
X165500Y210440D02*
D03*
Y202960D02*
D03*
X158500Y210440D02*
D03*
Y202960D02*
D03*
X195500Y139220D02*
D03*
Y146700D02*
D03*
X188000Y139220D02*
D03*
Y146700D02*
D03*
X180500Y139220D02*
D03*
Y146700D02*
D03*
D30*
X296182Y61550D02*
D03*
X300118D02*
D03*
X280931Y77800D02*
D03*
X284869D02*
D03*
X316469Y94350D02*
D03*
X312531D02*
D03*
X143063Y4200D02*
D03*
X147000D02*
D03*
X137437Y211200D02*
D03*
X133500D02*
D03*
D31*
X347400Y40700D02*
D03*
X341100D02*
D03*
X347450Y56550D02*
D03*
X341151D02*
D03*
X341151Y61950D02*
D03*
X347450D02*
D03*
X279350Y87400D02*
D03*
X285650D02*
D03*
X265300Y87250D02*
D03*
X271600D02*
D03*
X265300Y82750D02*
D03*
X271600D02*
D03*
X139201Y40700D02*
D03*
X145500D02*
D03*
X159400Y124800D02*
D03*
X165700D02*
D03*
X165600Y133412D02*
D03*
X159300D02*
D03*
X165600Y137862D02*
D03*
X159300D02*
D03*
D32*
X331950Y66550D02*
D03*
D03*
X311005D02*
D03*
D03*
Y61550D02*
D03*
Y56550D02*
D03*
Y51550D02*
D03*
Y46550D02*
D03*
Y41550D02*
D03*
Y36550D02*
D03*
X331950D02*
D03*
Y41550D02*
D03*
Y46550D02*
D03*
Y51550D02*
D03*
Y56550D02*
D03*
Y61550D02*
D03*
D33*
X337960Y46350D02*
D03*
X345440D02*
D03*
X286480Y93100D02*
D03*
X279000D02*
D03*
X272780Y92850D02*
D03*
X265300D02*
D03*
X121240Y156200D02*
D03*
X113760D02*
D03*
X16760Y251200D02*
D03*
X24240D02*
D03*
X31000Y299200D02*
D03*
X38480D02*
D03*
X207520Y263700D02*
D03*
X215000D02*
D03*
X163260Y236700D02*
D03*
X170740D02*
D03*
X150980Y212200D02*
D03*
X143500D02*
D03*
X108240Y102200D02*
D03*
X100760D02*
D03*
X108240Y109200D02*
D03*
X100760D02*
D03*
X108240Y116200D02*
D03*
X100760D02*
D03*
X166440Y147450D02*
D03*
X158960D02*
D03*
X153560Y115066D02*
D03*
X161040D02*
D03*
D34*
X347300Y67350D02*
D03*
X341000D02*
D03*
X214650Y256700D02*
D03*
X208350D02*
D03*
D35*
X316300Y74933D02*
D03*
Y86350D02*
D03*
D36*
X291782Y87140D02*
D03*
Y79660D02*
D03*
X302018D02*
D03*
Y87140D02*
D03*
Y83400D02*
D03*
D37*
X229823Y195700D02*
D03*
X210177D02*
D03*
D38*
X236071Y12334D02*
D03*
X208118D02*
D03*
X236071Y4066D02*
D03*
X208118D02*
D03*
D39*
X225047Y15090D02*
D03*
X213236D02*
D03*
X230953D02*
D03*
D40*
X198500Y45700D02*
D03*
X188500D02*
D03*
X178500D02*
D03*
X168500D02*
D03*
X158500D02*
D03*
D41*
X134000Y11688D02*
D03*
X141874Y15428D02*
D03*
Y7948D02*
D03*
X133063Y50200D02*
D03*
X140937Y53940D02*
D03*
Y46460D02*
D03*
D42*
X135000Y31700D02*
D03*
Y20676D02*
D03*
X134500Y70212D02*
D03*
Y59188D02*
D03*
D43*
X146000Y52169D02*
D03*
Y48232D02*
D03*
X128500Y214637D02*
D03*
Y210700D02*
D03*
D44*
X36650Y249763D02*
D03*
X32910Y257637D02*
D03*
X40390D02*
D03*
D45*
X30555Y273456D02*
D03*
Y269716D02*
D03*
Y265976D02*
D03*
X39610D02*
D03*
Y269716D02*
D03*
D46*
Y273456D02*
D03*
D47*
X7890Y268239D02*
D03*
Y298161D02*
D03*
D48*
Y287924D02*
D03*
Y278476D02*
D03*
D49*
X19110Y269814D02*
D03*
Y296586D02*
D03*
D50*
Y278082D02*
D03*
Y280641D02*
D03*
Y283200D02*
D03*
Y285759D02*
D03*
Y288318D02*
D03*
D51*
X49000Y281700D02*
D03*
Y299102D02*
D03*
X197000Y243298D02*
D03*
Y260700D02*
D03*
D52*
X139764Y391680D02*
D03*
Y356720D02*
D03*
X160236Y391680D02*
D03*
Y356720D02*
D03*
D53*
X182618Y357200D02*
D03*
X172382D02*
D03*
D54*
X104500Y236700D02*
D03*
X115524D02*
D03*
D55*
X122550Y234585D02*
D03*
Y238915D02*
D03*
D56*
X135370Y237700D02*
D03*
Y232700D02*
D03*
Y227700D02*
D03*
Y222700D02*
D03*
X156630D02*
D03*
Y227700D02*
D03*
Y232700D02*
D03*
Y237700D02*
D03*
D57*
X135370D02*
D03*
X156630Y222700D02*
D03*
D58*
X209500Y228570D02*
D03*
X214500D02*
D03*
X219500D02*
D03*
X224500D02*
D03*
Y249830D02*
D03*
X219500D02*
D03*
X214500D02*
D03*
X209500D02*
D03*
X128500Y183570D02*
D03*
X133500D02*
D03*
X138500D02*
D03*
X143500D02*
D03*
Y204830D02*
D03*
X138500D02*
D03*
X133500D02*
D03*
X128500D02*
D03*
D59*
X209500Y228570D02*
D03*
X224500Y249830D02*
D03*
X128500Y183570D02*
D03*
X143500Y204830D02*
D03*
D60*
X208000Y217200D02*
D03*
X216268D02*
D03*
D61*
X172902Y210700D02*
D03*
D62*
X198098D02*
D03*
Y219755D02*
D03*
Y201645D02*
D03*
D03*
D63*
X90126Y146837D02*
D03*
X94175Y151663D02*
D03*
D64*
X104499Y140996D02*
D03*
X97864Y146563D02*
D03*
X95136Y129837D02*
D03*
X88501Y135404D02*
D03*
D65*
X62197Y198035D02*
D03*
Y129641D02*
D03*
D66*
X26961Y175200D02*
D03*
Y225987D02*
D03*
Y106806D02*
D03*
Y157594D02*
D03*
D67*
X121173Y115066D02*
D03*
X123142D02*
D03*
X138890D02*
D03*
X136921D02*
D03*
X125110D02*
D03*
X127079D02*
D03*
X129047D02*
D03*
X131016D02*
D03*
X132984D02*
D03*
X142827D02*
D03*
X140858D02*
D03*
X134953D02*
D03*
X121173Y148334D02*
D03*
X123142D02*
D03*
X125110D02*
D03*
X127079D02*
D03*
X129047D02*
D03*
X131016D02*
D03*
X132984D02*
D03*
X134953D02*
D03*
X136921D02*
D03*
X138890D02*
D03*
X140858D02*
D03*
X142827D02*
D03*
D68*
X148634Y142527D02*
D03*
Y140558D02*
D03*
Y138590D02*
D03*
Y136621D02*
D03*
Y134653D02*
D03*
Y132684D02*
D03*
Y130716D02*
D03*
Y128747D02*
D03*
Y126779D02*
D03*
Y124810D02*
D03*
Y122842D02*
D03*
Y120873D02*
D03*
X115366D02*
D03*
Y122842D02*
D03*
Y124810D02*
D03*
Y126779D02*
D03*
Y128747D02*
D03*
Y130716D02*
D03*
Y132684D02*
D03*
Y134653D02*
D03*
Y136621D02*
D03*
Y138590D02*
D03*
Y140558D02*
D03*
Y142527D02*
D03*
M02*
