M48
;Layer_Color=9474304
;FILE_FORMAT=2:5
INCH,LZ
;TYPE=PLATED
T01F00S00C0.01181
T02F00S00C0.01575
T03F00S00C0.01968
T04F00S00C0.02362
T05F00S00C0.02756
T06F00S00C0.03150
T07F00S00C0.03425
T08F00S00C0.03543
T10F00S00C0.04331
T12F00S00C0.05512
T13F00S00C0.06693
;TYPE=NON_PLATED
T14F00S00C0.08268
%
T01
X021895Y01171
X01886Y011555
X017845Y011545
X016565Y01194
X0135135Y0108337
X01409Y009335
X014411Y015171
X01409Y015705
T02
X02794Y00354
X027885Y00413
X0283721Y0032979
X0172Y0114102
X0171212Y011737
X0171308Y0120731
X0141862Y0107469
X0138242Y0107731
X01376Y0104431
X01082Y0131641
X01022Y016685
X012125Y016185
X01208Y017445
X0121136Y01836
X00926Y01828
T03
X02702Y003355
X0301578Y00286
X0311541Y0018539
X0321622Y00286
X0338375Y0036475
X026455Y006125
X02647Y007235
X014935Y007605
X01067Y00901
Y009465
X0101
Y00901
X0113075Y01016
X011675Y01087
X00385Y0285443
Y0291193
X0098801Y0236822
X012885Y02276
X022625Y02199
X022875Y02148
X02225Y021525
T04
X01045Y0201857
Y0221543
X01995Y02882
X0199315Y03312
X0219
X0219185Y02882
T05
X025185Y00548
Y0060706
Y0066611
Y0072517
X0209Y0122842
Y0128747
Y0134653
Y0140558
T06
X0017157Y02432
X0036843
X0102185Y025696
X0141555
X016124Y03357
X00825
T07
X025185Y0048895
Y0078422
X0209Y0116936
Y0146464
T08
X0216189Y00082
X0228
T10
X0127555Y03757
X0009445
T12
X0055Y00387
X0085
X0125
Y00502
Y00087
Y00802
X0085
X0055
T13
X00405Y00142
Y00342
Y00637
Y00837
Y0319823
Y0339823
T14
X0012Y01322
Y0200594
M30
