G04*
G04 #@! TF.GenerationSoftware,Altium Limited,Altium Designer,23.7.1 (13)*
G04*
G04 Layer_Color=2752767*
%FSLAX25Y25*%
%MOIN*%
G70*
G04*
G04 #@! TF.SameCoordinates,AA4D2978-76EA-46CB-BF31-C62278C5BCD9*
G04*
G04*
G04 #@! TF.FilePolarity,Positive*
G04*
G01*
G75*
%ADD11C,0.00394*%
%ADD15C,0.01000*%
%ADD19C,0.00100*%
%ADD21C,0.00500*%
%ADD131C,0.01500*%
%ADD210C,0.01600*%
D11*
X0Y200D02*
X360400D01*
Y101950D01*
X240000D02*
Y400100D01*
Y101950D02*
X360400D01*
X0Y400200D02*
X239900D01*
X240000Y400100D01*
X0Y200D02*
Y400200D01*
X50D01*
D15*
X396335Y656032D02*
X397335D01*
X396335D02*
Y658032D01*
X397335D01*
Y659032D01*
X399335D01*
Y658032D02*
Y659032D01*
Y658032D02*
X400335D01*
Y656032D02*
Y658032D01*
X399335Y656032D02*
X400335D01*
X399335Y655032D02*
Y656032D01*
X397335Y655032D02*
X399335D01*
X397335D02*
Y656032D01*
X395001Y655366D02*
X396668D01*
X395001D02*
Y658699D01*
X396668D01*
Y660366D01*
X400001D01*
Y658699D02*
Y660366D01*
Y658699D02*
X401668D01*
Y655366D02*
Y658699D01*
X400001Y655366D02*
X401668D01*
X400001Y653699D02*
Y655366D01*
X396668Y653699D02*
X400001D01*
X396668D02*
Y655366D01*
X1493718Y656698D02*
X1497717D01*
X1407142D02*
X1411141D01*
X992061Y653699D02*
X990061Y655698D01*
Y657698D01*
X992061Y659697D01*
X995060Y653699D02*
Y659697D01*
X997059Y657698D01*
X999058Y659697D01*
Y653699D01*
X1001058D02*
X1003057D01*
X1002057D01*
Y657698D01*
X1001058D01*
X1006056D02*
X1010055Y653699D01*
X1008055Y655698D01*
X1010055Y657698D01*
X1006056Y653699D01*
X1015053D02*
X1013054D01*
X1012054Y654699D01*
Y656698D01*
X1013054Y657698D01*
X1015053D01*
X1016053Y656698D01*
Y655698D01*
X1012054D01*
X1022051Y659697D02*
Y653699D01*
X1019052D01*
X1018052Y654699D01*
Y656698D01*
X1019052Y657698D01*
X1022051D01*
X1024050Y653699D02*
X1026050Y655698D01*
Y657698D01*
X1024050Y659697D01*
X915481Y653699D02*
Y659697D01*
X918480D01*
X919480Y658698D01*
Y656698D01*
X918480Y655698D01*
X915481D01*
X917481D02*
X919480Y653699D01*
X922479D02*
X924479D01*
X925478Y654699D01*
Y656698D01*
X924479Y657698D01*
X922479D01*
X921480Y656698D01*
Y654699D01*
X922479Y653699D01*
X927478Y657698D02*
Y654699D01*
X928477Y653699D01*
X931476D01*
Y657698D01*
X933476Y653699D02*
Y657698D01*
X936475D01*
X937474Y656698D01*
Y653699D01*
X943472Y659697D02*
Y653699D01*
X940473D01*
X939474Y654699D01*
Y656698D01*
X940473Y657698D01*
X943472D01*
X948471Y653699D02*
X946472D01*
X945472Y654699D01*
Y656698D01*
X946472Y657698D01*
X948471D01*
X949471Y656698D01*
Y655698D01*
X945472D01*
X955468Y659697D02*
Y653699D01*
X952470D01*
X951470Y654699D01*
Y656698D01*
X952470Y657698D01*
X955468D01*
X856497Y659697D02*
Y655698D01*
X858496Y653699D01*
X860495Y655698D01*
Y659697D01*
X862495Y653699D02*
X864494D01*
X863494D01*
Y657698D01*
X862495D01*
X868493D02*
X870492D01*
X871492Y656698D01*
Y653699D01*
X868493D01*
X867493Y654699D01*
X868493Y655698D01*
X871492D01*
X737531Y659697D02*
X741530D01*
X739531D01*
Y653699D01*
X744529D02*
X746528D01*
X747528Y654699D01*
Y656698D01*
X746528Y657698D01*
X744529D01*
X743529Y656698D01*
Y654699D01*
X744529Y653699D01*
X749527Y651700D02*
Y657698D01*
X752526D01*
X753526Y656698D01*
Y654699D01*
X752526Y653699D01*
X749527D01*
X761523Y659697D02*
Y653699D01*
X765522D01*
X768521Y657698D02*
X770520D01*
X771520Y656698D01*
Y653699D01*
X768521D01*
X767521Y654699D01*
X768521Y655698D01*
X771520D01*
X773520Y657698D02*
Y654699D01*
X774519Y653699D01*
X777518D01*
Y652699D01*
X776519Y651700D01*
X775519D01*
X777518Y653699D02*
Y657698D01*
X782517Y653699D02*
X780517D01*
X779518Y654699D01*
Y656698D01*
X780517Y657698D01*
X782517D01*
X783516Y656698D01*
Y655698D01*
X779518D01*
X785516Y657698D02*
Y653699D01*
Y655698D01*
X786515Y656698D01*
X787515Y657698D01*
X788515D01*
X797512Y656698D02*
X801511D01*
X813507Y658698D02*
X812507Y659697D01*
X810508D01*
X809508Y658698D01*
Y654699D01*
X810508Y653699D01*
X812507D01*
X813507Y654699D01*
Y656698D01*
X811507D01*
X815506Y653699D02*
Y659697D01*
X819505Y653699D01*
Y659697D01*
X821504D02*
Y653699D01*
X824503D01*
X825503Y654699D01*
Y658698D01*
X824503Y659697D01*
X821504D01*
X664151Y653699D02*
Y659697D01*
X667150D01*
X668150Y658698D01*
Y656698D01*
X667150Y655698D01*
X664151D01*
X666150D02*
X668150Y653699D01*
X671149D02*
X673148D01*
X674148Y654699D01*
Y656698D01*
X673148Y657698D01*
X671149D01*
X670149Y656698D01*
Y654699D01*
X671149Y653699D01*
X676147Y657698D02*
Y654699D01*
X677147Y653699D01*
X680146D01*
Y657698D01*
X682145Y653699D02*
Y657698D01*
X685144D01*
X686144Y656698D01*
Y653699D01*
X692142Y659697D02*
Y653699D01*
X689143D01*
X688143Y654699D01*
Y656698D01*
X689143Y657698D01*
X692142D01*
X613563Y653699D02*
Y659697D01*
X616562D01*
X617562Y658698D01*
Y656698D01*
X616562Y655698D01*
X613563D01*
X619561Y659697D02*
X623560D01*
X621561D01*
Y653699D01*
X625560Y659697D02*
Y653699D01*
Y656698D01*
X629558D01*
Y659697D01*
Y653699D01*
X502596Y658698D02*
X503595Y659697D01*
X505595D01*
X506594Y658698D01*
Y654699D01*
X505595Y653699D01*
X503595D01*
X502596Y654699D01*
Y658698D01*
X509593Y652699D02*
X510593Y653699D01*
Y654699D01*
X509593D01*
Y653699D01*
X510593D01*
X509593Y652699D01*
X508594Y651700D01*
X517591Y653699D02*
Y659697D01*
X514592Y656698D01*
X518591D01*
X520590Y658698D02*
X521590Y659697D01*
X523589D01*
X524589Y658698D01*
Y654699D01*
X523589Y653699D01*
X521590D01*
X520590Y654699D01*
Y658698D01*
X526588D02*
X527588Y659697D01*
X529587D01*
X530587Y658698D01*
Y654699D01*
X529587Y653699D01*
X527588D01*
X526588Y654699D01*
Y658698D01*
X532586Y653699D02*
Y657698D01*
X533586D01*
X534585Y656698D01*
Y653699D01*
Y656698D01*
X535585Y657698D01*
X536585Y656698D01*
Y653699D01*
X538584D02*
Y657698D01*
X539584D01*
X540583Y656698D01*
Y653699D01*
Y656698D01*
X541583Y657698D01*
X542583Y656698D01*
Y653699D01*
X552580D02*
X550580Y655698D01*
Y657698D01*
X552580Y659697D01*
X555579Y653699D02*
X557578D01*
X556578D01*
Y659697D01*
X555579Y658698D01*
X564576Y659697D02*
X560577D01*
Y656698D01*
X562576Y657698D01*
X563576D01*
X564576Y656698D01*
Y654699D01*
X563576Y653699D01*
X561577D01*
X560577Y654699D01*
X567575Y652699D02*
X568574Y653699D01*
Y654699D01*
X567575D01*
Y653699D01*
X568574D01*
X567575Y652699D01*
X566575Y651700D01*
X572573Y659697D02*
X576572D01*
Y658698D01*
X572573Y654699D01*
Y653699D01*
X582570Y659697D02*
X578571D01*
Y656698D01*
X580571Y657698D01*
X581570D01*
X582570Y656698D01*
Y654699D01*
X581570Y653699D01*
X579571D01*
X578571Y654699D01*
X584569Y653699D02*
Y657698D01*
X585569D01*
X586569Y656698D01*
Y653699D01*
Y656698D01*
X587568Y657698D01*
X588568Y656698D01*
Y653699D01*
X590567D02*
X592567D01*
X591567D01*
Y657698D01*
X590567D01*
X595566Y653699D02*
X597565D01*
X596565D01*
Y659697D01*
X595566D01*
X600564Y653699D02*
X602563Y655698D01*
Y657698D01*
X600564Y659697D01*
X448610Y644697D02*
X452608D01*
Y643698D01*
X448610Y639699D01*
Y638699D01*
X454608Y644697D02*
X458606D01*
Y643698D01*
X454608Y639699D01*
Y638699D01*
X466604Y644697D02*
X470603D01*
X468603D01*
Y638699D01*
X473602D02*
X475601D01*
X476601Y639699D01*
Y641698D01*
X475601Y642698D01*
X473602D01*
X472602Y641698D01*
Y639699D01*
X473602Y638699D01*
X479600Y643698D02*
Y642698D01*
X478600D01*
X480599D01*
X479600D01*
Y639699D01*
X480599Y638699D01*
X484598Y642698D02*
X486597D01*
X487597Y641698D01*
Y638699D01*
X484598D01*
X483598Y639699D01*
X484598Y640698D01*
X487597D01*
X489596Y638699D02*
X491596D01*
X490596D01*
Y644697D01*
X489596D01*
X448610Y659697D02*
X452608D01*
Y658698D01*
X448610Y654699D01*
Y653699D01*
X454608Y659697D02*
X458606D01*
Y658698D01*
X454608Y654699D01*
Y653699D01*
X756770Y612177D02*
Y606179D01*
X759769D01*
X760768Y607178D01*
Y608178D01*
X759769Y609178D01*
X756770D01*
X759769D01*
X760768Y610177D01*
Y611177D01*
X759769Y612177D01*
X756770D01*
X763767Y606179D02*
X765767D01*
X766766Y607178D01*
Y609178D01*
X765767Y610177D01*
X763767D01*
X762768Y609178D01*
Y607178D01*
X763767Y606179D01*
X769766Y610177D02*
X771765D01*
X772764Y609178D01*
Y606179D01*
X769766D01*
X768766Y607178D01*
X769766Y608178D01*
X772764D01*
X774764Y610177D02*
Y606179D01*
Y608178D01*
X775764Y609178D01*
X776763Y610177D01*
X777763D01*
X784761Y612177D02*
Y606179D01*
X781762D01*
X780762Y607178D01*
Y609178D01*
X781762Y610177D01*
X784761D01*
X792758Y612177D02*
Y606179D01*
X796757D01*
X799756Y610177D02*
X801755D01*
X802755Y609178D01*
Y606179D01*
X799756D01*
X798756Y607178D01*
X799756Y608178D01*
X802755D01*
X804754Y610177D02*
Y607178D01*
X805754Y606179D01*
X808753D01*
Y605179D01*
X807753Y604179D01*
X806754D01*
X808753Y606179D02*
Y610177D01*
X813751Y606179D02*
X811752D01*
X810752Y607178D01*
Y609178D01*
X811752Y610177D01*
X813751D01*
X814751Y609178D01*
Y608178D01*
X810752D01*
X816750Y610177D02*
Y606179D01*
Y608178D01*
X817750Y609178D01*
X818750Y610177D01*
X819749D01*
X832745Y611177D02*
X831745Y612177D01*
X829746D01*
X828746Y611177D01*
Y610177D01*
X829746Y609178D01*
X831745D01*
X832745Y608178D01*
Y607178D01*
X831745Y606179D01*
X829746D01*
X828746Y607178D01*
X835744Y611177D02*
Y610177D01*
X834744D01*
X836744D01*
X835744D01*
Y607178D01*
X836744Y606179D01*
X840742Y610177D02*
X842742D01*
X843742Y609178D01*
Y606179D01*
X840742D01*
X839743Y607178D01*
X840742Y608178D01*
X843742D01*
X849740Y610177D02*
X846741D01*
X845741Y609178D01*
Y607178D01*
X846741Y606179D01*
X849740D01*
X851739D02*
Y612177D01*
Y608178D02*
X854738Y610177D01*
X851739Y608178D02*
X854738Y606179D01*
X702783Y582179D02*
Y588177D01*
X699784Y585178D01*
X703782D01*
X702783Y546179D02*
Y552177D01*
X699784Y549178D01*
X703782D01*
X705782Y546179D02*
Y547178D01*
X706781D01*
Y546179D01*
X705782D01*
X710780Y551177D02*
X711780Y552177D01*
X713779D01*
X714779Y551177D01*
Y550177D01*
X713779Y549178D01*
X712779D01*
X713779D01*
X714779Y548178D01*
Y547178D01*
X713779Y546179D01*
X711780D01*
X710780Y547178D01*
X702783Y534179D02*
Y540177D01*
X699784Y537178D01*
X703782D01*
X705782Y534179D02*
Y535178D01*
X706781D01*
Y534179D01*
X705782D01*
X710780Y539177D02*
X711780Y540177D01*
X713779D01*
X714779Y539177D01*
Y538177D01*
X713779Y537178D01*
X712779D01*
X713779D01*
X714779Y536178D01*
Y535178D01*
X713779Y534179D01*
X711780D01*
X710780Y535178D01*
X702783Y510179D02*
Y516177D01*
X699784Y513178D01*
X703782D01*
X705782Y510179D02*
Y511178D01*
X706781D01*
Y510179D01*
X705782D01*
X710780Y515177D02*
X711780Y516177D01*
X713779D01*
X714779Y515177D01*
Y514177D01*
X713779Y513178D01*
X714779Y512178D01*
Y511178D01*
X713779Y510179D01*
X711780D01*
X710780Y511178D01*
Y512178D01*
X711780Y513178D01*
X710780Y514177D01*
Y515177D01*
X711780Y513178D02*
X713779D01*
X702783Y486179D02*
Y492177D01*
X699784Y489178D01*
X703782D01*
X705782Y486179D02*
Y487178D01*
X706781D01*
Y486179D01*
X705782D01*
X710780Y491177D02*
X711780Y492177D01*
X713779D01*
X714779Y491177D01*
Y490177D01*
X713779Y489178D01*
X712779D01*
X713779D01*
X714779Y488178D01*
Y487178D01*
X713779Y486179D01*
X711780D01*
X710780Y487178D01*
X702783Y474179D02*
Y480177D01*
X699784Y477178D01*
X703782D01*
X705782Y474179D02*
Y475178D01*
X706781D01*
Y474179D01*
X705782D01*
X710780Y479177D02*
X711780Y480177D01*
X713779D01*
X714779Y479177D01*
Y478177D01*
X713779Y477178D01*
X712779D01*
X713779D01*
X714779Y476178D01*
Y475178D01*
X713779Y474179D01*
X711780D01*
X710780Y475178D01*
X702783Y438179D02*
Y444177D01*
X699784Y441178D01*
X703782D01*
Y611177D02*
X702783Y612177D01*
X700783D01*
X699784Y611177D01*
Y607178D01*
X700783Y606179D01*
X702783D01*
X703782Y607178D01*
X706781Y606179D02*
X708781D01*
X709780Y607178D01*
Y609178D01*
X708781Y610177D01*
X706781D01*
X705782Y609178D01*
Y607178D01*
X706781Y606179D01*
X711780D02*
Y610177D01*
X714779D01*
X715778Y609178D01*
Y606179D01*
X717778D02*
X720777D01*
X721776Y607178D01*
X720777Y608178D01*
X718778D01*
X717778Y609178D01*
X718778Y610177D01*
X721776D01*
X724776Y611177D02*
Y610177D01*
X723776D01*
X725775D01*
X724776D01*
Y607178D01*
X725775Y606179D01*
X729774Y610177D02*
X731773D01*
X732773Y609178D01*
Y606179D01*
X729774D01*
X728774Y607178D01*
X729774Y608178D01*
X732773D01*
X734772Y606179D02*
Y610177D01*
X737771D01*
X738771Y609178D01*
Y606179D01*
X741770Y611177D02*
Y610177D01*
X740770D01*
X742770D01*
X741770D01*
Y607178D01*
X742770Y606179D01*
X634800Y582179D02*
X636799D01*
X635800D01*
Y588177D01*
X634800Y587177D01*
X639798Y582179D02*
Y583178D01*
X640798D01*
Y582179D01*
X639798D01*
X644797Y587177D02*
X645796Y588177D01*
X647796D01*
X648796Y587177D01*
Y583178D01*
X647796Y582179D01*
X645796D01*
X644797Y583178D01*
Y587177D01*
X650795D02*
X651795Y588177D01*
X653794D01*
X654794Y587177D01*
Y583178D01*
X653794Y582179D01*
X651795D01*
X650795Y583178D01*
Y587177D01*
X656793Y582179D02*
Y586177D01*
X657793D01*
X658792Y585178D01*
Y582179D01*
Y585178D01*
X659792Y586177D01*
X660792Y585178D01*
Y582179D01*
X662791D02*
X664790D01*
X663791D01*
Y586177D01*
X662791D01*
X667789Y582179D02*
X669789D01*
X668789D01*
Y588177D01*
X667789D01*
X634800Y575177D02*
X635800Y576177D01*
X637799D01*
X638799Y575177D01*
Y571178D01*
X637799Y570179D01*
X635800D01*
X634800Y571178D01*
Y575177D01*
X640798Y570179D02*
Y571178D01*
X641798D01*
Y570179D01*
X640798D01*
X645796Y576177D02*
X649795D01*
Y575177D01*
X645796Y571178D01*
Y570179D01*
X651795Y571178D02*
X652794Y570179D01*
X654794D01*
X655793Y571178D01*
Y575177D01*
X654794Y576177D01*
X652794D01*
X651795Y575177D01*
Y574177D01*
X652794Y573178D01*
X655793D01*
X657793Y570179D02*
Y574177D01*
X658792D01*
X659792Y573178D01*
Y570179D01*
Y573178D01*
X660792Y574177D01*
X661791Y573178D01*
Y570179D01*
X663791D02*
X665790D01*
X664790D01*
Y574177D01*
X663791D01*
X668789Y570179D02*
X670788D01*
X669789D01*
Y576177D01*
X668789D01*
X634800Y558179D02*
X636799D01*
X635800D01*
Y564177D01*
X634800Y563177D01*
X639798Y558179D02*
Y559178D01*
X640798D01*
Y558179D01*
X639798D01*
X644797Y563177D02*
X645796Y564177D01*
X647796D01*
X648796Y563177D01*
Y562177D01*
X647796Y561178D01*
X646796D01*
X647796D01*
X648796Y560178D01*
Y559178D01*
X647796Y558179D01*
X645796D01*
X644797Y559178D01*
X650795Y563177D02*
X651795Y564177D01*
X653794D01*
X654794Y563177D01*
Y562177D01*
X653794Y561178D01*
X654794Y560178D01*
Y559178D01*
X653794Y558179D01*
X651795D01*
X650795Y559178D01*
Y560178D01*
X651795Y561178D01*
X650795Y562177D01*
Y563177D01*
X651795Y561178D02*
X653794D01*
X656793Y558179D02*
Y562177D01*
X657793D01*
X658792Y561178D01*
Y558179D01*
Y561178D01*
X659792Y562177D01*
X660792Y561178D01*
Y558179D01*
X662791D02*
X664790D01*
X663791D01*
Y562177D01*
X662791D01*
X667789Y558179D02*
X669789D01*
X668789D01*
Y564177D01*
X667789D01*
X638799Y552177D02*
X634800D01*
Y549178D01*
X636799Y550177D01*
X637799D01*
X638799Y549178D01*
Y547178D01*
X637799Y546179D01*
X635800D01*
X634800Y547178D01*
X640798Y546179D02*
Y547178D01*
X641798D01*
Y546179D01*
X640798D01*
X645796D02*
X647796D01*
X646796D01*
Y552177D01*
X645796Y551177D01*
X650795D02*
X651795Y552177D01*
X653794D01*
X654794Y551177D01*
Y547178D01*
X653794Y546179D01*
X651795D01*
X650795Y547178D01*
Y551177D01*
X656793Y546179D02*
Y550177D01*
X657793D01*
X658792Y549178D01*
Y546179D01*
Y549178D01*
X659792Y550177D01*
X660792Y549178D01*
Y546179D01*
X662791D02*
X664790D01*
X663791D01*
Y550177D01*
X662791D01*
X667789Y546179D02*
X669789D01*
X668789D01*
Y552177D01*
X667789D01*
X638799Y540177D02*
X634800D01*
Y537178D01*
X636799Y538177D01*
X637799D01*
X638799Y537178D01*
Y535178D01*
X637799Y534179D01*
X635800D01*
X634800Y535178D01*
X640798Y534179D02*
Y535178D01*
X641798D01*
Y534179D01*
X640798D01*
X645796D02*
X647796D01*
X646796D01*
Y540177D01*
X645796Y539177D01*
X650795D02*
X651795Y540177D01*
X653794D01*
X654794Y539177D01*
Y535178D01*
X653794Y534179D01*
X651795D01*
X650795Y535178D01*
Y539177D01*
X656793Y534179D02*
Y538177D01*
X657793D01*
X658792Y537178D01*
Y534179D01*
Y537178D01*
X659792Y538177D01*
X660792Y537178D01*
Y534179D01*
X662791D02*
X664790D01*
X663791D01*
Y538177D01*
X662791D01*
X667789Y534179D02*
X669789D01*
X668789D01*
Y540177D01*
X667789D01*
X634800Y522179D02*
X636799D01*
X635800D01*
Y528177D01*
X634800Y527177D01*
X639798Y522179D02*
Y523178D01*
X640798D01*
Y522179D01*
X639798D01*
X644797Y527177D02*
X645796Y528177D01*
X647796D01*
X648796Y527177D01*
Y526177D01*
X647796Y525178D01*
X646796D01*
X647796D01*
X648796Y524178D01*
Y523178D01*
X647796Y522179D01*
X645796D01*
X644797Y523178D01*
X650795Y527177D02*
X651795Y528177D01*
X653794D01*
X654794Y527177D01*
Y526177D01*
X653794Y525178D01*
X654794Y524178D01*
Y523178D01*
X653794Y522179D01*
X651795D01*
X650795Y523178D01*
Y524178D01*
X651795Y525178D01*
X650795Y526177D01*
Y527177D01*
X651795Y525178D02*
X653794D01*
X656793Y522179D02*
Y526177D01*
X657793D01*
X658792Y525178D01*
Y522179D01*
Y525178D01*
X659792Y526177D01*
X660792Y525178D01*
Y522179D01*
X662791D02*
X664790D01*
X663791D01*
Y526177D01*
X662791D01*
X667789Y522179D02*
X669789D01*
X668789D01*
Y528177D01*
X667789D01*
X638799Y510179D02*
X634800D01*
X638799Y514177D01*
Y515177D01*
X637799Y516177D01*
X635800D01*
X634800Y515177D01*
X640798D02*
X641798Y516177D01*
X643797D01*
X644797Y515177D01*
Y514177D01*
X643797Y513178D01*
X644797Y512178D01*
Y511178D01*
X643797Y510179D01*
X641798D01*
X640798Y511178D01*
Y512178D01*
X641798Y513178D01*
X640798Y514177D01*
Y515177D01*
X641798Y513178D02*
X643797D01*
X646796Y510179D02*
Y511178D01*
X647796D01*
Y510179D01*
X646796D01*
X651795Y515177D02*
X652794Y516177D01*
X654794D01*
X655793Y515177D01*
Y511178D01*
X654794Y510179D01*
X652794D01*
X651795Y511178D01*
Y515177D01*
X657793D02*
X658792Y516177D01*
X660792D01*
X661791Y515177D01*
Y511178D01*
X660792Y510179D01*
X658792D01*
X657793Y511178D01*
Y515177D01*
X663791Y510179D02*
Y514177D01*
X664790D01*
X665790Y513178D01*
Y510179D01*
Y513178D01*
X666790Y514177D01*
X667789Y513178D01*
Y510179D01*
X669789D02*
X671788D01*
X670788D01*
Y514177D01*
X669789D01*
X674787Y510179D02*
X676787D01*
X675787D01*
Y516177D01*
X674787D01*
X634800Y498179D02*
X636799D01*
X635800D01*
Y504177D01*
X634800Y503177D01*
X639798Y498179D02*
Y499178D01*
X640798D01*
Y498179D01*
X639798D01*
X644797Y503177D02*
X645796Y504177D01*
X647796D01*
X648796Y503177D01*
Y502177D01*
X647796Y501178D01*
X646796D01*
X647796D01*
X648796Y500178D01*
Y499178D01*
X647796Y498179D01*
X645796D01*
X644797Y499178D01*
X650795Y503177D02*
X651795Y504177D01*
X653794D01*
X654794Y503177D01*
Y502177D01*
X653794Y501178D01*
X654794Y500178D01*
Y499178D01*
X653794Y498179D01*
X651795D01*
X650795Y499178D01*
Y500178D01*
X651795Y501178D01*
X650795Y502177D01*
Y503177D01*
X651795Y501178D02*
X653794D01*
X656793Y498179D02*
Y502177D01*
X657793D01*
X658792Y501178D01*
Y498179D01*
Y501178D01*
X659792Y502177D01*
X660792Y501178D01*
Y498179D01*
X662791D02*
X664790D01*
X663791D01*
Y502177D01*
X662791D01*
X667789Y498179D02*
X669789D01*
X668789D01*
Y504177D01*
X667789D01*
X638799Y492177D02*
X634800D01*
Y489178D01*
X636799Y490177D01*
X637799D01*
X638799Y489178D01*
Y487178D01*
X637799Y486179D01*
X635800D01*
X634800Y487178D01*
X640798Y486179D02*
Y487178D01*
X641798D01*
Y486179D01*
X640798D01*
X645796D02*
X647796D01*
X646796D01*
Y492177D01*
X645796Y491177D01*
X650795D02*
X651795Y492177D01*
X653794D01*
X654794Y491177D01*
Y487178D01*
X653794Y486179D01*
X651795D01*
X650795Y487178D01*
Y491177D01*
X656793Y486179D02*
Y490177D01*
X657793D01*
X658792Y489178D01*
Y486179D01*
Y489178D01*
X659792Y490177D01*
X660792Y489178D01*
Y486179D01*
X662791D02*
X664790D01*
X663791D01*
Y490177D01*
X662791D01*
X667789Y486179D02*
X669789D01*
X668789D01*
Y492177D01*
X667789D01*
X638799Y480177D02*
X634800D01*
Y477178D01*
X636799Y478177D01*
X637799D01*
X638799Y477178D01*
Y475178D01*
X637799Y474179D01*
X635800D01*
X634800Y475178D01*
X640798Y474179D02*
Y475178D01*
X641798D01*
Y474179D01*
X640798D01*
X645796D02*
X647796D01*
X646796D01*
Y480177D01*
X645796Y479177D01*
X650795D02*
X651795Y480177D01*
X653794D01*
X654794Y479177D01*
Y475178D01*
X653794Y474179D01*
X651795D01*
X650795Y475178D01*
Y479177D01*
X656793Y474179D02*
Y478177D01*
X657793D01*
X658792Y477178D01*
Y474179D01*
Y477178D01*
X659792Y478177D01*
X660792Y477178D01*
Y474179D01*
X662791D02*
X664790D01*
X663791D01*
Y478177D01*
X662791D01*
X667789Y474179D02*
X669789D01*
X668789D01*
Y480177D01*
X667789D01*
X634800Y462179D02*
X636799D01*
X635800D01*
Y468177D01*
X634800Y467177D01*
X639798Y462179D02*
Y463178D01*
X640798D01*
Y462179D01*
X639798D01*
X644797Y467177D02*
X645796Y468177D01*
X647796D01*
X648796Y467177D01*
Y466177D01*
X647796Y465178D01*
X646796D01*
X647796D01*
X648796Y464178D01*
Y463178D01*
X647796Y462179D01*
X645796D01*
X644797Y463178D01*
X650795Y467177D02*
X651795Y468177D01*
X653794D01*
X654794Y467177D01*
Y466177D01*
X653794Y465178D01*
X654794Y464178D01*
Y463178D01*
X653794Y462179D01*
X651795D01*
X650795Y463178D01*
Y464178D01*
X651795Y465178D01*
X650795Y466177D01*
Y467177D01*
X651795Y465178D02*
X653794D01*
X656793Y462179D02*
Y466177D01*
X657793D01*
X658792Y465178D01*
Y462179D01*
Y465178D01*
X659792Y466177D01*
X660792Y465178D01*
Y462179D01*
X662791D02*
X664790D01*
X663791D01*
Y466177D01*
X662791D01*
X667789Y462179D02*
X669789D01*
X668789D01*
Y468177D01*
X667789D01*
X634800Y455177D02*
X635800Y456177D01*
X637799D01*
X638799Y455177D01*
Y451178D01*
X637799Y450179D01*
X635800D01*
X634800Y451178D01*
Y455177D01*
X640798Y450179D02*
Y451178D01*
X641798D01*
Y450179D01*
X640798D01*
X645796Y456177D02*
X649795D01*
Y455177D01*
X645796Y451178D01*
Y450179D01*
X651795Y451178D02*
X652794Y450179D01*
X654794D01*
X655793Y451178D01*
Y455177D01*
X654794Y456177D01*
X652794D01*
X651795Y455177D01*
Y454177D01*
X652794Y453178D01*
X655793D01*
X657793Y450179D02*
Y454177D01*
X658792D01*
X659792Y453178D01*
Y450179D01*
Y453178D01*
X660792Y454177D01*
X661791Y453178D01*
Y450179D01*
X663791D02*
X665790D01*
X664790D01*
Y454177D01*
X663791D01*
X668789Y450179D02*
X670788D01*
X669789D01*
Y456177D01*
X668789D01*
X634800Y438179D02*
X636799D01*
X635800D01*
Y444177D01*
X634800Y443177D01*
X639798Y438179D02*
Y439178D01*
X640798D01*
Y438179D01*
X639798D01*
X644797Y443177D02*
X645796Y444177D01*
X647796D01*
X648796Y443177D01*
Y439178D01*
X647796Y438179D01*
X645796D01*
X644797Y439178D01*
Y443177D01*
X650795D02*
X651795Y444177D01*
X653794D01*
X654794Y443177D01*
Y439178D01*
X653794Y438179D01*
X651795D01*
X650795Y439178D01*
Y443177D01*
X656793Y438179D02*
Y442177D01*
X657793D01*
X658792Y441178D01*
Y438179D01*
Y441178D01*
X659792Y442177D01*
X660792Y441178D01*
Y438179D01*
X662791D02*
X664790D01*
X663791D01*
Y442177D01*
X662791D01*
X667789Y438179D02*
X669789D01*
X668789D01*
Y444177D01*
X667789D01*
X634800Y612177D02*
X638799D01*
X636799D01*
Y606179D01*
X640798Y612177D02*
Y606179D01*
Y609178D01*
X641798Y610177D01*
X643797D01*
X644797Y609178D01*
Y606179D01*
X646796D02*
X648796D01*
X647796D01*
Y610177D01*
X646796D01*
X655793D02*
X652794D01*
X651795Y609178D01*
Y607178D01*
X652794Y606179D01*
X655793D01*
X657793D02*
Y612177D01*
Y608178D02*
X660792Y610177D01*
X657793Y608178D02*
X660792Y606179D01*
X663791D02*
Y610177D01*
X666790D01*
X667789Y609178D01*
Y606179D01*
X672788D02*
X670788D01*
X669789Y607178D01*
Y609178D01*
X670788Y610177D01*
X672788D01*
X673787Y609178D01*
Y608178D01*
X669789D01*
X675787Y606179D02*
X678786D01*
X679785Y607178D01*
X678786Y608178D01*
X676787D01*
X675787Y609178D01*
X676787Y610177D01*
X679785D01*
X681785Y606179D02*
X684784D01*
X685784Y607178D01*
X684784Y608178D01*
X682785D01*
X681785Y609178D01*
X682785Y610177D01*
X685784D01*
X578814Y587177D02*
X577814Y588177D01*
X575815D01*
X574815Y587177D01*
Y586177D01*
X575815Y585178D01*
X577814D01*
X578814Y584178D01*
Y583178D01*
X577814Y582179D01*
X575815D01*
X574815Y583178D01*
X580813Y582179D02*
Y588177D01*
X582812Y586177D01*
X584812Y588177D01*
Y582179D01*
X586811Y585178D02*
X590810D01*
X592809Y587177D02*
X593809Y588177D01*
X595808D01*
X596808Y587177D01*
Y583178D01*
X595808Y582179D01*
X593809D01*
X592809Y583178D01*
Y587177D01*
X598807D02*
X599807Y588177D01*
X601806D01*
X602806Y587177D01*
Y583178D01*
X601806Y582179D01*
X599807D01*
X598807Y583178D01*
Y587177D01*
X604805Y582179D02*
X606805D01*
X605805D01*
Y588177D01*
X604805Y587177D01*
X574815Y570179D02*
Y576177D01*
X577814D01*
X578814Y575177D01*
Y573178D01*
X577814Y572178D01*
X574815D01*
X580813Y576177D02*
Y570179D01*
X583812D01*
X584812Y571178D01*
Y572178D01*
Y573178D01*
X583812Y574177D01*
X580813D01*
X590810Y575177D02*
X589810Y576177D01*
X587811D01*
X586811Y575177D01*
Y574177D01*
X587811Y573178D01*
X589810D01*
X590810Y572178D01*
Y571178D01*
X589810Y570179D01*
X587811D01*
X586811Y571178D01*
X592809Y570179D02*
Y574177D01*
X595808D01*
X596808Y573178D01*
Y570179D01*
X578814Y563177D02*
X577814Y564177D01*
X575815D01*
X574815Y563177D01*
Y559178D01*
X575815Y558179D01*
X577814D01*
X578814Y559178D01*
X584812Y564177D02*
X580813D01*
Y561178D01*
X582812D01*
X580813D01*
Y558179D01*
X586811Y561178D02*
X590810D01*
X592809Y563177D02*
X593809Y564177D01*
X595808D01*
X596808Y563177D01*
Y559178D01*
X595808Y558179D01*
X593809D01*
X592809Y559178D01*
Y563177D01*
X598807D02*
X599807Y564177D01*
X601806D01*
X602806Y563177D01*
Y559178D01*
X601806Y558179D01*
X599807D01*
X598807Y559178D01*
Y563177D01*
X607804Y558179D02*
Y564177D01*
X604805Y561178D01*
X608804D01*
X574815Y546179D02*
Y552177D01*
X577814D01*
X578814Y551177D01*
Y549178D01*
X577814Y548178D01*
X574815D01*
X580813Y546179D02*
Y552177D01*
X583812D01*
X584812Y551177D01*
Y549178D01*
X583812Y548178D01*
X580813D01*
X586811Y549178D02*
X590810D01*
X592809Y551177D02*
X593809Y552177D01*
X595808D01*
X596808Y551177D01*
Y547178D01*
X595808Y546179D01*
X593809D01*
X592809Y547178D01*
Y551177D01*
X598807Y546179D02*
X600807D01*
X599807D01*
Y552177D01*
X598807Y551177D01*
X603806Y552177D02*
X607804D01*
Y551177D01*
X603806Y547178D01*
Y546179D01*
X574815Y534179D02*
Y540177D01*
X577814D01*
X578814Y539177D01*
Y537178D01*
X577814Y536178D01*
X574815D01*
X580813Y534179D02*
Y540177D01*
X583812D01*
X584812Y539177D01*
Y537178D01*
X583812Y536178D01*
X580813D01*
X586811Y537178D02*
X590810D01*
X592809Y539177D02*
X593809Y540177D01*
X595808D01*
X596808Y539177D01*
Y535178D01*
X595808Y534179D01*
X593809D01*
X592809Y535178D01*
Y539177D01*
X598807Y534179D02*
X600807D01*
X599807D01*
Y540177D01*
X598807Y539177D01*
X603806Y540177D02*
X607804D01*
Y539177D01*
X603806Y535178D01*
Y534179D01*
X578814Y527177D02*
X577814Y528177D01*
X575815D01*
X574815Y527177D01*
Y523178D01*
X575815Y522179D01*
X577814D01*
X578814Y523178D01*
X584812Y528177D02*
X580813D01*
Y525178D01*
X582812D01*
X580813D01*
Y522179D01*
X586811Y525178D02*
X590810D01*
X592809Y527177D02*
X593809Y528177D01*
X595808D01*
X596808Y527177D01*
Y523178D01*
X595808Y522179D01*
X593809D01*
X592809Y523178D01*
Y527177D01*
X598807D02*
X599807Y528177D01*
X601806D01*
X602806Y527177D01*
Y523178D01*
X601806Y522179D01*
X599807D01*
X598807Y523178D01*
Y527177D01*
X607804Y522179D02*
Y528177D01*
X604805Y525178D01*
X608804D01*
X578814Y515177D02*
X577814Y516177D01*
X575815D01*
X574815Y515177D01*
Y511178D01*
X575815Y510179D01*
X577814D01*
X578814Y511178D01*
X581813Y510179D02*
X583812D01*
X584812Y511178D01*
Y513178D01*
X583812Y514177D01*
X581813D01*
X580813Y513178D01*
Y511178D01*
X581813Y510179D01*
X586811Y514177D02*
Y510179D01*
Y512178D01*
X587811Y513178D01*
X588810Y514177D01*
X589810D01*
X595808Y510179D02*
X593809D01*
X592809Y511178D01*
Y513178D01*
X593809Y514177D01*
X595808D01*
X596808Y513178D01*
Y512178D01*
X592809D01*
X598807Y513178D02*
X602806D01*
X604805Y515177D02*
X605805Y516177D01*
X607804D01*
X608804Y515177D01*
Y511178D01*
X607804Y510179D01*
X605805D01*
X604805Y511178D01*
Y515177D01*
X610803D02*
X611803Y516177D01*
X613802D01*
X614802Y515177D01*
Y514177D01*
X613802Y513178D01*
X612803D01*
X613802D01*
X614802Y512178D01*
Y511178D01*
X613802Y510179D01*
X611803D01*
X610803Y511178D01*
X616801D02*
X617801Y510179D01*
X619800D01*
X620800Y511178D01*
Y515177D01*
X619800Y516177D01*
X617801D01*
X616801Y515177D01*
Y514177D01*
X617801Y513178D01*
X620800D01*
X578814Y503177D02*
X577814Y504177D01*
X575815D01*
X574815Y503177D01*
Y499178D01*
X575815Y498179D01*
X577814D01*
X578814Y499178D01*
X584812Y504177D02*
X580813D01*
Y501178D01*
X582812D01*
X580813D01*
Y498179D01*
X586811Y501178D02*
X590810D01*
X592809Y503177D02*
X593809Y504177D01*
X595808D01*
X596808Y503177D01*
Y499178D01*
X595808Y498179D01*
X593809D01*
X592809Y499178D01*
Y503177D01*
X598807D02*
X599807Y504177D01*
X601806D01*
X602806Y503177D01*
Y499178D01*
X601806Y498179D01*
X599807D01*
X598807Y499178D01*
Y503177D01*
X607804Y498179D02*
Y504177D01*
X604805Y501178D01*
X608804D01*
X574815Y486179D02*
Y492177D01*
X577814D01*
X578814Y491177D01*
Y489178D01*
X577814Y488178D01*
X574815D01*
X580813Y486179D02*
Y492177D01*
X583812D01*
X584812Y491177D01*
Y489178D01*
X583812Y488178D01*
X580813D01*
X586811Y489178D02*
X590810D01*
X592809Y491177D02*
X593809Y492177D01*
X595808D01*
X596808Y491177D01*
Y487178D01*
X595808Y486179D01*
X593809D01*
X592809Y487178D01*
Y491177D01*
X598807Y486179D02*
X600807D01*
X599807D01*
Y492177D01*
X598807Y491177D01*
X603806Y492177D02*
X607804D01*
Y491177D01*
X603806Y487178D01*
Y486179D01*
X574815Y474179D02*
Y480177D01*
X577814D01*
X578814Y479177D01*
Y477178D01*
X577814Y476178D01*
X574815D01*
X580813Y474179D02*
Y480177D01*
X583812D01*
X584812Y479177D01*
Y477178D01*
X583812Y476178D01*
X580813D01*
X586811Y477178D02*
X590810D01*
X592809Y479177D02*
X593809Y480177D01*
X595808D01*
X596808Y479177D01*
Y475178D01*
X595808Y474179D01*
X593809D01*
X592809Y475178D01*
Y479177D01*
X598807Y474179D02*
X600807D01*
X599807D01*
Y480177D01*
X598807Y479177D01*
X603806Y480177D02*
X607804D01*
Y479177D01*
X603806Y475178D01*
Y474179D01*
X578814Y467177D02*
X577814Y468177D01*
X575815D01*
X574815Y467177D01*
Y463178D01*
X575815Y462179D01*
X577814D01*
X578814Y463178D01*
X584812Y468177D02*
X580813D01*
Y465178D01*
X582812D01*
X580813D01*
Y462179D01*
X586811Y465178D02*
X590810D01*
X592809Y467177D02*
X593809Y468177D01*
X595808D01*
X596808Y467177D01*
Y463178D01*
X595808Y462179D01*
X593809D01*
X592809Y463178D01*
Y467177D01*
X598807D02*
X599807Y468177D01*
X601806D01*
X602806Y467177D01*
Y463178D01*
X601806Y462179D01*
X599807D01*
X598807Y463178D01*
Y467177D01*
X607804Y462179D02*
Y468177D01*
X604805Y465178D01*
X608804D01*
X574815Y450179D02*
Y456177D01*
X577814D01*
X578814Y455177D01*
Y453178D01*
X577814Y452178D01*
X574815D01*
X580813Y456177D02*
Y450179D01*
X583812D01*
X584812Y451178D01*
Y452178D01*
Y453178D01*
X583812Y454177D01*
X580813D01*
X590810Y455177D02*
X589810Y456177D01*
X587811D01*
X586811Y455177D01*
Y454177D01*
X587811Y453178D01*
X589810D01*
X590810Y452178D01*
Y451178D01*
X589810Y450179D01*
X587811D01*
X586811Y451178D01*
X592809Y450179D02*
Y454177D01*
X595808D01*
X596808Y453178D01*
Y450179D01*
X578814Y443177D02*
X577814Y444177D01*
X575815D01*
X574815Y443177D01*
Y442177D01*
X575815Y441178D01*
X577814D01*
X578814Y440178D01*
Y439178D01*
X577814Y438179D01*
X575815D01*
X574815Y439178D01*
X580813Y438179D02*
Y444177D01*
X582812Y442177D01*
X584812Y444177D01*
Y438179D01*
X586811Y441178D02*
X590810D01*
X592809Y443177D02*
X593809Y444177D01*
X595808D01*
X596808Y443177D01*
Y439178D01*
X595808Y438179D01*
X593809D01*
X592809Y439178D01*
Y443177D01*
X598807D02*
X599807Y444177D01*
X601806D01*
X602806Y443177D01*
Y439178D01*
X601806Y438179D01*
X599807D01*
X598807Y439178D01*
Y443177D01*
X604805Y438179D02*
X606805D01*
X605805D01*
Y444177D01*
X604805Y443177D01*
X574815Y606179D02*
Y612177D01*
X576814Y610177D01*
X578814Y612177D01*
Y606179D01*
X581813Y610177D02*
X583812D01*
X584812Y609178D01*
Y606179D01*
X581813D01*
X580813Y607178D01*
X581813Y608178D01*
X584812D01*
X587811Y611177D02*
Y610177D01*
X586811D01*
X588810D01*
X587811D01*
Y607178D01*
X588810Y606179D01*
X594808D02*
X592809D01*
X591810Y607178D01*
Y609178D01*
X592809Y610177D01*
X594808D01*
X595808Y609178D01*
Y608178D01*
X591810D01*
X597808Y610177D02*
Y606179D01*
Y608178D01*
X598807Y609178D01*
X599807Y610177D01*
X600807D01*
X603806Y606179D02*
X605805D01*
X604805D01*
Y610177D01*
X603806D01*
X609804D02*
X611803D01*
X612803Y609178D01*
Y606179D01*
X609804D01*
X608804Y607178D01*
X609804Y608178D01*
X612803D01*
X614802Y606179D02*
X616801D01*
X615802D01*
Y612177D01*
X614802D01*
X441853Y600177D02*
X445852D01*
X443853D01*
Y594179D01*
X448851D02*
X450850D01*
X451850Y595178D01*
Y597178D01*
X450850Y598177D01*
X448851D01*
X447852Y597178D01*
Y595178D01*
X448851Y594179D01*
X453850Y592179D02*
Y598177D01*
X456849D01*
X457848Y597178D01*
Y595178D01*
X456849Y594179D01*
X453850D01*
X468845Y600177D02*
X466845D01*
X465846Y599177D01*
Y595178D01*
X466845Y594179D01*
X468845D01*
X469844Y595178D01*
Y599177D01*
X468845Y600177D01*
X471844Y598177D02*
X473843Y594179D01*
X475843Y598177D01*
X480841Y594179D02*
X478841D01*
X477842Y595178D01*
Y597178D01*
X478841Y598177D01*
X480841D01*
X481841Y597178D01*
Y596178D01*
X477842D01*
X483840Y598177D02*
Y594179D01*
Y596178D01*
X484839Y597178D01*
X485839Y598177D01*
X486839D01*
X489838Y594179D02*
X491837D01*
X490838D01*
Y600177D01*
X489838D01*
X495836Y598177D02*
X497835D01*
X498835Y597178D01*
Y594179D01*
X495836D01*
X494836Y595178D01*
X495836Y596178D01*
X498835D01*
X500834Y598177D02*
Y595178D01*
X501834Y594179D01*
X504833D01*
Y593179D01*
X503833Y592179D01*
X502834D01*
X504833Y594179D02*
Y598177D01*
X441853Y588177D02*
X445852D01*
X443853D01*
Y582179D01*
X448851D02*
X450850D01*
X451850Y583178D01*
Y585178D01*
X450850Y586177D01*
X448851D01*
X447852Y585178D01*
Y583178D01*
X448851Y582179D01*
X453850Y580179D02*
Y586177D01*
X456849D01*
X457848Y585178D01*
Y583178D01*
X456849Y582179D01*
X453850D01*
X469844Y587177D02*
X468845Y588177D01*
X466845D01*
X465846Y587177D01*
Y586177D01*
X466845Y585178D01*
X468845D01*
X469844Y584178D01*
Y583178D01*
X468845Y582179D01*
X466845D01*
X465846Y583178D01*
X472843Y582179D02*
X474843D01*
X475843Y583178D01*
Y585178D01*
X474843Y586177D01*
X472843D01*
X471844Y585178D01*
Y583178D01*
X472843Y582179D01*
X477842D02*
X479841D01*
X478841D01*
Y588177D01*
X477842D01*
X486839D02*
Y582179D01*
X483840D01*
X482840Y583178D01*
Y585178D01*
X483840Y586177D01*
X486839D01*
X491837Y582179D02*
X489838D01*
X488838Y583178D01*
Y585178D01*
X489838Y586177D01*
X491837D01*
X492837Y585178D01*
Y584178D01*
X488838D01*
X494836Y586177D02*
Y582179D01*
Y584178D01*
X495836Y585178D01*
X496836Y586177D01*
X497835D01*
X441853Y576177D02*
X445852D01*
X443853D01*
Y570179D01*
X448851D02*
X450850D01*
X451850Y571178D01*
Y573178D01*
X450850Y574177D01*
X448851D01*
X447852Y573178D01*
Y571178D01*
X448851Y570179D01*
X453850Y568179D02*
Y574177D01*
X456849D01*
X457848Y573178D01*
Y571178D01*
X456849Y570179D01*
X453850D01*
X469844Y575177D02*
X468845Y576177D01*
X466845D01*
X465846Y575177D01*
Y574177D01*
X466845Y573178D01*
X468845D01*
X469844Y572178D01*
Y571178D01*
X468845Y570179D01*
X466845D01*
X465846Y571178D01*
X471844Y574177D02*
Y571178D01*
X472843Y570179D01*
X475843D01*
Y574177D01*
X477842D02*
Y570179D01*
Y572178D01*
X478841Y573178D01*
X479841Y574177D01*
X480841D01*
X484839Y570179D02*
Y575177D01*
Y573178D01*
X483840D01*
X485839D01*
X484839D01*
Y575177D01*
X485839Y576177D01*
X489838Y574177D02*
X491837D01*
X492837Y573178D01*
Y570179D01*
X489838D01*
X488838Y571178D01*
X489838Y572178D01*
X492837D01*
X498835Y574177D02*
X495836D01*
X494836Y573178D01*
Y571178D01*
X495836Y570179D01*
X498835D01*
X503833D02*
X501834D01*
X500834Y571178D01*
Y573178D01*
X501834Y574177D01*
X503833D01*
X504833Y573178D01*
Y572178D01*
X500834D01*
X516829Y576177D02*
X512830D01*
Y573178D01*
X514830D01*
X512830D01*
Y570179D01*
X518828D02*
X520828D01*
X519828D01*
Y574177D01*
X518828D01*
X523827Y570179D02*
Y574177D01*
X526826D01*
X527826Y573178D01*
Y570179D01*
X529825D02*
X531824D01*
X530825D01*
Y574177D01*
X529825D01*
X534823Y570179D02*
X537822D01*
X538822Y571178D01*
X537822Y572178D01*
X535823D01*
X534823Y573178D01*
X535823Y574177D01*
X538822D01*
X540821Y576177D02*
Y570179D01*
Y573178D01*
X541821Y574177D01*
X543820D01*
X544820Y573178D01*
Y570179D01*
X441853Y564177D02*
X445852D01*
X443853D01*
Y558179D01*
X448851D02*
X450850D01*
X451850Y559178D01*
Y561178D01*
X450850Y562177D01*
X448851D01*
X447852Y561178D01*
Y559178D01*
X448851Y558179D01*
X453850Y556179D02*
Y562177D01*
X456849D01*
X457848Y561178D01*
Y559178D01*
X456849Y558179D01*
X453850D01*
X465846Y564177D02*
Y558179D01*
X469844D01*
X472843Y562177D02*
X474843D01*
X475843Y561178D01*
Y558179D01*
X472843D01*
X471844Y559178D01*
X472843Y560178D01*
X475843D01*
X477842Y562177D02*
Y559178D01*
X478841Y558179D01*
X481841D01*
Y557179D01*
X480841Y556179D01*
X479841D01*
X481841Y558179D02*
Y562177D01*
X486839Y558179D02*
X484839D01*
X483840Y559178D01*
Y561178D01*
X484839Y562177D01*
X486839D01*
X487839Y561178D01*
Y560178D01*
X483840D01*
X489838Y562177D02*
Y558179D01*
Y560178D01*
X490838Y561178D01*
X491837Y562177D01*
X492837D01*
X441853Y552177D02*
Y546179D01*
X444852D01*
X445852Y547178D01*
Y551177D01*
X444852Y552177D01*
X441853D01*
X447852Y546179D02*
X449851D01*
X448851D01*
Y550177D01*
X447852D01*
X455849Y546179D02*
X453850D01*
X452850Y547178D01*
Y549178D01*
X453850Y550177D01*
X455849D01*
X456849Y549178D01*
Y548178D01*
X452850D01*
X458848Y546179D02*
X460847D01*
X459848D01*
Y552177D01*
X458848D01*
X466845Y546179D02*
X464846D01*
X463846Y547178D01*
Y549178D01*
X464846Y550177D01*
X466845D01*
X467845Y549178D01*
Y548178D01*
X463846D01*
X473843Y550177D02*
X470844D01*
X469844Y549178D01*
Y547178D01*
X470844Y546179D01*
X473843D01*
X476842Y551177D02*
Y550177D01*
X475842D01*
X477842D01*
X476842D01*
Y547178D01*
X477842Y546179D01*
X480841Y550177D02*
Y546179D01*
Y548178D01*
X481841Y549178D01*
X482840Y550177D01*
X483840D01*
X486839Y546179D02*
X488838D01*
X487839D01*
Y550177D01*
X486839D01*
X495836D02*
X492837D01*
X491837Y549178D01*
Y547178D01*
X492837Y546179D01*
X495836D01*
X503833D02*
X505833D01*
X504833D01*
Y552177D01*
X503833Y551177D01*
X441853Y540177D02*
Y534179D01*
X444852D01*
X445852Y535178D01*
Y539177D01*
X444852Y540177D01*
X441853D01*
X447852Y534179D02*
X449851D01*
X448851D01*
Y538177D01*
X447852D01*
X455849Y534179D02*
X453850D01*
X452850Y535178D01*
Y537178D01*
X453850Y538177D01*
X455849D01*
X456849Y537178D01*
Y536178D01*
X452850D01*
X458848Y534179D02*
X460847D01*
X459848D01*
Y540177D01*
X458848D01*
X466845Y534179D02*
X464846D01*
X463846Y535178D01*
Y537178D01*
X464846Y538177D01*
X466845D01*
X467845Y537178D01*
Y536178D01*
X463846D01*
X473843Y538177D02*
X470844D01*
X469844Y537178D01*
Y535178D01*
X470844Y534179D01*
X473843D01*
X476842Y539177D02*
Y538177D01*
X475842D01*
X477842D01*
X476842D01*
Y535178D01*
X477842Y534179D01*
X480841Y538177D02*
Y534179D01*
Y536178D01*
X481841Y537178D01*
X482840Y538177D01*
X483840D01*
X486839Y534179D02*
X488838D01*
X487839D01*
Y538177D01*
X486839D01*
X495836D02*
X492837D01*
X491837Y537178D01*
Y535178D01*
X492837Y534179D01*
X495836D01*
X507832D02*
X503833D01*
X507832Y538177D01*
Y539177D01*
X506832Y540177D01*
X504833D01*
X503833Y539177D01*
X445852Y527177D02*
X444852Y528177D01*
X442853D01*
X441853Y527177D01*
Y523178D01*
X442853Y522179D01*
X444852D01*
X445852Y523178D01*
Y525178D01*
X443853D01*
X447852Y522179D02*
Y528177D01*
X451850Y522179D01*
Y528177D01*
X453850D02*
Y522179D01*
X456849D01*
X457848Y523178D01*
Y527177D01*
X456849Y528177D01*
X453850D01*
X441853Y516177D02*
Y510179D01*
X444852D01*
X445852Y511178D01*
Y515177D01*
X444852Y516177D01*
X441853D01*
X447852Y510179D02*
X449851D01*
X448851D01*
Y514177D01*
X447852D01*
X455849Y510179D02*
X453850D01*
X452850Y511178D01*
Y513178D01*
X453850Y514177D01*
X455849D01*
X456849Y513178D01*
Y512178D01*
X452850D01*
X458848Y510179D02*
X460847D01*
X459848D01*
Y516177D01*
X458848D01*
X466845Y510179D02*
X464846D01*
X463846Y511178D01*
Y513178D01*
X464846Y514177D01*
X466845D01*
X467845Y513178D01*
Y512178D01*
X463846D01*
X473843Y514177D02*
X470844D01*
X469844Y513178D01*
Y511178D01*
X470844Y510179D01*
X473843D01*
X476842Y515177D02*
Y514177D01*
X475842D01*
X477842D01*
X476842D01*
Y511178D01*
X477842Y510179D01*
X480841Y514177D02*
Y510179D01*
Y512178D01*
X481841Y513178D01*
X482840Y514177D01*
X483840D01*
X486839Y510179D02*
X488838D01*
X487839D01*
Y514177D01*
X486839D01*
X495836D02*
X492837D01*
X491837Y513178D01*
Y511178D01*
X492837Y510179D01*
X495836D01*
X503833Y515177D02*
X504833Y516177D01*
X506832D01*
X507832Y515177D01*
Y514177D01*
X506832Y513178D01*
X505833D01*
X506832D01*
X507832Y512178D01*
Y511178D01*
X506832Y510179D01*
X504833D01*
X503833Y511178D01*
X441853Y498179D02*
Y504177D01*
X444852D01*
X445852Y503177D01*
Y501178D01*
X444852Y500178D01*
X441853D01*
X447852Y504177D02*
Y498179D01*
X449851Y500178D01*
X451850Y498179D01*
Y504177D01*
X453850Y498179D02*
Y504177D01*
X456849D01*
X457848Y503177D01*
Y501178D01*
X456849Y500178D01*
X453850D01*
X455849D02*
X457848Y498179D01*
X441853Y492177D02*
Y486179D01*
X444852D01*
X445852Y487178D01*
Y491177D01*
X444852Y492177D01*
X441853D01*
X447852Y486179D02*
X449851D01*
X448851D01*
Y490177D01*
X447852D01*
X455849Y486179D02*
X453850D01*
X452850Y487178D01*
Y489178D01*
X453850Y490177D01*
X455849D01*
X456849Y489178D01*
Y488178D01*
X452850D01*
X458848Y486179D02*
X460847D01*
X459848D01*
Y492177D01*
X458848D01*
X466845Y486179D02*
X464846D01*
X463846Y487178D01*
Y489178D01*
X464846Y490177D01*
X466845D01*
X467845Y489178D01*
Y488178D01*
X463846D01*
X473843Y490177D02*
X470844D01*
X469844Y489178D01*
Y487178D01*
X470844Y486179D01*
X473843D01*
X476842Y491177D02*
Y490177D01*
X475842D01*
X477842D01*
X476842D01*
Y487178D01*
X477842Y486179D01*
X480841Y490177D02*
Y486179D01*
Y488178D01*
X481841Y489178D01*
X482840Y490177D01*
X483840D01*
X486839Y486179D02*
X488838D01*
X487839D01*
Y490177D01*
X486839D01*
X495836D02*
X492837D01*
X491837Y489178D01*
Y487178D01*
X492837Y486179D01*
X495836D01*
X506832D02*
Y492177D01*
X503833Y489178D01*
X507832D01*
X441853Y480177D02*
Y474179D01*
X444852D01*
X445852Y475178D01*
Y479177D01*
X444852Y480177D01*
X441853D01*
X447852Y474179D02*
X449851D01*
X448851D01*
Y478177D01*
X447852D01*
X455849Y474179D02*
X453850D01*
X452850Y475178D01*
Y477178D01*
X453850Y478177D01*
X455849D01*
X456849Y477178D01*
Y476178D01*
X452850D01*
X458848Y474179D02*
X460847D01*
X459848D01*
Y480177D01*
X458848D01*
X466845Y474179D02*
X464846D01*
X463846Y475178D01*
Y477178D01*
X464846Y478177D01*
X466845D01*
X467845Y477178D01*
Y476178D01*
X463846D01*
X473843Y478177D02*
X470844D01*
X469844Y477178D01*
Y475178D01*
X470844Y474179D01*
X473843D01*
X476842Y479177D02*
Y478177D01*
X475842D01*
X477842D01*
X476842D01*
Y475178D01*
X477842Y474179D01*
X480841Y478177D02*
Y474179D01*
Y476178D01*
X481841Y477178D01*
X482840Y478177D01*
X483840D01*
X486839Y474179D02*
X488838D01*
X487839D01*
Y478177D01*
X486839D01*
X495836D02*
X492837D01*
X491837Y477178D01*
Y475178D01*
X492837Y474179D01*
X495836D01*
X507832Y480177D02*
X503833D01*
Y477178D01*
X505833Y478177D01*
X506832D01*
X507832Y477178D01*
Y475178D01*
X506832Y474179D01*
X504833D01*
X503833Y475178D01*
X441853Y468177D02*
Y462179D01*
X444852D01*
X445852Y463178D01*
Y464178D01*
X444852Y465178D01*
X441853D01*
X444852D01*
X445852Y466177D01*
Y467177D01*
X444852Y468177D01*
X441853D01*
X448851Y462179D02*
X450850D01*
X451850Y463178D01*
Y465178D01*
X450850Y466177D01*
X448851D01*
X447852Y465178D01*
Y463178D01*
X448851Y462179D01*
X454849Y467177D02*
Y466177D01*
X453850D01*
X455849D01*
X454849D01*
Y463178D01*
X455849Y462179D01*
X459848Y467177D02*
Y466177D01*
X458848D01*
X460847D01*
X459848D01*
Y463178D01*
X460847Y462179D01*
X464846D02*
X466845D01*
X467845Y463178D01*
Y465178D01*
X466845Y466177D01*
X464846D01*
X463846Y465178D01*
Y463178D01*
X464846Y462179D01*
X469844D02*
Y466177D01*
X470844D01*
X471844Y465178D01*
Y462179D01*
Y465178D01*
X472843Y466177D01*
X473843Y465178D01*
Y462179D01*
X481841Y468177D02*
Y462179D01*
X485839D01*
X488838Y466177D02*
X490838D01*
X491837Y465178D01*
Y462179D01*
X488838D01*
X487839Y463178D01*
X488838Y464178D01*
X491837D01*
X493837Y466177D02*
Y463178D01*
X494836Y462179D01*
X497835D01*
Y461179D01*
X496836Y460179D01*
X495836D01*
X497835Y462179D02*
Y466177D01*
X502834Y462179D02*
X500834D01*
X499835Y463178D01*
Y465178D01*
X500834Y466177D01*
X502834D01*
X503833Y465178D01*
Y464178D01*
X499835D01*
X505833Y466177D02*
Y462179D01*
Y464178D01*
X506832Y465178D01*
X507832Y466177D01*
X508832D01*
X441853Y456177D02*
Y450179D01*
X444852D01*
X445852Y451178D01*
Y452178D01*
X444852Y453178D01*
X441853D01*
X444852D01*
X445852Y454177D01*
Y455177D01*
X444852Y456177D01*
X441853D01*
X448851Y450179D02*
X450850D01*
X451850Y451178D01*
Y453178D01*
X450850Y454177D01*
X448851D01*
X447852Y453178D01*
Y451178D01*
X448851Y450179D01*
X454849Y455177D02*
Y454177D01*
X453850D01*
X455849D01*
X454849D01*
Y451178D01*
X455849Y450179D01*
X459848Y455177D02*
Y454177D01*
X458848D01*
X460847D01*
X459848D01*
Y451178D01*
X460847Y450179D01*
X464846D02*
X466845D01*
X467845Y451178D01*
Y453178D01*
X466845Y454177D01*
X464846D01*
X463846Y453178D01*
Y451178D01*
X464846Y450179D01*
X469844D02*
Y454177D01*
X470844D01*
X471844Y453178D01*
Y450179D01*
Y453178D01*
X472843Y454177D01*
X473843Y453178D01*
Y450179D01*
X485839Y455177D02*
X484839Y456177D01*
X482840D01*
X481841Y455177D01*
Y454177D01*
X482840Y453178D01*
X484839D01*
X485839Y452178D01*
Y451178D01*
X484839Y450179D01*
X482840D01*
X481841Y451178D01*
X487839Y454177D02*
Y451178D01*
X488838Y450179D01*
X491837D01*
Y454177D01*
X493837D02*
Y450179D01*
Y452178D01*
X494836Y453178D01*
X495836Y454177D01*
X496836D01*
X500834Y450179D02*
Y455177D01*
Y453178D01*
X499835D01*
X501834D01*
X500834D01*
Y455177D01*
X501834Y456177D01*
X505833Y454177D02*
X507832D01*
X508832Y453178D01*
Y450179D01*
X505833D01*
X504833Y451178D01*
X505833Y452178D01*
X508832D01*
X514830Y454177D02*
X511831D01*
X510831Y453178D01*
Y451178D01*
X511831Y450179D01*
X514830D01*
X519828D02*
X517829D01*
X516829Y451178D01*
Y453178D01*
X517829Y454177D01*
X519828D01*
X520828Y453178D01*
Y452178D01*
X516829D01*
X532824Y456177D02*
X528825D01*
Y453178D01*
X530825D01*
X528825D01*
Y450179D01*
X534823D02*
X536823D01*
X535823D01*
Y454177D01*
X534823D01*
X539822Y450179D02*
Y454177D01*
X542821D01*
X543820Y453178D01*
Y450179D01*
X545820D02*
X547819D01*
X546819D01*
Y454177D01*
X545820D01*
X550818Y450179D02*
X553817D01*
X554817Y451178D01*
X553817Y452178D01*
X551818D01*
X550818Y453178D01*
X551818Y454177D01*
X554817D01*
X556816Y456177D02*
Y450179D01*
Y453178D01*
X557816Y454177D01*
X559815D01*
X560815Y453178D01*
Y450179D01*
X441853Y444177D02*
Y438179D01*
X444852D01*
X445852Y439178D01*
Y440178D01*
X444852Y441178D01*
X441853D01*
X444852D01*
X445852Y442177D01*
Y443177D01*
X444852Y444177D01*
X441853D01*
X448851Y438179D02*
X450850D01*
X451850Y439178D01*
Y441178D01*
X450850Y442177D01*
X448851D01*
X447852Y441178D01*
Y439178D01*
X448851Y438179D01*
X454849Y443177D02*
Y442177D01*
X453850D01*
X455849D01*
X454849D01*
Y439178D01*
X455849Y438179D01*
X459848Y443177D02*
Y442177D01*
X458848D01*
X460847D01*
X459848D01*
Y439178D01*
X460847Y438179D01*
X464846D02*
X466845D01*
X467845Y439178D01*
Y441178D01*
X466845Y442177D01*
X464846D01*
X463846Y441178D01*
Y439178D01*
X464846Y438179D01*
X469844D02*
Y442177D01*
X470844D01*
X471844Y441178D01*
Y438179D01*
Y441178D01*
X472843Y442177D01*
X473843Y441178D01*
Y438179D01*
X485839Y443177D02*
X484839Y444177D01*
X482840D01*
X481841Y443177D01*
Y442177D01*
X482840Y441178D01*
X484839D01*
X485839Y440178D01*
Y439178D01*
X484839Y438179D01*
X482840D01*
X481841Y439178D01*
X488838Y438179D02*
X490838D01*
X491837Y439178D01*
Y441178D01*
X490838Y442177D01*
X488838D01*
X487839Y441178D01*
Y439178D01*
X488838Y438179D01*
X493837D02*
X495836D01*
X494836D01*
Y444177D01*
X493837D01*
X502834D02*
Y438179D01*
X499835D01*
X498835Y439178D01*
Y441178D01*
X499835Y442177D01*
X502834D01*
X507832Y438179D02*
X505833D01*
X504833Y439178D01*
Y441178D01*
X505833Y442177D01*
X507832D01*
X508832Y441178D01*
Y440178D01*
X504833D01*
X510831Y442177D02*
Y438179D01*
Y440178D01*
X511831Y441178D01*
X512830Y442177D01*
X513830D01*
X441853Y432177D02*
Y426179D01*
X444852D01*
X445852Y427178D01*
Y428178D01*
X444852Y429178D01*
X441853D01*
X444852D01*
X445852Y430177D01*
Y431177D01*
X444852Y432177D01*
X441853D01*
X448851Y426179D02*
X450850D01*
X451850Y427178D01*
Y429178D01*
X450850Y430177D01*
X448851D01*
X447852Y429178D01*
Y427178D01*
X448851Y426179D01*
X454849Y431177D02*
Y430177D01*
X453850D01*
X455849D01*
X454849D01*
Y427178D01*
X455849Y426179D01*
X459848Y431177D02*
Y430177D01*
X458848D01*
X460847D01*
X459848D01*
Y427178D01*
X460847Y426179D01*
X464846D02*
X466845D01*
X467845Y427178D01*
Y429178D01*
X466845Y430177D01*
X464846D01*
X463846Y429178D01*
Y427178D01*
X464846Y426179D01*
X469844D02*
Y430177D01*
X470844D01*
X471844Y429178D01*
Y426179D01*
Y429178D01*
X472843Y430177D01*
X473843Y429178D01*
Y426179D01*
X484839Y432177D02*
X482840D01*
X481841Y431177D01*
Y427178D01*
X482840Y426179D01*
X484839D01*
X485839Y427178D01*
Y431177D01*
X484839Y432177D01*
X487839Y430177D02*
X489838Y426179D01*
X491837Y430177D01*
X496836Y426179D02*
X494836D01*
X493837Y427178D01*
Y429178D01*
X494836Y430177D01*
X496836D01*
X497835Y429178D01*
Y428178D01*
X493837D01*
X499835Y430177D02*
Y426179D01*
Y428178D01*
X500834Y429178D01*
X501834Y430177D01*
X502834D01*
X505833Y426179D02*
X507832D01*
X506832D01*
Y432177D01*
X505833D01*
X511831Y430177D02*
X513830D01*
X514830Y429178D01*
Y426179D01*
X511831D01*
X510831Y427178D01*
X511831Y428178D01*
X514830D01*
X516829Y430177D02*
Y427178D01*
X517829Y426179D01*
X520828D01*
Y425179D01*
X519828Y424179D01*
X518828D01*
X520828Y426179D02*
Y430177D01*
X441853Y606179D02*
Y612177D01*
X445852Y606179D01*
Y612177D01*
X448851Y610177D02*
X450850D01*
X451850Y609178D01*
Y606179D01*
X448851D01*
X447852Y607178D01*
X448851Y608178D01*
X451850D01*
X453850Y606179D02*
Y610177D01*
X454849D01*
X455849Y609178D01*
Y606179D01*
Y609178D01*
X456849Y610177D01*
X457848Y609178D01*
Y606179D01*
X462847D02*
X460847D01*
X459848Y607178D01*
Y609178D01*
X460847Y610177D01*
X462847D01*
X463846Y609178D01*
Y608178D01*
X459848D01*
X400862Y558179D02*
X402861D01*
X401862D01*
Y564177D01*
X400862Y563177D01*
X404861Y522179D02*
X400862D01*
X404861Y526177D01*
Y527177D01*
X403861Y528177D01*
X401862D01*
X400862Y527177D01*
Y503177D02*
X401862Y504177D01*
X403861D01*
X404861Y503177D01*
Y502177D01*
X403861Y501178D01*
X402861D01*
X403861D01*
X404861Y500178D01*
Y499178D01*
X403861Y498179D01*
X401862D01*
X400862Y499178D01*
X403861Y462179D02*
Y468177D01*
X400862Y465178D01*
X404861D01*
X400862Y612177D02*
Y606179D01*
X404861D01*
X407860Y610177D02*
X409859D01*
X410859Y609178D01*
Y606179D01*
X407860D01*
X406860Y607178D01*
X407860Y608178D01*
X410859D01*
X412858Y610177D02*
Y607178D01*
X413858Y606179D01*
X416857D01*
Y605179D01*
X415857Y604179D01*
X414858D01*
X416857Y606179D02*
Y610177D01*
X421855Y606179D02*
X419856D01*
X418856Y607178D01*
Y609178D01*
X419856Y610177D01*
X421855D01*
X422855Y609178D01*
Y608178D01*
X418856D01*
X424854Y610177D02*
Y606179D01*
Y608178D01*
X425854Y609178D01*
X426854Y610177D01*
X427853D01*
D19*
X393864Y417075D02*
X397021Y420233D01*
X393866Y411078D02*
X403021Y420233D01*
X393869Y405081D02*
X409021Y420233D01*
X393872Y399084D02*
X415021Y420233D01*
X393875Y393087D02*
X421021Y420233D01*
X393878Y387090D02*
X427021Y420233D01*
X393881Y381093D02*
X433021Y420233D01*
X393884Y375096D02*
X439021Y420233D01*
X393887Y369099D02*
X445021Y420233D01*
X393890Y363102D02*
X451021Y420233D01*
X393893Y357105D02*
X457021Y420233D01*
X393896Y351108D02*
X463021Y420233D01*
X393899Y345111D02*
X469021Y420233D01*
X393902Y339114D02*
X475021Y420233D01*
X393905Y333117D02*
X481021Y420233D01*
X393908Y327120D02*
X487021Y420233D01*
X393911Y321123D02*
X493021Y420233D01*
X393914Y315126D02*
X499021Y420233D01*
X393917Y309129D02*
X505021Y420233D01*
X393920Y303132D02*
X511021Y420233D01*
X393923Y297135D02*
X517021Y420233D01*
X393926Y291138D02*
X523021Y420233D01*
X393929Y285141D02*
X529021Y420233D01*
X393932Y279144D02*
X535021Y420233D01*
X393935Y273147D02*
X541021Y420233D01*
X393938Y267150D02*
X547021Y420233D01*
X393941Y261153D02*
X553021Y420233D01*
X393944Y255156D02*
X559021Y420233D01*
X393947Y249159D02*
X565021Y420233D01*
X393950Y243162D02*
X571021Y420233D01*
X393953Y237165D02*
X577021Y420233D01*
X393956Y231168D02*
X583021Y420233D01*
X393959Y225170D02*
X589021Y420233D01*
X393962Y219174D02*
X595021Y420233D01*
X393965Y213176D02*
X601021Y420233D01*
X393968Y207179D02*
X607021Y420233D01*
X393970Y201182D02*
X613021Y420233D01*
X393973Y195185D02*
X619021Y420233D01*
X393976Y189188D02*
X625021Y420233D01*
X393979Y183191D02*
X631021Y420233D01*
X393982Y177194D02*
X637021Y420233D01*
X393985Y171197D02*
X643021Y420233D01*
X393988Y165200D02*
X649021Y420233D01*
X393991Y159203D02*
X655021Y420233D01*
X393994Y153206D02*
X661021Y420233D01*
X393997Y147209D02*
X667021Y420233D01*
X394000Y141212D02*
X673021Y420233D01*
X394003Y135215D02*
X679021Y420233D01*
X394006Y129218D02*
X685021Y420233D01*
X394009Y123221D02*
X691021Y420233D01*
X394012Y117224D02*
X697021Y420233D01*
X394015Y111227D02*
X703021Y420233D01*
X394018Y105230D02*
X705605Y416817D01*
X394021Y99233D02*
X705605Y410817D01*
X394024Y93236D02*
X705605Y404817D01*
X394027Y87239D02*
X705605Y398817D01*
X394030Y81242D02*
X705605Y392817D01*
X394033Y75245D02*
X705605Y386817D01*
X394036Y69248D02*
X705605Y380817D01*
X394039Y63251D02*
X705605Y374817D01*
X394042Y57254D02*
X705605Y368817D01*
X394045Y51257D02*
X705605Y362817D01*
X394048Y45260D02*
X705605Y356817D01*
X394051Y39263D02*
X705605Y350817D01*
X394054Y33266D02*
X705605Y344817D01*
X394057Y27269D02*
X705605Y338817D01*
X394060Y21272D02*
X705605Y332817D01*
X394063Y15275D02*
X705605Y326817D01*
X394066Y9278D02*
X705605Y320817D01*
X394069Y3280D02*
X705605Y314817D01*
X394072Y-2716D02*
X705605Y308817D01*
X394075Y-8714D02*
X705605Y302817D01*
X394077Y-14711D02*
X705605Y296817D01*
X394080Y-20708D02*
X705605Y290817D01*
X394083Y-26705D02*
X705605Y284817D01*
X394086Y-32702D02*
X705605Y278817D01*
X394089Y-38699D02*
X705605Y272817D01*
X394092Y-44696D02*
X705605Y266817D01*
X394095Y-50693D02*
X705605Y260817D01*
X394098Y-56690D02*
X705605Y254817D01*
X394101Y-62687D02*
X705605Y248817D01*
X394104Y-68684D02*
X705605Y242817D01*
X394107Y-74681D02*
X705605Y236817D01*
X394110Y-80678D02*
X705605Y230817D01*
X394113Y-86675D02*
X705605Y224817D01*
X394116Y-92672D02*
X705605Y218817D01*
X394119Y-98669D02*
X705605Y212817D01*
X399684Y-99104D02*
X705605Y206817D01*
X405684Y-99104D02*
X705605Y200817D01*
X411684Y-99104D02*
X705605Y194817D01*
X417684Y-99104D02*
X705605Y188817D01*
X423684Y-99104D02*
X705605Y182817D01*
X429684Y-99104D02*
X705605Y176817D01*
X435684Y-99104D02*
X705605Y170817D01*
X441684Y-99104D02*
X705605Y164817D01*
X447684Y-99104D02*
X705605Y158817D01*
X453684Y-99104D02*
X705605Y152817D01*
X459684Y-99104D02*
X705605Y146817D01*
X465684Y-99104D02*
X705605Y140817D01*
X471684Y-99104D02*
X705605Y134817D01*
X477684Y-99104D02*
X705605Y128817D01*
X483684Y-99104D02*
X705605Y122817D01*
X489684Y-99104D02*
X705605Y116817D01*
X495684Y-99104D02*
X705605Y110817D01*
X501684Y-99104D02*
X705605Y104817D01*
X507684Y-99104D02*
X705605Y98817D01*
X513684Y-99104D02*
X705605Y92817D01*
X519684Y-99104D02*
X705605Y86817D01*
X525684Y-99104D02*
X705605Y80817D01*
X531684Y-99104D02*
X705605Y74817D01*
X537684Y-99104D02*
X705605Y68817D01*
X543684Y-99104D02*
X705605Y62817D01*
X549684Y-99104D02*
X705605Y56817D01*
X555684Y-99104D02*
X705605Y50817D01*
X561684Y-99104D02*
X705605Y44817D01*
X567684Y-99104D02*
X705605Y38817D01*
X573684Y-99104D02*
X706277Y33489D01*
X579684Y-99104D02*
X712277Y33489D01*
X585684Y-99104D02*
X718277Y33489D01*
X591684Y-99104D02*
X724277Y33489D01*
X597684Y-99104D02*
X730277Y33489D01*
X603684Y-99104D02*
X736277Y33489D01*
X609684Y-99104D02*
X742277Y33489D01*
X615684Y-99104D02*
X748277Y33489D01*
X621684Y-99104D02*
X754277Y33489D01*
X627684Y-99104D02*
X760277Y33489D01*
X633684Y-99104D02*
X766277Y33489D01*
X639684Y-99104D02*
X772277Y33489D01*
X645684Y-99104D02*
X778277Y33489D01*
X651684Y-99104D02*
X784277Y33489D01*
X657684Y-99104D02*
X790277Y33489D01*
X663684Y-99104D02*
X796277Y33489D01*
X669684Y-99104D02*
X802277Y33489D01*
X675684Y-99104D02*
X808277Y33489D01*
X681684Y-99104D02*
X814277Y33489D01*
X687684Y-99104D02*
X820277Y33489D01*
X693684Y-99104D02*
X826277Y33489D01*
X699684Y-99104D02*
X832277Y33489D01*
X705684Y-99104D02*
X838277Y33489D01*
X711684Y-99104D02*
X844277Y33489D01*
X717684Y-99104D02*
X850277Y33489D01*
X723684Y-99104D02*
X856277Y33489D01*
X729684Y-99104D02*
X861738Y32950D01*
X735684Y-99104D02*
X861738Y26950D01*
X741684Y-99104D02*
X861738Y20950D01*
X747684Y-99104D02*
X861738Y14950D01*
X753684Y-99104D02*
X861738Y8950D01*
X759684Y-99104D02*
X861738Y2950D01*
X765684Y-99104D02*
X861738Y-3050D01*
X771684Y-99104D02*
X861738Y-9050D01*
X777684Y-99104D02*
X861738Y-15050D01*
X783684Y-99104D02*
X861738Y-21050D01*
X789684Y-99104D02*
X861738Y-27050D01*
X795684Y-99104D02*
X861738Y-33050D01*
X801684Y-99104D02*
X861738Y-39050D01*
X807684Y-99104D02*
X861738Y-45050D01*
X813684Y-99104D02*
X861738Y-51050D01*
X819684Y-99104D02*
X861738Y-57050D01*
X825684Y-99104D02*
X861738Y-63050D01*
X831684Y-99104D02*
X861738Y-69050D01*
X837684Y-99104D02*
X861738Y-75050D01*
X843684Y-99104D02*
X861738Y-81050D01*
X849684Y-99104D02*
X861738Y-87050D01*
X855684Y-99104D02*
X861738Y-93050D01*
X749770Y599210D02*
X753738Y603179D01*
X749770Y593210D02*
X759738Y603179D01*
X753738Y591179D02*
X765738Y603179D01*
X759738Y591179D02*
X771738Y603179D01*
X765738Y591179D02*
X777738Y603179D01*
X771738Y591179D02*
X783738Y603179D01*
X777738Y591179D02*
X789738Y603179D01*
X783738Y591179D02*
X795738Y603179D01*
X789738Y591179D02*
X801738Y603179D01*
X795738Y591179D02*
X807738Y603179D01*
X801738Y591179D02*
X813738Y603179D01*
X807738Y591179D02*
X819738Y603179D01*
X813738Y591179D02*
X825738Y603179D01*
X819738Y591179D02*
X831738Y603179D01*
X825738Y591179D02*
X837738Y603179D01*
X831738Y591179D02*
X843738Y603179D01*
X837738Y591179D02*
X849738Y603179D01*
X843738Y591179D02*
X855738Y603179D01*
X849738Y591179D02*
X861738Y603179D01*
X855738Y591179D02*
X861738Y597179D01*
X749770Y587210D02*
X753738Y591179D01*
X749770Y581210D02*
X759738Y591179D01*
X753738Y579179D02*
X765738Y591179D01*
X759738Y579179D02*
X771738Y591179D01*
X765738Y579179D02*
X777738Y591179D01*
X771738Y579179D02*
X783738Y591179D01*
X777738Y579179D02*
X789738Y591179D01*
X783738Y579179D02*
X795738Y591179D01*
X789738Y579179D02*
X801738Y591179D01*
X795738Y579179D02*
X807738Y591179D01*
X801738Y579179D02*
X813738Y591179D01*
X807738Y579179D02*
X819738Y591179D01*
X813738Y579179D02*
X825738Y591179D01*
X819738Y579179D02*
X831738Y591179D01*
X825738Y579179D02*
X837738Y591179D01*
X831738Y579179D02*
X843738Y591179D01*
X837738Y579179D02*
X849738Y591179D01*
X843738Y579179D02*
X855738Y591179D01*
X849738Y579179D02*
X861738Y591179D01*
X855738Y579179D02*
X861738Y585179D01*
X749770Y575210D02*
X753738Y579179D01*
X749770Y569210D02*
X759738Y579179D01*
X753738Y567179D02*
X765738Y579179D01*
X759738Y567179D02*
X771738Y579179D01*
X765738Y567179D02*
X777738Y579179D01*
X771738Y567179D02*
X783738Y579179D01*
X777738Y567179D02*
X789738Y579179D01*
X783738Y567179D02*
X795738Y579179D01*
X789738Y567179D02*
X801738Y579179D01*
X795738Y567179D02*
X807738Y579179D01*
X801738Y567179D02*
X813738Y579179D01*
X807738Y567179D02*
X819738Y579179D01*
X813738Y567179D02*
X825738Y579179D01*
X819738Y567179D02*
X831738Y579179D01*
X825738Y567179D02*
X837738Y579179D01*
X831738Y567179D02*
X843738Y579179D01*
X837738Y567179D02*
X849738Y579179D01*
X843738Y567179D02*
X855738Y579179D01*
X849738Y567179D02*
X861738Y579179D01*
X855738Y567179D02*
X861738Y573179D01*
X749770Y563210D02*
X753738Y567179D01*
X749770Y557210D02*
X759738Y567179D01*
X753738Y555179D02*
X765738Y567179D01*
X759738Y555179D02*
X771738Y567179D01*
X765738Y555179D02*
X777738Y567179D01*
X771738Y555179D02*
X783738Y567179D01*
X777738Y555179D02*
X789738Y567179D01*
X783738Y555179D02*
X795738Y567179D01*
X789738Y555179D02*
X801738Y567179D01*
X795738Y555179D02*
X807738Y567179D01*
X801738Y555179D02*
X813738Y567179D01*
X807738Y555179D02*
X819738Y567179D01*
X813738Y555179D02*
X825738Y567179D01*
X819738Y555179D02*
X831738Y567179D01*
X825738Y555179D02*
X837738Y567179D01*
X831738Y555179D02*
X843738Y567179D01*
X837738Y555179D02*
X849738Y567179D01*
X843738Y555179D02*
X855738Y567179D01*
X849738Y555179D02*
X861738Y567179D01*
X855738Y555179D02*
X861738Y561179D01*
X749770Y551210D02*
X753738Y555179D01*
X749770Y545210D02*
X759738Y555179D01*
X753738Y543179D02*
X765738Y555179D01*
X759738Y543179D02*
X771738Y555179D01*
X765738Y543179D02*
X777738Y555179D01*
X771738Y543179D02*
X783738Y555179D01*
X777738Y543179D02*
X789738Y555179D01*
X783738Y543179D02*
X795738Y555179D01*
X789738Y543179D02*
X801738Y555179D01*
X795738Y543179D02*
X807738Y555179D01*
X801738Y543179D02*
X813738Y555179D01*
X807738Y543179D02*
X819738Y555179D01*
X813738Y543179D02*
X825738Y555179D01*
X819738Y543179D02*
X831738Y555179D01*
X825738Y543179D02*
X837738Y555179D01*
X831738Y543179D02*
X843738Y555179D01*
X837738Y543179D02*
X849738Y555179D01*
X843738Y543179D02*
X855738Y555179D01*
X849738Y543179D02*
X861738Y555179D01*
X855738Y543179D02*
X861738Y549179D01*
X749770Y539210D02*
X753738Y543179D01*
X749770Y533210D02*
X759738Y543179D01*
X753738Y531179D02*
X765738Y543179D01*
X759738Y531179D02*
X771738Y543179D01*
X765738Y531179D02*
X777738Y543179D01*
X771738Y531179D02*
X783738Y543179D01*
X777738Y531179D02*
X789738Y543179D01*
X783738Y531179D02*
X795738Y543179D01*
X789738Y531179D02*
X801738Y543179D01*
X795738Y531179D02*
X807738Y543179D01*
X801738Y531179D02*
X813738Y543179D01*
X807738Y531179D02*
X819738Y543179D01*
X813738Y531179D02*
X825738Y543179D01*
X819738Y531179D02*
X831738Y543179D01*
X825738Y531179D02*
X837738Y543179D01*
X831738Y531179D02*
X843738Y543179D01*
X837738Y531179D02*
X849738Y543179D01*
X843738Y531179D02*
X855738Y543179D01*
X849738Y531179D02*
X861738Y543179D01*
X855738Y531179D02*
X861738Y537179D01*
X749770Y527210D02*
X753738Y531179D01*
X749770Y521210D02*
X759738Y531179D01*
X753738Y519179D02*
X765738Y531179D01*
X759738Y519179D02*
X771738Y531179D01*
X765738Y519179D02*
X777738Y531179D01*
X771738Y519179D02*
X783738Y531179D01*
X777738Y519179D02*
X789738Y531179D01*
X783738Y519179D02*
X795738Y531179D01*
X789738Y519179D02*
X801738Y531179D01*
X795738Y519179D02*
X807738Y531179D01*
X801738Y519179D02*
X813738Y531179D01*
X807738Y519179D02*
X819738Y531179D01*
X813738Y519179D02*
X825738Y531179D01*
X819738Y519179D02*
X831738Y531179D01*
X825738Y519179D02*
X837738Y531179D01*
X831738Y519179D02*
X843738Y531179D01*
X837738Y519179D02*
X849738Y531179D01*
X843738Y519179D02*
X855738Y531179D01*
X849738Y519179D02*
X861738Y531179D01*
X855738Y519179D02*
X861738Y525179D01*
X749770Y515210D02*
X753738Y519179D01*
X749770Y509210D02*
X759738Y519179D01*
X753738Y507179D02*
X765738Y519179D01*
X759738Y507179D02*
X771738Y519179D01*
X765738Y507179D02*
X777738Y519179D01*
X771738Y507179D02*
X783738Y519179D01*
X777738Y507179D02*
X789738Y519179D01*
X783738Y507179D02*
X795738Y519179D01*
X789738Y507179D02*
X801738Y519179D01*
X795738Y507179D02*
X807738Y519179D01*
X801738Y507179D02*
X813738Y519179D01*
X807738Y507179D02*
X819738Y519179D01*
X813738Y507179D02*
X825738Y519179D01*
X819738Y507179D02*
X831738Y519179D01*
X825738Y507179D02*
X837738Y519179D01*
X831738Y507179D02*
X843738Y519179D01*
X837738Y507179D02*
X849738Y519179D01*
X843738Y507179D02*
X855738Y519179D01*
X849738Y507179D02*
X861738Y519179D01*
X855738Y507179D02*
X861738Y513179D01*
X749770Y503210D02*
X753738Y507179D01*
X749770Y497210D02*
X759738Y507179D01*
X753738Y495179D02*
X765738Y507179D01*
X759738Y495179D02*
X771738Y507179D01*
X765738Y495179D02*
X777738Y507179D01*
X771738Y495179D02*
X783738Y507179D01*
X777738Y495179D02*
X789738Y507179D01*
X783738Y495179D02*
X795738Y507179D01*
X789738Y495179D02*
X801738Y507179D01*
X795738Y495179D02*
X807738Y507179D01*
X801738Y495179D02*
X813738Y507179D01*
X807738Y495179D02*
X819738Y507179D01*
X813738Y495179D02*
X825738Y507179D01*
X819738Y495179D02*
X831738Y507179D01*
X825738Y495179D02*
X837738Y507179D01*
X831738Y495179D02*
X843738Y507179D01*
X837738Y495179D02*
X849738Y507179D01*
X843738Y495179D02*
X855738Y507179D01*
X849738Y495179D02*
X861738Y507179D01*
X855738Y495179D02*
X861738Y501179D01*
X749770Y491210D02*
X753738Y495179D01*
X749770Y485210D02*
X759738Y495179D01*
X753738Y483179D02*
X765738Y495179D01*
X759738Y483179D02*
X771738Y495179D01*
X765738Y483179D02*
X777738Y495179D01*
X771738Y483179D02*
X783738Y495179D01*
X777738Y483179D02*
X789738Y495179D01*
X783738Y483179D02*
X795738Y495179D01*
X789738Y483179D02*
X801738Y495179D01*
X795738Y483179D02*
X807738Y495179D01*
X801738Y483179D02*
X813738Y495179D01*
X807738Y483179D02*
X819738Y495179D01*
X813738Y483179D02*
X825738Y495179D01*
X819738Y483179D02*
X831738Y495179D01*
X825738Y483179D02*
X837738Y495179D01*
X831738Y483179D02*
X843738Y495179D01*
X837738Y483179D02*
X849738Y495179D01*
X843738Y483179D02*
X855738Y495179D01*
X849738Y483179D02*
X861738Y495179D01*
X855738Y483179D02*
X861738Y489179D01*
X749770Y479210D02*
X753738Y483179D01*
X749770Y473210D02*
X759738Y483179D01*
X753738Y471179D02*
X765738Y483179D01*
X759738Y471179D02*
X771738Y483179D01*
X765738Y471179D02*
X777738Y483179D01*
X771738Y471179D02*
X783738Y483179D01*
X777738Y471179D02*
X789738Y483179D01*
X783738Y471179D02*
X795738Y483179D01*
X789738Y471179D02*
X801738Y483179D01*
X795738Y471179D02*
X807738Y483179D01*
X801738Y471179D02*
X813738Y483179D01*
X807738Y471179D02*
X819738Y483179D01*
X813738Y471179D02*
X825738Y483179D01*
X819738Y471179D02*
X831738Y483179D01*
X825738Y471179D02*
X837738Y483179D01*
X831738Y471179D02*
X843738Y483179D01*
X837738Y471179D02*
X849738Y483179D01*
X843738Y471179D02*
X855738Y483179D01*
X849738Y471179D02*
X861738Y483179D01*
X855738Y471179D02*
X861738Y477179D01*
X749770Y467210D02*
X753738Y471179D01*
X749770Y461210D02*
X759738Y471179D01*
X753738Y459179D02*
X765738Y471179D01*
X759738Y459179D02*
X771738Y471179D01*
X765738Y459179D02*
X777738Y471179D01*
X771738Y459179D02*
X783738Y471179D01*
X777738Y459179D02*
X789738Y471179D01*
X783738Y459179D02*
X795738Y471179D01*
X789738Y459179D02*
X801738Y471179D01*
X795738Y459179D02*
X807738Y471179D01*
X801738Y459179D02*
X813738Y471179D01*
X807738Y459179D02*
X819738Y471179D01*
X813738Y459179D02*
X825738Y471179D01*
X819738Y459179D02*
X831738Y471179D01*
X825738Y459179D02*
X837738Y471179D01*
X831738Y459179D02*
X843738Y471179D01*
X837738Y459179D02*
X849738Y471179D01*
X843738Y459179D02*
X855738Y471179D01*
X849738Y459179D02*
X861738Y471179D01*
X855738Y459179D02*
X861738Y465179D01*
X749770Y455210D02*
X753738Y459179D01*
X749770Y449210D02*
X759738Y459179D01*
X753738Y447179D02*
X765738Y459179D01*
X759738Y447179D02*
X771738Y459179D01*
X765738Y447179D02*
X777738Y459179D01*
X771738Y447179D02*
X783738Y459179D01*
X777738Y447179D02*
X789738Y459179D01*
X783738Y447179D02*
X795738Y459179D01*
X789738Y447179D02*
X801738Y459179D01*
X795738Y447179D02*
X807738Y459179D01*
X801738Y447179D02*
X813738Y459179D01*
X807738Y447179D02*
X819738Y459179D01*
X813738Y447179D02*
X825738Y459179D01*
X819738Y447179D02*
X831738Y459179D01*
X825738Y447179D02*
X837738Y459179D01*
X831738Y447179D02*
X843738Y459179D01*
X837738Y447179D02*
X849738Y459179D01*
X843738Y447179D02*
X855738Y459179D01*
X849738Y447179D02*
X861738Y459179D01*
X855738Y447179D02*
X861738Y453179D01*
X749770Y443210D02*
X753738Y447179D01*
X749770Y437210D02*
X759738Y447179D01*
X753738Y435179D02*
X765738Y447179D01*
X759738Y435179D02*
X771738Y447179D01*
X765738Y435179D02*
X777738Y447179D01*
X771738Y435179D02*
X783738Y447179D01*
X777738Y435179D02*
X789738Y447179D01*
X783738Y435179D02*
X795738Y447179D01*
X789738Y435179D02*
X801738Y447179D01*
X795738Y435179D02*
X807738Y447179D01*
X801738Y435179D02*
X813738Y447179D01*
X807738Y435179D02*
X819738Y447179D01*
X813738Y435179D02*
X825738Y447179D01*
X819738Y435179D02*
X831738Y447179D01*
X825738Y435179D02*
X837738Y447179D01*
X831738Y435179D02*
X843738Y447179D01*
X837738Y435179D02*
X849738Y447179D01*
X843738Y435179D02*
X855738Y447179D01*
X849738Y435179D02*
X861738Y447179D01*
X855738Y435179D02*
X861738Y441179D01*
X749770Y431210D02*
X753738Y435179D01*
X749770Y425210D02*
X759738Y435179D01*
X753738Y423179D02*
X765738Y435179D01*
X759738Y423179D02*
X771738Y435179D01*
X765738Y423179D02*
X777738Y435179D01*
X771738Y423179D02*
X783738Y435179D01*
X777738Y423179D02*
X789738Y435179D01*
X783738Y423179D02*
X795738Y435179D01*
X789738Y423179D02*
X801738Y435179D01*
X795738Y423179D02*
X807738Y435179D01*
X801738Y423179D02*
X813738Y435179D01*
X807738Y423179D02*
X819738Y435179D01*
X813738Y423179D02*
X825738Y435179D01*
X819738Y423179D02*
X831738Y435179D01*
X825738Y423179D02*
X837738Y435179D01*
X831738Y423179D02*
X843738Y435179D01*
X837738Y423179D02*
X849738Y435179D01*
X843738Y423179D02*
X855738Y435179D01*
X849738Y423179D02*
X861738Y435179D01*
X855738Y423179D02*
X861738Y429179D01*
D21*
X83300Y113450D02*
X84050D01*
X83300D02*
Y114950D01*
X84050D01*
Y115700D01*
X85550D01*
Y114950D02*
Y115700D01*
Y114950D02*
X86300D01*
Y113450D02*
Y114950D01*
X85550Y113450D02*
X86300D01*
X85550Y112700D02*
Y113450D01*
X84050Y112700D02*
X85550D01*
X84050D02*
Y113450D01*
X82300Y112950D02*
X83550D01*
X82300D02*
Y115450D01*
X83550D01*
Y116700D01*
X86050D01*
Y115450D02*
Y116700D01*
Y115450D02*
X87300D01*
Y112950D02*
Y115450D01*
X86050Y112950D02*
X87300D01*
X86050Y111700D02*
Y112950D01*
X83550Y111700D02*
X86050D01*
X83550D02*
Y112950D01*
X83627Y104373D02*
X84377D01*
X83627D02*
Y105872D01*
X84377D01*
Y106623D01*
X85878D01*
Y105872D02*
Y106623D01*
Y105872D02*
X86628D01*
Y104373D02*
Y105872D01*
X85878Y104373D02*
X86628D01*
X85878Y103622D02*
Y104373D01*
X84377Y103622D02*
X85878D01*
X84377D02*
Y104373D01*
X82627Y103873D02*
X83877D01*
X82627D02*
Y106372D01*
X83877D01*
Y107623D01*
X86378D01*
Y106372D02*
Y107623D01*
Y106372D02*
X87628D01*
Y103873D02*
Y106372D01*
X86378Y103873D02*
X87628D01*
X86378Y102622D02*
Y103873D01*
X83877Y102622D02*
X86378D01*
X83877D02*
Y103873D01*
X87850Y100400D02*
X88600D01*
X87850D02*
Y101900D01*
X88600D01*
Y102650D01*
X90100D01*
Y101900D02*
Y102650D01*
Y101900D02*
X90850D01*
Y100400D02*
Y101900D01*
X90100Y100400D02*
X90850D01*
X90100Y99650D02*
Y100400D01*
X88600Y99650D02*
X90100D01*
X88600D02*
Y100400D01*
X86850Y99900D02*
X88100D01*
X86850D02*
Y102400D01*
X88100D01*
Y103650D01*
X90600D01*
Y102400D02*
Y103650D01*
Y102400D02*
X91850D01*
Y99900D02*
Y102400D01*
X90600Y99900D02*
X91850D01*
X90600Y98650D02*
Y99900D01*
X88100Y98650D02*
X90600D01*
X88100D02*
Y99900D01*
X92200Y96300D02*
X92950D01*
X92200D02*
Y97800D01*
X92950D01*
Y98550D01*
X94450D01*
Y97800D02*
Y98550D01*
Y97800D02*
X95200D01*
Y96300D02*
Y97800D01*
X94450Y96300D02*
X95200D01*
X94450Y95550D02*
Y96300D01*
X92950Y95550D02*
X94450D01*
X92950D02*
Y96300D01*
X91200Y95800D02*
X92450D01*
X91200D02*
Y98300D01*
X92450D01*
Y99550D01*
X94950D01*
Y98300D02*
Y99550D01*
Y98300D02*
X96200D01*
Y95800D02*
Y98300D01*
X94950Y95800D02*
X96200D01*
X94950Y94550D02*
Y95800D01*
X92450Y94550D02*
X94950D01*
X92450D02*
Y95800D01*
X83150Y119100D02*
X83900D01*
X83150D02*
Y120600D01*
X83900D01*
Y121350D01*
X85400D01*
Y120600D02*
Y121350D01*
Y120600D02*
X86150D01*
Y119100D02*
Y120600D01*
X85400Y119100D02*
X86150D01*
X85400Y118350D02*
Y119100D01*
X83900Y118350D02*
X85400D01*
X83900D02*
Y119100D01*
X82150Y118600D02*
X83400D01*
X82150D02*
Y121100D01*
X83400D01*
Y122350D01*
X85900D01*
Y121100D02*
Y122350D01*
Y121100D02*
X87150D01*
Y118600D02*
Y121100D01*
X85900Y118600D02*
X87150D01*
X85900Y117350D02*
Y118600D01*
X83400Y117350D02*
X85900D01*
X83400D02*
Y118600D01*
X83300Y124500D02*
X84050D01*
X83300D02*
Y126000D01*
X84050D01*
Y126750D01*
X85550D01*
Y126000D02*
Y126750D01*
Y126000D02*
X86300D01*
Y124500D02*
Y126000D01*
X85550Y124500D02*
X86300D01*
X85550Y123750D02*
Y124500D01*
X84050Y123750D02*
X85550D01*
X84050D02*
Y124500D01*
X82300Y124000D02*
X83550D01*
X82300D02*
Y126500D01*
X83550D01*
Y127750D01*
X86050D01*
Y126500D02*
Y127750D01*
Y126500D02*
X87300D01*
Y124000D02*
Y126500D01*
X86050Y124000D02*
X87300D01*
X86050Y122750D02*
Y124000D01*
X83550Y122750D02*
X86050D01*
X83550D02*
Y124000D01*
X148865Y150848D02*
X149615D01*
X148865D02*
Y152348D01*
X149615D01*
Y153098D01*
X151115D01*
Y152348D02*
Y153098D01*
Y152348D02*
X151865D01*
Y150848D02*
Y152348D01*
X151115Y150848D02*
X151865D01*
X151115Y150099D02*
Y150848D01*
X149615Y150099D02*
X151115D01*
X149615D02*
Y150848D01*
X147865Y150348D02*
X149115D01*
X147865D02*
Y152848D01*
X149115D01*
Y154098D01*
X151615D01*
Y152848D02*
Y154098D01*
Y152848D02*
X152865D01*
Y150348D02*
Y152848D01*
X151615Y150348D02*
X152865D01*
X151615Y149099D02*
Y150348D01*
X149115Y149099D02*
X151615D01*
X149115D02*
Y150348D01*
X152050Y156250D02*
X152800D01*
X152050D02*
Y157750D01*
X152800D01*
Y158500D01*
X154300D01*
Y157750D02*
Y158500D01*
Y157750D02*
X155050D01*
Y156250D02*
Y157750D01*
X154300Y156250D02*
X155050D01*
X154300Y155500D02*
Y156250D01*
X152800Y155500D02*
X154300D01*
X152800D02*
Y156250D01*
X151050Y155750D02*
X152300D01*
X151050D02*
Y158250D01*
X152300D01*
Y159500D01*
X154800D01*
Y158250D02*
Y159500D01*
Y158250D02*
X156050D01*
Y155750D02*
Y158250D01*
X154800Y155750D02*
X156050D01*
X154800Y154500D02*
Y155750D01*
X152300Y154500D02*
X154800D01*
X152300D02*
Y155750D01*
X145445Y156250D02*
X146195D01*
X145445D02*
Y157750D01*
X146195D01*
Y158500D01*
X147695D01*
Y157750D02*
Y158500D01*
Y157750D02*
X148445D01*
Y156250D02*
Y157750D01*
X147695Y156250D02*
X148445D01*
X147695Y155500D02*
Y156250D01*
X146195Y155500D02*
X147695D01*
X146195D02*
Y156250D01*
X144445Y155750D02*
X145695D01*
X144445D02*
Y158250D01*
X145695D01*
Y159500D01*
X148195D01*
Y158250D02*
Y159500D01*
Y158250D02*
X149445D01*
Y155750D02*
Y158250D01*
X148195Y155750D02*
X149445D01*
X148195Y154500D02*
Y155750D01*
X145695Y154500D02*
X148195D01*
X145695D02*
Y155750D01*
X115250Y148600D02*
X116000D01*
X115250D02*
Y150100D01*
X116000D01*
Y150850D01*
X117500D01*
Y150100D02*
Y150850D01*
Y150100D02*
X118250D01*
Y148600D02*
Y150100D01*
X117500Y148600D02*
X118250D01*
X117500Y147850D02*
Y148600D01*
X116000Y147850D02*
X117500D01*
X116000D02*
Y148600D01*
X114250Y148100D02*
X115500D01*
X114250D02*
Y150600D01*
X115500D01*
Y151850D01*
X118000D01*
Y150600D02*
Y151850D01*
Y150600D02*
X119250D01*
Y148100D02*
Y150600D01*
X118000Y148100D02*
X119250D01*
X118000Y146850D02*
Y148100D01*
X115500Y146850D02*
X118000D01*
X115500D02*
Y148100D01*
X109550Y147850D02*
X110300D01*
X109550D02*
Y149350D01*
X110300D01*
Y150100D01*
X111800D01*
Y149350D02*
Y150100D01*
Y149350D02*
X112550D01*
Y147850D02*
Y149350D01*
X111800Y147850D02*
X112550D01*
X111800Y147100D02*
Y147850D01*
X110300Y147100D02*
X111800D01*
X110300D02*
Y147850D01*
X108550Y147350D02*
X109800D01*
X108550D02*
Y149850D01*
X109800D01*
Y151100D01*
X112300D01*
Y149850D02*
Y151100D01*
Y149850D02*
X113550D01*
Y147350D02*
Y149850D01*
X112300Y147350D02*
X113550D01*
X112300Y146100D02*
Y147350D01*
X109800Y146100D02*
X112300D01*
X109800D02*
Y147350D01*
X162300Y155300D02*
X163050D01*
X162300D02*
Y156800D01*
X163050D01*
Y157550D01*
X164550D01*
Y156800D02*
Y157550D01*
Y156800D02*
X165300D01*
Y155300D02*
Y156800D01*
X164550Y155300D02*
X165300D01*
X164550Y154550D02*
Y155300D01*
X163050Y154550D02*
X164550D01*
X163050D02*
Y155300D01*
X161300Y154800D02*
X162550D01*
X161300D02*
Y157300D01*
X162550D01*
Y158550D01*
X165050D01*
Y157300D02*
Y158550D01*
Y157300D02*
X166300D01*
Y154800D02*
Y157300D01*
X165050Y154800D02*
X166300D01*
X165050Y153550D02*
Y154800D01*
X162550Y153550D02*
X165050D01*
X162550D02*
Y154800D01*
X166800Y160550D02*
X167550D01*
X166800D02*
Y162050D01*
X167550D01*
Y162800D01*
X169050D01*
Y162050D02*
Y162800D01*
Y162050D02*
X169800D01*
Y160550D02*
Y162050D01*
X169050Y160550D02*
X169800D01*
X169050Y159800D02*
Y160550D01*
X167550Y159800D02*
X169050D01*
X167550D02*
Y160550D01*
X165800Y160050D02*
X167050D01*
X165800D02*
Y162550D01*
X167050D01*
Y163800D01*
X169550D01*
Y162550D02*
Y163800D01*
Y162550D02*
X170800D01*
Y160050D02*
Y162550D01*
X169550Y160050D02*
X170800D01*
X169550Y158800D02*
Y160050D01*
X167050Y158800D02*
X169550D01*
X167050D02*
Y160050D01*
X171050Y155300D02*
X171800D01*
X171050D02*
Y156800D01*
X171800D01*
Y157550D01*
X173300D01*
Y156800D02*
Y157550D01*
Y156800D02*
X174050D01*
Y155300D02*
Y156800D01*
X173300Y155300D02*
X174050D01*
X173300Y154550D02*
Y155300D01*
X171800Y154550D02*
X173300D01*
X171800D02*
Y155300D01*
X170050Y154800D02*
X171300D01*
X170050D02*
Y157300D01*
X171300D01*
Y158550D01*
X173800D01*
Y157300D02*
Y158550D01*
Y157300D02*
X175050D01*
Y154800D02*
Y157300D01*
X173800Y154800D02*
X175050D01*
X173800Y153550D02*
Y154800D01*
X171300Y153550D02*
X173800D01*
X171300D02*
Y154800D01*
X173600Y142150D02*
X174350D01*
X173600D02*
Y143650D01*
X174350D01*
Y144400D01*
X175850D01*
Y143650D02*
Y144400D01*
Y143650D02*
X176600D01*
Y142150D02*
Y143650D01*
X175850Y142150D02*
X176600D01*
X175850Y141400D02*
Y142150D01*
X174350Y141400D02*
X175850D01*
X174350D02*
Y142150D01*
X172600Y141650D02*
X173850D01*
X172600D02*
Y144150D01*
X173850D01*
Y145400D01*
X176350D01*
Y144150D02*
Y145400D01*
Y144150D02*
X177600D01*
Y141650D02*
Y144150D01*
X176350Y141650D02*
X177600D01*
X176350Y140400D02*
Y141650D01*
X173850Y140400D02*
X176350D01*
X173850D02*
Y141650D01*
X160350Y106200D02*
X161100D01*
X160350D02*
Y107700D01*
X161100D01*
Y108450D01*
X162600D01*
Y107700D02*
Y108450D01*
Y107700D02*
X163350D01*
Y106200D02*
Y107700D01*
X162600Y106200D02*
X163350D01*
X162600Y105450D02*
Y106200D01*
X161100Y105450D02*
X162600D01*
X161100D02*
Y106200D01*
X159350Y105700D02*
X160600D01*
X159350D02*
Y108200D01*
X160600D01*
Y109450D01*
X163100D01*
Y108200D02*
Y109450D01*
Y108200D02*
X164350D01*
Y105700D02*
Y108200D01*
X163100Y105700D02*
X164350D01*
X163100Y104450D02*
Y105700D01*
X160600Y104450D02*
X163100D01*
X160600D02*
Y105700D01*
X149200Y106200D02*
X149950D01*
X149200D02*
Y107700D01*
X149950D01*
Y108450D01*
X151450D01*
Y107700D02*
Y108450D01*
Y107700D02*
X152200D01*
Y106200D02*
Y107700D01*
X151450Y106200D02*
X152200D01*
X151450Y105450D02*
Y106200D01*
X149950Y105450D02*
X151450D01*
X149950D02*
Y106200D01*
X148200Y105700D02*
X149450D01*
X148200D02*
Y108200D01*
X149450D01*
Y109450D01*
X151950D01*
Y108200D02*
Y109450D01*
Y108200D02*
X153200D01*
Y105700D02*
Y108200D01*
X151950Y105700D02*
X153200D01*
X151950Y104450D02*
Y105700D01*
X149450Y104450D02*
X151950D01*
X149450D02*
Y105700D01*
X149200Y101000D02*
X149950D01*
X149200D02*
Y102500D01*
X149950D01*
Y103250D01*
X151450D01*
Y102500D02*
Y103250D01*
Y102500D02*
X152200D01*
Y101000D02*
Y102500D01*
X151450Y101000D02*
X152200D01*
X151450Y100250D02*
Y101000D01*
X149950Y100250D02*
X151450D01*
X149950D02*
Y101000D01*
X148200Y100500D02*
X149450D01*
X148200D02*
Y103000D01*
X149450D01*
Y104250D01*
X151950D01*
Y103000D02*
Y104250D01*
Y103000D02*
X153200D01*
Y100500D02*
Y103000D01*
X151950Y100500D02*
X153200D01*
X151950Y99250D02*
Y100500D01*
X149450Y99250D02*
X151950D01*
X149450D02*
Y100500D01*
X154850Y101000D02*
X155600D01*
X154850D02*
Y102500D01*
X155600D01*
Y103250D01*
X157100D01*
Y102500D02*
Y103250D01*
Y102500D02*
X157850D01*
Y101000D02*
Y102500D01*
X157100Y101000D02*
X157850D01*
X157100Y100250D02*
Y101000D01*
X155600Y100250D02*
X157100D01*
X155600D02*
Y101000D01*
X153850Y100500D02*
X155100D01*
X153850D02*
Y103000D01*
X155100D01*
Y104250D01*
X157600D01*
Y103000D02*
Y104250D01*
Y103000D02*
X158850D01*
Y100500D02*
Y103000D01*
X157600Y100500D02*
X158850D01*
X157600Y99250D02*
Y100500D01*
X155100Y99250D02*
X157600D01*
X155100D02*
Y100500D01*
X160350Y101000D02*
X161100D01*
X160350D02*
Y102500D01*
X161100D01*
Y103250D01*
X162600D01*
Y102500D02*
Y103250D01*
Y102500D02*
X163350D01*
Y101000D02*
Y102500D01*
X162600Y101000D02*
X163350D01*
X162600Y100250D02*
Y101000D01*
X161100Y100250D02*
X162600D01*
X161100D02*
Y101000D01*
X159350Y100500D02*
X160600D01*
X159350D02*
Y103000D01*
X160600D01*
Y104250D01*
X163100D01*
Y103000D02*
Y104250D01*
Y103000D02*
X164350D01*
Y100500D02*
Y103000D01*
X163100Y100500D02*
X164350D01*
X163100Y99250D02*
Y100500D01*
X160600Y99250D02*
X163100D01*
X160600D02*
Y100500D01*
X154850Y106200D02*
X155600D01*
X154850D02*
Y107700D01*
X155600D01*
Y108450D01*
X157100D01*
Y107700D02*
Y108450D01*
Y107700D02*
X157850D01*
Y106200D02*
Y107700D01*
X157100Y106200D02*
X157850D01*
X157100Y105450D02*
Y106200D01*
X155600Y105450D02*
X157100D01*
X155600D02*
Y106200D01*
X153850Y105700D02*
X155100D01*
X153850D02*
Y108200D01*
X155100D01*
Y109450D01*
X157600D01*
Y108200D02*
Y109450D01*
Y108200D02*
X158850D01*
Y105700D02*
Y108200D01*
X157600Y105700D02*
X158850D01*
X157600Y104450D02*
Y105700D01*
X155100Y104450D02*
X157600D01*
X155100D02*
Y105700D01*
X139800Y59900D02*
X140550D01*
X139800D02*
Y61400D01*
X140550D01*
Y62150D01*
X142050D01*
Y61400D02*
Y62150D01*
Y61400D02*
X142800D01*
Y59900D02*
Y61400D01*
X142050Y59900D02*
X142800D01*
X142050Y59150D02*
Y59900D01*
X140550Y59150D02*
X142050D01*
X140550D02*
Y59900D01*
X138800Y59400D02*
X140050D01*
X138800D02*
Y61900D01*
X140050D01*
Y63150D01*
X142550D01*
Y61900D02*
Y63150D01*
Y61900D02*
X143800D01*
Y59400D02*
Y61900D01*
X142550Y59400D02*
X143800D01*
X142550Y58150D02*
Y59400D01*
X140050Y58150D02*
X142550D01*
X140050D02*
Y59400D01*
X150500Y59300D02*
X151250D01*
X150500D02*
Y60800D01*
X151250D01*
Y61550D01*
X152750D01*
Y60800D02*
Y61550D01*
Y60800D02*
X153500D01*
Y59300D02*
Y60800D01*
X152750Y59300D02*
X153500D01*
X152750Y58550D02*
Y59300D01*
X151250Y58550D02*
X152750D01*
X151250D02*
Y59300D01*
X149500Y58800D02*
X150750D01*
X149500D02*
Y61300D01*
X150750D01*
Y62550D01*
X153250D01*
Y61300D02*
Y62550D01*
Y61300D02*
X154500D01*
Y58800D02*
Y61300D01*
X153250Y58800D02*
X154500D01*
X153250Y57550D02*
Y58800D01*
X150750Y57550D02*
X153250D01*
X150750D02*
Y58800D01*
X194900Y53300D02*
X195650D01*
X194900D02*
Y54800D01*
X195650D01*
Y55550D01*
X197150D01*
Y54800D02*
Y55550D01*
Y54800D02*
X197900D01*
Y53300D02*
Y54800D01*
X197150Y53300D02*
X197900D01*
X197150Y52550D02*
Y53300D01*
X195650Y52550D02*
X197150D01*
X195650D02*
Y53300D01*
X193900Y52800D02*
X195150D01*
X193900D02*
Y55300D01*
X195150D01*
Y56550D01*
X197650D01*
Y55300D02*
Y56550D01*
Y55300D02*
X198900D01*
Y52800D02*
Y55300D01*
X197650Y52800D02*
X198900D01*
X197650Y51550D02*
Y52800D01*
X195150Y51550D02*
X197650D01*
X195150D02*
Y52800D01*
X199450Y53150D02*
X200200D01*
X199450D02*
Y54650D01*
X200200D01*
Y55400D01*
X201700D01*
Y54650D02*
Y55400D01*
Y54650D02*
X202450D01*
Y53150D02*
Y54650D01*
X201700Y53150D02*
X202450D01*
X201700Y52400D02*
Y53150D01*
X200200Y52400D02*
X201700D01*
X200200D02*
Y53150D01*
X198450Y52650D02*
X199700D01*
X198450D02*
Y55150D01*
X199700D01*
Y56400D01*
X202200D01*
Y55150D02*
Y56400D01*
Y55150D02*
X203450D01*
Y52650D02*
Y55150D01*
X202200Y52650D02*
X203450D01*
X202200Y51400D02*
Y52650D01*
X199700Y51400D02*
X202200D01*
X199700D02*
Y52650D01*
X171100Y148450D02*
X171850D01*
X171100D02*
Y149950D01*
X171850D01*
Y150700D01*
X173350D01*
Y149950D02*
Y150700D01*
Y149950D02*
X174100D01*
Y148450D02*
Y149950D01*
X173350Y148450D02*
X174100D01*
X173350Y147700D02*
Y148450D01*
X171850Y147700D02*
X173350D01*
X171850D02*
Y148450D01*
X170100Y147950D02*
X171350D01*
X170100D02*
Y150450D01*
X171350D01*
Y151700D01*
X173850D01*
Y150450D02*
Y151700D01*
Y150450D02*
X175100D01*
Y147950D02*
Y150450D01*
X173850Y147950D02*
X175100D01*
X173850Y146700D02*
Y147950D01*
X171350Y146700D02*
X173850D01*
X171350D02*
Y147950D01*
X142300Y195200D02*
X143050D01*
X142300D02*
Y196700D01*
X143050D01*
Y197450D01*
X144550D01*
Y196700D02*
Y197450D01*
Y196700D02*
X145300D01*
Y195200D02*
Y196700D01*
X144550Y195200D02*
X145300D01*
X144550Y194450D02*
Y195200D01*
X143050Y194450D02*
X144550D01*
X143050D02*
Y195200D01*
X141300Y194700D02*
X142550D01*
X141300D02*
Y197200D01*
X142550D01*
Y198450D01*
X145050D01*
Y197200D02*
Y198450D01*
Y197200D02*
X146300D01*
Y194700D02*
Y197200D01*
X145050Y194700D02*
X146300D01*
X145050Y193450D02*
Y194700D01*
X142550Y193450D02*
X145050D01*
X142550D02*
Y194700D01*
X147350Y195200D02*
X148100D01*
X147350D02*
Y196700D01*
X148100D01*
Y197450D01*
X149600D01*
Y196700D02*
Y197450D01*
Y196700D02*
X150350D01*
Y195200D02*
Y196700D01*
X149600Y195200D02*
X150350D01*
X149600Y194450D02*
Y195200D01*
X148100Y194450D02*
X149600D01*
X148100D02*
Y195200D01*
X146350Y194700D02*
X147600D01*
X146350D02*
Y197200D01*
X147600D01*
Y198450D01*
X150100D01*
Y197200D02*
Y198450D01*
Y197200D02*
X151350D01*
Y194700D02*
Y197200D01*
X150100Y194700D02*
X151350D01*
X150100Y193450D02*
Y194700D01*
X147600Y193450D02*
X150100D01*
X147600D02*
Y194700D01*
X153200Y195200D02*
X153950D01*
X153200D02*
Y196700D01*
X153950D01*
Y197450D01*
X155450D01*
Y196700D02*
Y197450D01*
Y196700D02*
X156200D01*
Y195200D02*
Y196700D01*
X155450Y195200D02*
X156200D01*
X155450Y194450D02*
Y195200D01*
X153950Y194450D02*
X155450D01*
X153950D02*
Y195200D01*
X152200Y194700D02*
X153450D01*
X152200D02*
Y197200D01*
X153450D01*
Y198450D01*
X155950D01*
Y197200D02*
Y198450D01*
Y197200D02*
X157200D01*
Y194700D02*
Y197200D01*
X155950Y194700D02*
X157200D01*
X155950Y193450D02*
Y194700D01*
X153450Y193450D02*
X155950D01*
X153450D02*
Y194700D01*
X159040Y195200D02*
X159790D01*
X159040D02*
Y196700D01*
X159790D01*
Y197450D01*
X161290D01*
Y196700D02*
Y197450D01*
Y196700D02*
X162040D01*
Y195200D02*
Y196700D01*
X161290Y195200D02*
X162040D01*
X161290Y194450D02*
Y195200D01*
X159790Y194450D02*
X161290D01*
X159790D02*
Y195200D01*
X158040Y194700D02*
X159290D01*
X158040D02*
Y197200D01*
X159290D01*
Y198450D01*
X161790D01*
Y197200D02*
Y198450D01*
Y197200D02*
X163040D01*
Y194700D02*
Y197200D01*
X161790Y194700D02*
X163040D01*
X161790Y193450D02*
Y194700D01*
X159290Y193450D02*
X161790D01*
X159290D02*
Y194700D01*
X206450Y176850D02*
X207200D01*
X206450D02*
Y178350D01*
X207200D01*
Y179100D01*
X208700D01*
Y178350D02*
Y179100D01*
Y178350D02*
X209450D01*
Y176850D02*
Y178350D01*
X208700Y176850D02*
X209450D01*
X208700Y176100D02*
Y176850D01*
X207200Y176100D02*
X208700D01*
X207200D02*
Y176850D01*
X205450Y176350D02*
X206700D01*
X205450D02*
Y178850D01*
X206700D01*
Y180100D01*
X209200D01*
Y178850D02*
Y180100D01*
Y178850D02*
X210450D01*
Y176350D02*
Y178850D01*
X209200Y176350D02*
X210450D01*
X209200Y175100D02*
Y176350D01*
X206700Y175100D02*
X209200D01*
X206700D02*
Y176350D01*
X211900Y176850D02*
X212650D01*
X211900D02*
Y178350D01*
X212650D01*
Y179100D01*
X214150D01*
Y178350D02*
Y179100D01*
Y178350D02*
X214900D01*
Y176850D02*
Y178350D01*
X214150Y176850D02*
X214900D01*
X214150Y176100D02*
Y176850D01*
X212650Y176100D02*
X214150D01*
X212650D02*
Y176850D01*
X210900Y176350D02*
X212150D01*
X210900D02*
Y178850D01*
X212150D01*
Y180100D01*
X214650D01*
Y178850D02*
Y180100D01*
Y178850D02*
X215900D01*
Y176350D02*
Y178850D01*
X214650Y176350D02*
X215900D01*
X214650Y175100D02*
Y176350D01*
X212150Y175100D02*
X214650D01*
X212150D02*
Y176350D01*
X217550Y176850D02*
X218300D01*
X217550D02*
Y178350D01*
X218300D01*
Y179100D01*
X219800D01*
Y178350D02*
Y179100D01*
Y178350D02*
X220550D01*
Y176850D02*
Y178350D01*
X219800Y176850D02*
X220550D01*
X219800Y176100D02*
Y176850D01*
X218300Y176100D02*
X219800D01*
X218300D02*
Y176850D01*
X216550Y176350D02*
X217800D01*
X216550D02*
Y178850D01*
X217800D01*
Y180100D01*
X220300D01*
Y178850D02*
Y180100D01*
Y178850D02*
X221550D01*
Y176350D02*
Y178850D01*
X220300Y176350D02*
X221550D01*
X220300Y175100D02*
Y176350D01*
X217800Y175100D02*
X220300D01*
X217800D02*
Y176350D01*
X211900Y171050D02*
X212650D01*
X211900D02*
Y172550D01*
X212650D01*
Y173300D01*
X214150D01*
Y172550D02*
Y173300D01*
Y172550D02*
X214900D01*
Y171050D02*
Y172550D01*
X214150Y171050D02*
X214900D01*
X214150Y170300D02*
Y171050D01*
X212650Y170300D02*
X214150D01*
X212650D02*
Y171050D01*
X210900Y170550D02*
X212150D01*
X210900D02*
Y173050D01*
X212150D01*
Y174300D01*
X214650D01*
Y173050D02*
Y174300D01*
Y173050D02*
X215900D01*
Y170550D02*
Y173050D01*
X214650Y170550D02*
X215900D01*
X214650Y169300D02*
Y170550D01*
X212150Y169300D02*
X214650D01*
X212150D02*
Y170550D01*
X206450Y171050D02*
X207200D01*
X206450D02*
Y172550D01*
X207200D01*
Y173300D01*
X208700D01*
Y172550D02*
Y173300D01*
Y172550D02*
X209450D01*
Y171050D02*
Y172550D01*
X208700Y171050D02*
X209450D01*
X208700Y170300D02*
Y171050D01*
X207200Y170300D02*
X208700D01*
X207200D02*
Y171050D01*
X205450Y170550D02*
X206700D01*
X205450D02*
Y173050D01*
X206700D01*
Y174300D01*
X209200D01*
Y173050D02*
Y174300D01*
Y173050D02*
X210450D01*
Y170550D02*
Y173050D01*
X209200Y170550D02*
X210450D01*
X209200Y169300D02*
Y170550D01*
X206700Y169300D02*
X209200D01*
X206700D02*
Y170550D01*
X217550Y171050D02*
X218300D01*
X217550D02*
Y172550D01*
X218300D01*
Y173300D01*
X219800D01*
Y172550D02*
Y173300D01*
Y172550D02*
X220550D01*
Y171050D02*
Y172550D01*
X219800Y171050D02*
X220550D01*
X219800Y170300D02*
Y171050D01*
X218300Y170300D02*
X219800D01*
X218300D02*
Y171050D01*
X216550Y170550D02*
X217800D01*
X216550D02*
Y173050D01*
X217800D01*
Y174300D01*
X220300D01*
Y173050D02*
Y174300D01*
Y173050D02*
X221550D01*
Y170550D02*
Y173050D01*
X220300Y170550D02*
X221550D01*
X220300Y169300D02*
Y170550D01*
X217800Y169300D02*
X220300D01*
X217800D02*
Y170550D01*
X193400Y270250D02*
X194150D01*
X193400D02*
Y271750D01*
X194150D01*
Y272500D01*
X195650D01*
Y271750D02*
Y272500D01*
Y271750D02*
X196400D01*
Y270250D02*
Y271750D01*
X195650Y270250D02*
X196400D01*
X195650Y269500D02*
Y270250D01*
X194150Y269500D02*
X195650D01*
X194150D02*
Y270250D01*
X192400Y269750D02*
X193650D01*
X192400D02*
Y272250D01*
X193650D01*
Y273500D01*
X196150D01*
Y272250D02*
Y273500D01*
Y272250D02*
X197400D01*
Y269750D02*
Y272250D01*
X196150Y269750D02*
X197400D01*
X196150Y268500D02*
Y269750D01*
X193650Y268500D02*
X196150D01*
X193650D02*
Y269750D01*
X198350Y270250D02*
X199100D01*
X198350D02*
Y271750D01*
X199100D01*
Y272500D01*
X200600D01*
Y271750D02*
Y272500D01*
Y271750D02*
X201350D01*
Y270250D02*
Y271750D01*
X200600Y270250D02*
X201350D01*
X200600Y269500D02*
Y270250D01*
X199100Y269500D02*
X200600D01*
X199100D02*
Y270250D01*
X197350Y269750D02*
X198600D01*
X197350D02*
Y272250D01*
X198600D01*
Y273500D01*
X201100D01*
Y272250D02*
Y273500D01*
Y272250D02*
X202350D01*
Y269750D02*
Y272250D01*
X201100Y269750D02*
X202350D01*
X201100Y268500D02*
Y269750D01*
X198600Y268500D02*
X201100D01*
X198600D02*
Y269750D01*
X203600Y270250D02*
X204350D01*
X203600D02*
Y271750D01*
X204350D01*
Y272500D01*
X205850D01*
Y271750D02*
Y272500D01*
Y271750D02*
X206600D01*
Y270250D02*
Y271750D01*
X205850Y270250D02*
X206600D01*
X205850Y269500D02*
Y270250D01*
X204350Y269500D02*
X205850D01*
X204350D02*
Y270250D01*
X202600Y269750D02*
X203850D01*
X202600D02*
Y272250D01*
X203850D01*
Y273500D01*
X206350D01*
Y272250D02*
Y273500D01*
Y272250D02*
X207600D01*
Y269750D02*
Y272250D01*
X206350Y269750D02*
X207600D01*
X206350Y268500D02*
Y269750D01*
X203850Y268500D02*
X206350D01*
X203850D02*
Y269750D01*
X193400Y275900D02*
X194150D01*
X193400D02*
Y277400D01*
X194150D01*
Y278150D01*
X195650D01*
Y277400D02*
Y278150D01*
Y277400D02*
X196400D01*
Y275900D02*
Y277400D01*
X195650Y275900D02*
X196400D01*
X195650Y275150D02*
Y275900D01*
X194150Y275150D02*
X195650D01*
X194150D02*
Y275900D01*
X192400Y275400D02*
X193650D01*
X192400D02*
Y277900D01*
X193650D01*
Y279150D01*
X196150D01*
Y277900D02*
Y279150D01*
Y277900D02*
X197400D01*
Y275400D02*
Y277900D01*
X196150Y275400D02*
X197400D01*
X196150Y274150D02*
Y275400D01*
X193650Y274150D02*
X196150D01*
X193650D02*
Y275400D01*
X215050Y241350D02*
X215800D01*
X215050D02*
Y242850D01*
X215800D01*
Y243600D01*
X217300D01*
Y242850D02*
Y243600D01*
Y242850D02*
X218050D01*
Y241350D02*
Y242850D01*
X217300Y241350D02*
X218050D01*
X217300Y240600D02*
Y241350D01*
X215800Y240600D02*
X217300D01*
X215800D02*
Y241350D01*
X214050Y240850D02*
X215300D01*
X214050D02*
Y243350D01*
X215300D01*
Y244600D01*
X217800D01*
Y243350D02*
Y244600D01*
Y243350D02*
X219050D01*
Y240850D02*
Y243350D01*
X217800Y240850D02*
X219050D01*
X217800Y239600D02*
Y240850D01*
X215300Y239600D02*
X217800D01*
X215300D02*
Y240850D01*
X139400Y218800D02*
X140150D01*
X139400D02*
Y220300D01*
X140150D01*
Y221050D01*
X141650D01*
Y220300D02*
Y221050D01*
Y220300D02*
X142400D01*
Y218800D02*
Y220300D01*
X141650Y218800D02*
X142400D01*
X141650Y218050D02*
Y218800D01*
X140150Y218050D02*
X141650D01*
X140150D02*
Y218800D01*
X138400Y218300D02*
X139650D01*
X138400D02*
Y220800D01*
X139650D01*
Y222050D01*
X142150D01*
Y220800D02*
Y222050D01*
Y220800D02*
X143400D01*
Y218300D02*
Y220800D01*
X142150Y218300D02*
X143400D01*
X142150Y217050D02*
Y218300D01*
X139650Y217050D02*
X142150D01*
X139650D02*
Y218300D01*
X123750Y386800D02*
X124500D01*
X123750D02*
Y388300D01*
X124500D01*
Y389050D01*
X126000D01*
Y388300D02*
Y389050D01*
Y388300D02*
X126750D01*
Y386800D02*
Y388300D01*
X126000Y386800D02*
X126750D01*
X126000Y386050D02*
Y386800D01*
X124500Y386050D02*
X126000D01*
X124500D02*
Y386800D01*
X122750Y386300D02*
X124000D01*
X122750D02*
Y388800D01*
X124000D01*
Y390050D01*
X126500D01*
Y388800D02*
Y390050D01*
Y388800D02*
X127750D01*
Y386300D02*
Y388800D01*
X126500Y386300D02*
X127750D01*
X126500Y385050D02*
Y386300D01*
X124000Y385050D02*
X126500D01*
X124000D02*
Y386300D01*
X40250Y211750D02*
X41000D01*
X40250D02*
Y213250D01*
X41000D01*
Y214000D01*
X42500D01*
Y213250D02*
Y214000D01*
Y213250D02*
X43250D01*
Y211750D02*
Y213250D01*
X42500Y211750D02*
X43250D01*
X42500Y211000D02*
Y211750D01*
X41000Y211000D02*
X42500D01*
X41000D02*
Y211750D01*
X39250Y211250D02*
X40500D01*
X39250D02*
Y213750D01*
X40500D01*
Y215000D01*
X43000D01*
Y213750D02*
Y215000D01*
Y213750D02*
X44250D01*
Y211250D02*
Y213750D01*
X43000Y211250D02*
X44250D01*
X43000Y210000D02*
Y211250D01*
X40500Y210000D02*
X43000D01*
X40500D02*
Y211250D01*
X17450Y211750D02*
X18200D01*
X17450D02*
Y213250D01*
X18200D01*
Y214000D01*
X19700D01*
Y213250D02*
Y214000D01*
Y213250D02*
X20450D01*
Y211750D02*
Y213250D01*
X19700Y211750D02*
X20450D01*
X19700Y211000D02*
Y211750D01*
X18200Y211000D02*
X19700D01*
X18200D02*
Y211750D01*
X16450Y211250D02*
X17700D01*
X16450D02*
Y213750D01*
X17700D01*
Y215000D01*
X20200D01*
Y213750D02*
Y215000D01*
Y213750D02*
X21450D01*
Y211250D02*
Y213750D01*
X20200Y211250D02*
X21450D01*
X20200Y210000D02*
Y211250D01*
X17700Y210000D02*
X20200D01*
X17700D02*
Y211250D01*
X25454Y243099D02*
X26204D01*
X25454D02*
Y244599D01*
X26204D01*
Y245349D01*
X27704D01*
Y244599D02*
Y245349D01*
Y244599D02*
X28454D01*
Y243099D02*
Y244599D01*
X27704Y243099D02*
X28454D01*
X27704Y242349D02*
Y243099D01*
X26204Y242349D02*
X27704D01*
X26204D02*
Y243099D01*
X24454Y242599D02*
X25704D01*
X24454D02*
Y245099D01*
X25704D01*
Y246349D01*
X28204D01*
Y245099D02*
Y246349D01*
Y245099D02*
X29454D01*
Y242599D02*
Y245099D01*
X28204Y242599D02*
X29454D01*
X28204Y241349D02*
Y242599D01*
X25704Y241349D02*
X28204D01*
X25704D02*
Y242599D01*
X29300Y249650D02*
X30050D01*
X29300D02*
Y251150D01*
X30050D01*
Y251900D01*
X31550D01*
Y251150D02*
Y251900D01*
Y251150D02*
X32300D01*
Y249650D02*
Y251150D01*
X31550Y249650D02*
X32300D01*
X31550Y248900D02*
Y249650D01*
X30050Y248900D02*
X31550D01*
X30050D02*
Y249650D01*
X28300Y249150D02*
X29550D01*
X28300D02*
Y251650D01*
X29550D01*
Y252900D01*
X32050D01*
Y251650D02*
Y252900D01*
Y251650D02*
X33300D01*
Y249150D02*
Y251650D01*
X32050Y249150D02*
X33300D01*
X32050Y247900D02*
Y249150D01*
X29550Y247900D02*
X32050D01*
X29550D02*
Y249150D01*
X25500Y237150D02*
X26250D01*
X25500D02*
Y238650D01*
X26250D01*
Y239400D01*
X27750D01*
Y238650D02*
Y239400D01*
Y238650D02*
X28500D01*
Y237150D02*
Y238650D01*
X27750Y237150D02*
X28500D01*
X27750Y236400D02*
Y237150D01*
X26250Y236400D02*
X27750D01*
X26250D02*
Y237150D01*
X24500Y236650D02*
X25750D01*
X24500D02*
Y239150D01*
X25750D01*
Y240400D01*
X28250D01*
Y239150D02*
Y240400D01*
Y239150D02*
X29500D01*
Y236650D02*
Y239150D01*
X28250Y236650D02*
X29500D01*
X28250Y235400D02*
Y236650D01*
X25750Y235400D02*
X28250D01*
X25750D02*
Y236650D01*
X27900Y289300D02*
X28650D01*
X27900D02*
Y290800D01*
X28650D01*
Y291550D01*
X30150D01*
Y290800D02*
Y291550D01*
Y290800D02*
X30900D01*
Y289300D02*
Y290800D01*
X30150Y289300D02*
X30900D01*
X30150Y288550D02*
Y289300D01*
X28650Y288550D02*
X30150D01*
X28650D02*
Y289300D01*
X26900Y288800D02*
X28150D01*
X26900D02*
Y291300D01*
X28150D01*
Y292550D01*
X30650D01*
Y291300D02*
Y292550D01*
Y291300D02*
X31900D01*
Y288800D02*
Y291300D01*
X30650Y288800D02*
X31900D01*
X30650Y287550D02*
Y288800D01*
X28150Y287550D02*
X30650D01*
X28150D02*
Y288800D01*
X139450Y20700D02*
X140200D01*
X139450D02*
Y22200D01*
X140200D01*
Y22950D01*
X141700D01*
Y22200D02*
Y22950D01*
Y22200D02*
X142450D01*
Y20700D02*
Y22200D01*
X141700Y20700D02*
X142450D01*
X141700Y19950D02*
Y20700D01*
X140200Y19950D02*
X141700D01*
X140200D02*
Y20700D01*
X138450Y20200D02*
X139700D01*
X138450D02*
Y22700D01*
X139700D01*
Y23950D01*
X142200D01*
Y22700D02*
Y23950D01*
Y22700D02*
X143450D01*
Y20200D02*
Y22700D01*
X142200Y20200D02*
X143450D01*
X142200Y18950D02*
Y20200D01*
X139700Y18950D02*
X142200D01*
X139700D02*
Y20200D01*
X177300Y133700D02*
X178050D01*
X177300D02*
Y135200D01*
X178050D01*
Y135950D01*
X179550D01*
Y135200D02*
Y135950D01*
Y135200D02*
X180300D01*
Y133700D02*
Y135200D01*
X179550Y133700D02*
X180300D01*
X179550Y132950D02*
Y133700D01*
X178050Y132950D02*
X179550D01*
X178050D02*
Y133700D01*
X176300Y133200D02*
X177550D01*
X176300D02*
Y135700D01*
X177550D01*
Y136950D01*
X180050D01*
Y135700D02*
Y136950D01*
Y135700D02*
X181300D01*
Y133200D02*
Y135700D01*
X180050Y133200D02*
X181300D01*
X180050Y131950D02*
Y133200D01*
X177550Y131950D02*
X180050D01*
X177550D02*
Y133200D01*
X175850Y235450D02*
X176600D01*
X175850D02*
Y236950D01*
X176600D01*
Y237700D01*
X178100D01*
Y236950D02*
Y237700D01*
Y236950D02*
X178850D01*
Y235450D02*
Y236950D01*
X178100Y235450D02*
X178850D01*
X178100Y234700D02*
Y235450D01*
X176600Y234700D02*
X178100D01*
X176600D02*
Y235450D01*
X174850Y234950D02*
X176100D01*
X174850D02*
Y237450D01*
X176100D01*
Y238700D01*
X178600D01*
Y237450D02*
Y238700D01*
Y237450D02*
X179850D01*
Y234950D02*
Y237450D01*
X178600Y234950D02*
X179850D01*
X178600Y233700D02*
Y234950D01*
X176100Y233700D02*
X178600D01*
X176100D02*
Y234950D01*
X45800Y157400D02*
X46550D01*
X45800D02*
Y158900D01*
X46550D01*
Y159650D01*
X48050D01*
Y158900D02*
Y159650D01*
Y158900D02*
X48800D01*
Y157400D02*
Y158900D01*
X48050Y157400D02*
X48800D01*
X48050Y156650D02*
Y157400D01*
X46550Y156650D02*
X48050D01*
X46550D02*
Y157400D01*
X44800Y156900D02*
X46050D01*
X44800D02*
Y159400D01*
X46050D01*
Y160650D01*
X48550D01*
Y159400D02*
Y160650D01*
Y159400D02*
X49800D01*
Y156900D02*
Y159400D01*
X48550Y156900D02*
X49800D01*
X48550Y155650D02*
Y156900D01*
X46050Y155650D02*
X48550D01*
X46050D02*
Y156900D01*
X306100Y26450D02*
X306850D01*
X306100D02*
Y27950D01*
X306850D01*
Y28700D01*
X308350D01*
Y27950D02*
Y28700D01*
Y27950D02*
X309100D01*
Y26450D02*
Y27950D01*
X308350Y26450D02*
X309100D01*
X308350Y25700D02*
Y26450D01*
X306850Y25700D02*
X308350D01*
X306850D02*
Y26450D01*
X305100Y25950D02*
X306350D01*
X305100D02*
Y28450D01*
X306350D01*
Y29700D01*
X308850D01*
Y28450D02*
Y29700D01*
Y28450D02*
X310100D01*
Y25950D02*
Y28450D01*
X308850Y25950D02*
X310100D01*
X308850Y24700D02*
Y25950D01*
X306350Y24700D02*
X308850D01*
X306350D02*
Y25950D01*
X311300Y26450D02*
X312050D01*
X311300D02*
Y27950D01*
X312050D01*
Y28700D01*
X313550D01*
Y27950D02*
Y28700D01*
Y27950D02*
X314300D01*
Y26450D02*
Y27950D01*
X313550Y26450D02*
X314300D01*
X313550Y25700D02*
Y26450D01*
X312050Y25700D02*
X313550D01*
X312050D02*
Y26450D01*
X310300Y25950D02*
X311550D01*
X310300D02*
Y28450D01*
X311550D01*
Y29700D01*
X314050D01*
Y28450D02*
Y29700D01*
Y28450D02*
X315300D01*
Y25950D02*
Y28450D01*
X314050Y25950D02*
X315300D01*
X314050Y24700D02*
Y25950D01*
X311550Y24700D02*
X314050D01*
X311550D02*
Y25950D01*
X329050Y31050D02*
X329800D01*
X329050D02*
Y32550D01*
X329800D01*
Y33300D01*
X331300D01*
Y32550D02*
Y33300D01*
Y32550D02*
X332050D01*
Y31050D02*
Y32550D01*
X331300Y31050D02*
X332050D01*
X331300Y30300D02*
Y31050D01*
X329800Y30300D02*
X331300D01*
X329800D02*
Y31050D01*
X328050Y30550D02*
X329300D01*
X328050D02*
Y33050D01*
X329300D01*
Y34300D01*
X331800D01*
Y33050D02*
Y34300D01*
Y33050D02*
X333050D01*
Y30550D02*
Y33050D01*
X331800Y30550D02*
X333050D01*
X331800Y29300D02*
Y30550D01*
X329300Y29300D02*
X331800D01*
X329300D02*
Y30550D01*
X325850Y26950D02*
X326600D01*
X325850D02*
Y28450D01*
X326600D01*
Y29200D01*
X328100D01*
Y28450D02*
Y29200D01*
Y28450D02*
X328850D01*
Y26950D02*
Y28450D01*
X328100Y26950D02*
X328850D01*
X328100Y26200D02*
Y26950D01*
X326600Y26200D02*
X328100D01*
X326600D02*
Y26950D01*
X324850Y26450D02*
X326100D01*
X324850D02*
Y28950D01*
X326100D01*
Y30200D01*
X328600D01*
Y28950D02*
Y30200D01*
Y28950D02*
X329850D01*
Y26450D02*
Y28950D01*
X328600Y26450D02*
X329850D01*
X328600Y25200D02*
Y26450D01*
X326100Y25200D02*
X328600D01*
X326100D02*
Y26450D01*
X344400Y32500D02*
X345150D01*
X344400D02*
Y34000D01*
X345150D01*
Y34750D01*
X346650D01*
Y34000D02*
Y34750D01*
Y34000D02*
X347400D01*
Y32500D02*
Y34000D01*
X346650Y32500D02*
X347400D01*
X346650Y31750D02*
Y32500D01*
X345150Y31750D02*
X346650D01*
X345150D02*
Y32500D01*
X343400Y32000D02*
X344650D01*
X343400D02*
Y34500D01*
X344650D01*
Y35750D01*
X347150D01*
Y34500D02*
Y35750D01*
Y34500D02*
X348400D01*
Y32000D02*
Y34500D01*
X347150Y32000D02*
X348400D01*
X347150Y30750D02*
Y32000D01*
X344650Y30750D02*
X347150D01*
X344650D02*
Y32000D01*
X337350Y51500D02*
X338100D01*
X337350D02*
Y53000D01*
X338100D01*
Y53750D01*
X339600D01*
Y53000D02*
Y53750D01*
Y53000D02*
X340350D01*
Y51500D02*
Y53000D01*
X339600Y51500D02*
X340350D01*
X339600Y50750D02*
Y51500D01*
X338100Y50750D02*
X339600D01*
X338100D02*
Y51500D01*
X336350Y51000D02*
X337600D01*
X336350D02*
Y53500D01*
X337600D01*
Y54750D01*
X340100D01*
Y53500D02*
Y54750D01*
Y53500D02*
X341350D01*
Y51000D02*
Y53500D01*
X340100Y51000D02*
X341350D01*
X340100Y49750D02*
Y51000D01*
X337600Y49750D02*
X340100D01*
X337600D02*
Y51000D01*
X343350Y51500D02*
X344100D01*
X343350D02*
Y53000D01*
X344100D01*
Y53750D01*
X345600D01*
Y53000D02*
Y53750D01*
Y53000D02*
X346350D01*
Y51500D02*
Y53000D01*
X345600Y51500D02*
X346350D01*
X345600Y50750D02*
Y51500D01*
X344100Y50750D02*
X345600D01*
X344100D02*
Y51500D01*
X342350Y51000D02*
X343600D01*
X342350D02*
Y53500D01*
X343600D01*
Y54750D01*
X346100D01*
Y53500D02*
Y54750D01*
Y53500D02*
X347350D01*
Y51000D02*
Y53500D01*
X346100Y51000D02*
X347350D01*
X346100Y49750D02*
Y51000D01*
X343600Y49750D02*
X346100D01*
X343600D02*
Y51000D01*
X329550Y92700D02*
X330300D01*
X329550D02*
Y94200D01*
X330300D01*
Y94950D01*
X331800D01*
Y94200D02*
Y94950D01*
Y94200D02*
X332550D01*
Y92700D02*
Y94200D01*
X331800Y92700D02*
X332550D01*
X331800Y91950D02*
Y92700D01*
X330300Y91950D02*
X331800D01*
X330300D02*
Y92700D01*
X328550Y92200D02*
X329800D01*
X328550D02*
Y94700D01*
X329800D01*
Y95950D01*
X332300D01*
Y94700D02*
Y95950D01*
Y94700D02*
X333550D01*
Y92200D02*
Y94700D01*
X332300Y92200D02*
X333550D01*
X332300Y90950D02*
Y92200D01*
X329800Y90950D02*
X332300D01*
X329800D02*
Y92200D01*
X332950Y88700D02*
X333700D01*
X332950D02*
Y90200D01*
X333700D01*
Y90950D01*
X335200D01*
Y90200D02*
Y90950D01*
Y90200D02*
X335950D01*
Y88700D02*
Y90200D01*
X335200Y88700D02*
X335950D01*
X335200Y87950D02*
Y88700D01*
X333700Y87950D02*
X335200D01*
X333700D02*
Y88700D01*
X331950Y88200D02*
X333200D01*
X331950D02*
Y90700D01*
X333200D01*
Y91950D01*
X335700D01*
Y90700D02*
Y91950D01*
Y90700D02*
X336950D01*
Y88200D02*
Y90700D01*
X335700Y88200D02*
X336950D01*
X335700Y86950D02*
Y88200D01*
X333200Y86950D02*
X335700D01*
X333200D02*
Y88200D01*
X292400Y93450D02*
X293150D01*
X292400D02*
Y94950D01*
X293150D01*
Y95700D01*
X294650D01*
Y94950D02*
Y95700D01*
Y94950D02*
X295400D01*
Y93450D02*
Y94950D01*
X294650Y93450D02*
X295400D01*
X294650Y92700D02*
Y93450D01*
X293150Y92700D02*
X294650D01*
X293150D02*
Y93450D01*
X291400Y92950D02*
X292650D01*
X291400D02*
Y95450D01*
X292650D01*
Y96700D01*
X295150D01*
Y95450D02*
Y96700D01*
Y95450D02*
X296400D01*
Y92950D02*
Y95450D01*
X295150Y92950D02*
X296400D01*
X295150Y91700D02*
Y92950D01*
X292650Y91700D02*
X295150D01*
X292650D02*
Y92950D01*
X298800Y93450D02*
X299550D01*
X298800D02*
Y94950D01*
X299550D01*
Y95700D01*
X301050D01*
Y94950D02*
Y95700D01*
Y94950D02*
X301800D01*
Y93450D02*
Y94950D01*
X301050Y93450D02*
X301800D01*
X301050Y92700D02*
Y93450D01*
X299550Y92700D02*
X301050D01*
X299550D02*
Y93450D01*
X297800Y92950D02*
X299050D01*
X297800D02*
Y95450D01*
X299050D01*
Y96700D01*
X301550D01*
Y95450D02*
Y96700D01*
Y95450D02*
X302800D01*
Y92950D02*
Y95450D01*
X301550Y92950D02*
X302800D01*
X301550Y91700D02*
Y92950D01*
X299050Y91700D02*
X301550D01*
X299050D02*
Y92950D01*
X283350Y81950D02*
X284100D01*
X283350D02*
Y83450D01*
X284100D01*
Y84200D01*
X285600D01*
Y83450D02*
Y84200D01*
Y83450D02*
X286350D01*
Y81950D02*
Y83450D01*
X285600Y81950D02*
X286350D01*
X285600Y81200D02*
Y81950D01*
X284100Y81200D02*
X285600D01*
X284100D02*
Y81950D01*
X282350Y81450D02*
X283600D01*
X282350D02*
Y83950D01*
X283600D01*
Y85200D01*
X286100D01*
Y83950D02*
Y85200D01*
Y83950D02*
X287350D01*
Y81450D02*
Y83950D01*
X286100Y81450D02*
X287350D01*
X286100Y80200D02*
Y81450D01*
X283600Y80200D02*
X286100D01*
X283600D02*
Y81450D01*
X277400Y81950D02*
X278150D01*
X277400D02*
Y83450D01*
X278150D01*
Y84200D01*
X279650D01*
Y83450D02*
Y84200D01*
Y83450D02*
X280400D01*
Y81950D02*
Y83450D01*
X279650Y81950D02*
X280400D01*
X279650Y81200D02*
Y81950D01*
X278150Y81200D02*
X279650D01*
X278150D02*
Y81950D01*
X276400Y81450D02*
X277650D01*
X276400D02*
Y83950D01*
X277650D01*
Y85200D01*
X280150D01*
Y83950D02*
Y85200D01*
Y83950D02*
X281400D01*
Y81450D02*
Y83950D01*
X280150Y81450D02*
X281400D01*
X280150Y80200D02*
Y81450D01*
X277650Y80200D02*
X280150D01*
X277650D02*
Y81450D01*
X256650Y91350D02*
X257400D01*
X256650D02*
Y92850D01*
X257400D01*
Y93600D01*
X258900D01*
Y92850D02*
Y93600D01*
Y92850D02*
X259650D01*
Y91350D02*
Y92850D01*
X258900Y91350D02*
X259650D01*
X258900Y90600D02*
Y91350D01*
X257400Y90600D02*
X258900D01*
X257400D02*
Y91350D01*
X255650Y90850D02*
X256900D01*
X255650D02*
Y93350D01*
X256900D01*
Y94600D01*
X259400D01*
Y93350D02*
Y94600D01*
Y93350D02*
X260650D01*
Y90850D02*
Y93350D01*
X259400Y90850D02*
X260650D01*
X259400Y89600D02*
Y90850D01*
X256900Y89600D02*
X259400D01*
X256900D02*
Y90850D01*
X256650Y85450D02*
X257400D01*
X256650D02*
Y86950D01*
X257400D01*
Y87700D01*
X258900D01*
Y86950D02*
Y87700D01*
Y86950D02*
X259650D01*
Y85450D02*
Y86950D01*
X258900Y85450D02*
X259650D01*
X258900Y84700D02*
Y85450D01*
X257400Y84700D02*
X258900D01*
X257400D02*
Y85450D01*
X255650Y84950D02*
X256900D01*
X255650D02*
Y87450D01*
X256900D01*
Y88700D01*
X259400D01*
Y87450D02*
Y88700D01*
Y87450D02*
X260650D01*
Y84950D02*
Y87450D01*
X259400Y84950D02*
X260650D01*
X259400Y83700D02*
Y84950D01*
X256900Y83700D02*
X259400D01*
X256900D02*
Y84950D01*
X249550Y85450D02*
X250300D01*
X249550D02*
Y86950D01*
X250300D01*
Y87700D01*
X251800D01*
Y86950D02*
Y87700D01*
Y86950D02*
X252550D01*
Y85450D02*
Y86950D01*
X251800Y85450D02*
X252550D01*
X251800Y84700D02*
Y85450D01*
X250300Y84700D02*
X251800D01*
X250300D02*
Y85450D01*
X248550Y84950D02*
X249800D01*
X248550D02*
Y87450D01*
X249800D01*
Y88700D01*
X252300D01*
Y87450D02*
Y88700D01*
Y87450D02*
X253550D01*
Y84950D02*
Y87450D01*
X252300Y84950D02*
X253550D01*
X252300Y83700D02*
Y84950D01*
X249800Y83700D02*
X252300D01*
X249800D02*
Y84950D01*
X289750Y26950D02*
X290500D01*
X289750D02*
Y28450D01*
X290500D01*
Y29200D01*
X292000D01*
Y28450D02*
Y29200D01*
Y28450D02*
X292750D01*
Y26950D02*
Y28450D01*
X292000Y26950D02*
X292750D01*
X292000Y26200D02*
Y26950D01*
X290500Y26200D02*
X292000D01*
X290500D02*
Y26950D01*
X288750Y26450D02*
X290000D01*
X288750D02*
Y28950D01*
X290000D01*
Y30200D01*
X292500D01*
Y28950D02*
Y30200D01*
Y28950D02*
X293750D01*
Y26450D02*
Y28950D01*
X292500Y26450D02*
X293750D01*
X292500Y25200D02*
Y26450D01*
X290000Y25200D02*
X292500D01*
X290000D02*
Y26450D01*
X289900Y32350D02*
X290650D01*
X289900D02*
Y33850D01*
X290650D01*
Y34600D01*
X292150D01*
Y33850D02*
Y34600D01*
Y33850D02*
X292900D01*
Y32350D02*
Y33850D01*
X292150Y32350D02*
X292900D01*
X292150Y31600D02*
Y32350D01*
X290650Y31600D02*
X292150D01*
X290650D02*
Y32350D01*
X288900Y31850D02*
X290150D01*
X288900D02*
Y34350D01*
X290150D01*
Y35600D01*
X292650D01*
Y34350D02*
Y35600D01*
Y34350D02*
X293900D01*
Y31850D02*
Y34350D01*
X292650Y31850D02*
X293900D01*
X292650Y30600D02*
Y31850D01*
X290150Y30600D02*
X292650D01*
X290150D02*
Y31850D01*
X284250Y51500D02*
X285000D01*
X284250D02*
Y53000D01*
X285000D01*
Y53750D01*
X286500D01*
Y53000D02*
Y53750D01*
Y53000D02*
X287250D01*
Y51500D02*
Y53000D01*
X286500Y51500D02*
X287250D01*
X286500Y50750D02*
Y51500D01*
X285000Y50750D02*
X286500D01*
X285000D02*
Y51500D01*
X283250Y51000D02*
X284500D01*
X283250D02*
Y53500D01*
X284500D01*
Y54750D01*
X287000D01*
Y53500D02*
Y54750D01*
Y53500D02*
X288250D01*
Y51000D02*
Y53500D01*
X287000Y51000D02*
X288250D01*
X287000Y49750D02*
Y51000D01*
X284500Y49750D02*
X287000D01*
X284500D02*
Y51000D01*
X293400Y51500D02*
X294150D01*
X293400D02*
Y53000D01*
X294150D01*
Y53750D01*
X295650D01*
Y53000D02*
Y53750D01*
Y53000D02*
X296400D01*
Y51500D02*
Y53000D01*
X295650Y51500D02*
X296400D01*
X295650Y50750D02*
Y51500D01*
X294150Y50750D02*
X295650D01*
X294150D02*
Y51500D01*
X292400Y51000D02*
X293650D01*
X292400D02*
Y53500D01*
X293650D01*
Y54750D01*
X296150D01*
Y53500D02*
Y54750D01*
Y53500D02*
X297400D01*
Y51000D02*
Y53500D01*
X296150Y51000D02*
X297400D01*
X296150Y49750D02*
Y51000D01*
X293650Y49750D02*
X296150D01*
X293650D02*
Y51000D01*
X288850Y51500D02*
X289600D01*
X288850D02*
Y53000D01*
X289600D01*
Y53750D01*
X291100D01*
Y53000D02*
Y53750D01*
Y53000D02*
X291850D01*
Y51500D02*
Y53000D01*
X291100Y51500D02*
X291850D01*
X291100Y50750D02*
Y51500D01*
X289600Y50750D02*
X291100D01*
X289600D02*
Y51500D01*
X287850Y51000D02*
X289100D01*
X287850D02*
Y53500D01*
X289100D01*
Y54750D01*
X291600D01*
Y53500D02*
Y54750D01*
Y53500D02*
X292850D01*
Y51000D02*
Y53500D01*
X291600Y51000D02*
X292850D01*
X291600Y49750D02*
Y51000D01*
X289100Y49750D02*
X291600D01*
X289100D02*
Y51000D01*
X345800Y77400D02*
X346550D01*
X345800D02*
Y78900D01*
X346550D01*
Y79650D01*
X348050D01*
Y78900D02*
Y79650D01*
Y78900D02*
X348800D01*
Y77400D02*
Y78900D01*
X348050Y77400D02*
X348800D01*
X348050Y76650D02*
Y77400D01*
X346550Y76650D02*
X348050D01*
X346550D02*
Y77400D01*
X344800Y76900D02*
X346050D01*
X344800D02*
Y79400D01*
X346050D01*
Y80650D01*
X348550D01*
Y79400D02*
Y80650D01*
Y79400D02*
X349800D01*
Y76900D02*
Y79400D01*
X348550Y76900D02*
X349800D01*
X348550Y75650D02*
Y76900D01*
X346050Y75650D02*
X348550D01*
X346050D02*
Y76900D01*
X28350Y277450D02*
X29100D01*
X28350D02*
Y278950D01*
X29100D01*
Y279700D01*
X30600D01*
Y278950D02*
Y279700D01*
Y278950D02*
X31350D01*
Y277450D02*
Y278950D01*
X30600Y277450D02*
X31350D01*
X30600Y276700D02*
Y277450D01*
X29100Y276700D02*
X30600D01*
X29100D02*
Y277450D01*
X27350Y276950D02*
X28600D01*
X27350D02*
Y279450D01*
X28600D01*
Y280700D01*
X31100D01*
Y279450D02*
Y280700D01*
Y279450D02*
X32350D01*
Y276950D02*
Y279450D01*
X31100Y276950D02*
X32350D01*
X31100Y275700D02*
Y276950D01*
X28600Y275700D02*
X31100D01*
X28600D02*
Y276950D01*
X268800Y60800D02*
X269550D01*
X268800D02*
Y62300D01*
X269550D01*
Y63050D01*
X271050D01*
Y62300D02*
Y63050D01*
Y62300D02*
X271800D01*
Y60800D02*
Y62300D01*
X271050Y60800D02*
X271800D01*
X271050Y60050D02*
Y60800D01*
X269550Y60050D02*
X271050D01*
X269550D02*
Y60800D01*
X267800Y60300D02*
X269050D01*
X267800D02*
Y62800D01*
X269050D01*
Y64050D01*
X271550D01*
Y62800D02*
Y64050D01*
Y62800D02*
X272800D01*
Y60300D02*
Y62800D01*
X271550Y60300D02*
X272800D01*
X271550Y59050D02*
Y60300D01*
X269050Y59050D02*
X271550D01*
X269050D02*
Y60300D01*
D131*
X389022Y664199D02*
X1629478D01*
X389022Y649199D02*
X1629478D01*
X389022Y634199D02*
X1629478D01*
Y679199D01*
X389022D02*
X1629478D01*
X389022Y634199D02*
Y679199D01*
X1489218Y634199D02*
Y679199D01*
X1402642Y634199D02*
Y679199D01*
X1269281Y634199D02*
Y679199D01*
X1135921Y634199D02*
Y679199D01*
X1050544Y634199D02*
Y679199D01*
X985561Y634199D02*
Y679199D01*
X910981Y634199D02*
Y679199D01*
X851997Y634199D02*
Y679199D01*
X733031Y634199D02*
Y679199D01*
X659651Y634199D02*
Y679199D01*
X609063Y634199D02*
Y679199D01*
X498096Y634199D02*
Y679199D01*
X444110Y634199D02*
Y679199D01*
X393862Y419921D02*
X394119Y-99050D01*
X393862Y419921D02*
X394119Y420179D01*
X705218D01*
X705605Y419792D01*
Y33413D02*
Y419792D01*
Y33413D02*
X861481D01*
X861738Y33155D01*
Y-98793D02*
Y33155D01*
X861481Y-99050D02*
X861738Y-98793D01*
X394119Y-99050D02*
X861481D01*
X861738Y423179D02*
Y615179D01*
X749770Y591179D02*
X861738D01*
X749770Y579179D02*
X861738D01*
X749770Y567179D02*
X861738D01*
X749770Y555179D02*
X861738D01*
X749770Y543179D02*
X861738D01*
X749770Y531179D02*
X861738D01*
X749770Y519179D02*
X861738D01*
X749770Y507179D02*
X861738D01*
X749770Y495179D02*
X861738D01*
X749770Y483179D02*
X861738D01*
X749770Y471179D02*
X861738D01*
X749770Y459179D02*
X861738D01*
X749770Y447179D02*
X861738D01*
X749770Y435179D02*
X861738D01*
X749770Y423179D02*
X861738D01*
X749770D02*
Y615179D01*
X692784Y591179D02*
X749770D01*
X692784Y579179D02*
X749770D01*
X692784Y567179D02*
X749770D01*
X692784Y555179D02*
X749770D01*
X692784Y543179D02*
X749770D01*
X692784Y531179D02*
X749770D01*
X692784Y519179D02*
X749770D01*
X692784Y507179D02*
X749770D01*
X692784Y495179D02*
X749770D01*
X692784Y483179D02*
X749770D01*
X692784Y471179D02*
X749770D01*
X692784Y459179D02*
X749770D01*
X692784Y447179D02*
X749770D01*
X692784Y435179D02*
X749770D01*
X692784Y423179D02*
X749770D01*
X692784D02*
Y615179D01*
X627800Y591179D02*
X692784D01*
X627800Y579179D02*
X692784D01*
X627800Y567179D02*
X692784D01*
X627800Y555179D02*
X692784D01*
X627800Y543179D02*
X692784D01*
X627800Y531179D02*
X692784D01*
X627800Y519179D02*
X692784D01*
X627800Y507179D02*
X692784D01*
X627800Y495179D02*
X692784D01*
X627800Y483179D02*
X692784D01*
X627800Y471179D02*
X692784D01*
X627800Y459179D02*
X692784D01*
X627800Y447179D02*
X692784D01*
X627800Y435179D02*
X692784D01*
X627800Y423179D02*
X692784D01*
X627800D02*
Y615179D01*
X567815Y591179D02*
X627800D01*
X567815Y579179D02*
X627800D01*
X567815Y567179D02*
X627800D01*
X567815Y555179D02*
X627800D01*
X567815Y543179D02*
X627800D01*
X567815Y531179D02*
X627800D01*
X567815Y519179D02*
X627800D01*
X567815Y507179D02*
X627800D01*
X567815Y495179D02*
X627800D01*
X567815Y483179D02*
X627800D01*
X567815Y471179D02*
X627800D01*
X567815Y459179D02*
X627800D01*
X567815Y447179D02*
X627800D01*
X567815Y435179D02*
X627800D01*
X567815Y423179D02*
X627800D01*
X567815D02*
Y615179D01*
X434853Y591179D02*
X567815D01*
X434853Y579179D02*
X567815D01*
X434853Y567179D02*
X567815D01*
X434853Y555179D02*
X567815D01*
X434853Y543179D02*
X567815D01*
X434853Y531179D02*
X567815D01*
X434853Y519179D02*
X567815D01*
X434853Y507179D02*
X567815D01*
X434853Y495179D02*
X567815D01*
X434853Y483179D02*
X567815D01*
X434853Y471179D02*
X567815D01*
X434853Y459179D02*
X567815D01*
X434853Y447179D02*
X567815D01*
X434853Y435179D02*
X567815D01*
X434853Y423179D02*
X567815D01*
X434853D02*
Y615179D01*
X393862Y591179D02*
X434853D01*
X393862Y579179D02*
X434853D01*
X393862Y567179D02*
X434853D01*
X393862Y555179D02*
X434853D01*
X393862Y543179D02*
X434853D01*
X393862Y531179D02*
X434853D01*
X393862Y519179D02*
X434853D01*
X393862Y507179D02*
X434853D01*
X393862Y495179D02*
X434853D01*
X393862Y483179D02*
X434853D01*
X393862Y471179D02*
X434853D01*
X393862Y459179D02*
X434853D01*
X393862Y447179D02*
X434853D01*
X393862Y435179D02*
X434853D01*
X393862Y423179D02*
X434853D01*
X393862D02*
Y615179D01*
X861738D01*
X393862Y603179D02*
X861738D01*
D210*
X1493718Y668699D02*
Y675897D01*
X1497317D01*
X1498516Y674697D01*
Y672298D01*
X1497317Y671098D01*
X1493718D01*
X1496117D02*
X1498516Y668699D01*
X1502115D02*
X1504515D01*
X1505714Y669899D01*
Y672298D01*
X1504515Y673497D01*
X1502115D01*
X1500916Y672298D01*
Y669899D01*
X1502115Y668699D01*
X1508113Y673497D02*
Y669899D01*
X1509313Y668699D01*
X1512912D01*
Y673497D01*
X1516511Y674697D02*
Y673497D01*
X1515311D01*
X1517710D01*
X1516511D01*
Y669899D01*
X1517710Y668699D01*
X1524908D02*
X1522509D01*
X1521309Y669899D01*
Y672298D01*
X1522509Y673497D01*
X1524908D01*
X1526108Y672298D01*
Y671098D01*
X1521309D01*
X1533305Y675897D02*
Y668699D01*
X1529706D01*
X1528507Y669899D01*
Y672298D01*
X1529706Y673497D01*
X1533305D01*
X1542902Y668699D02*
Y675897D01*
X1546501D01*
X1547701Y674697D01*
Y672298D01*
X1546501Y671098D01*
X1542902D01*
X1551299Y673497D02*
X1553699D01*
X1554898Y672298D01*
Y668699D01*
X1551299D01*
X1550100Y669899D01*
X1551299Y671098D01*
X1554898D01*
X1558497Y674697D02*
Y673497D01*
X1557297D01*
X1559697D01*
X1558497D01*
Y669899D01*
X1559697Y668699D01*
X1563295Y675897D02*
Y668699D01*
Y672298D01*
X1564495Y673497D01*
X1566894D01*
X1568094Y672298D01*
Y668699D01*
X1577691Y675897D02*
Y668699D01*
X1582489D01*
X1588487D02*
X1586088D01*
X1584888Y669899D01*
Y672298D01*
X1586088Y673497D01*
X1588487D01*
X1589687Y672298D01*
Y671098D01*
X1584888D01*
X1592086Y668699D02*
Y673497D01*
X1595685D01*
X1596885Y672298D01*
Y668699D01*
X1601683Y666300D02*
X1602883D01*
X1604082Y667499D01*
Y673497D01*
X1600484D01*
X1599284Y672298D01*
Y669899D01*
X1600484Y668699D01*
X1604082D01*
X1607681Y674697D02*
Y673497D01*
X1606482D01*
X1608881D01*
X1607681D01*
Y669899D01*
X1608881Y668699D01*
X1612480Y675897D02*
Y668699D01*
Y672298D01*
X1613679Y673497D01*
X1616078D01*
X1617278Y672298D01*
Y668699D01*
X1407142Y675897D02*
Y668699D01*
Y672298D01*
X1411940D01*
Y675897D01*
Y668699D01*
X1415539D02*
X1417939D01*
X1419138Y669899D01*
Y672298D01*
X1417939Y673497D01*
X1415539D01*
X1414340Y672298D01*
Y669899D01*
X1415539Y668699D01*
X1421537D02*
X1423937D01*
X1422737D01*
Y675897D01*
X1421537D01*
X1431134Y668699D02*
X1428735D01*
X1427536Y669899D01*
Y672298D01*
X1428735Y673497D01*
X1431134D01*
X1432334Y672298D01*
Y671098D01*
X1427536D01*
X1441931Y675897D02*
Y668699D01*
X1446729D01*
X1452727D02*
X1450328D01*
X1449129Y669899D01*
Y672298D01*
X1450328Y673497D01*
X1452727D01*
X1453927Y672298D01*
Y671098D01*
X1449129D01*
X1456326Y668699D02*
Y673497D01*
X1459925D01*
X1461125Y672298D01*
Y668699D01*
X1465923Y666300D02*
X1467123D01*
X1468322Y667499D01*
Y673497D01*
X1464723D01*
X1463524Y672298D01*
Y669899D01*
X1464723Y668699D01*
X1468322D01*
X1471921Y674697D02*
Y673497D01*
X1470722D01*
X1473121D01*
X1471921D01*
Y669899D01*
X1473121Y668699D01*
X1476720Y675897D02*
Y668699D01*
Y672298D01*
X1477919Y673497D01*
X1480318D01*
X1481518Y672298D01*
Y668699D01*
X1273781Y675897D02*
Y668699D01*
Y672298D01*
X1278580D01*
Y675897D01*
Y668699D01*
X1282179D02*
X1284578D01*
X1285777Y669899D01*
Y672298D01*
X1284578Y673497D01*
X1282179D01*
X1280979Y672298D01*
Y669899D01*
X1282179Y668699D01*
X1288177D02*
X1290576D01*
X1289376D01*
Y675897D01*
X1288177D01*
X1297774Y668699D02*
X1295374D01*
X1294175Y669899D01*
Y672298D01*
X1295374Y673497D01*
X1297774D01*
X1298973Y672298D01*
Y671098D01*
X1294175D01*
X1308570Y675897D02*
X1313369D01*
X1310969D01*
Y668699D01*
X1316967D02*
X1319367D01*
X1320566Y669899D01*
Y672298D01*
X1319367Y673497D01*
X1316967D01*
X1315768Y672298D01*
Y669899D01*
X1316967Y668699D01*
X1322965D02*
X1325365D01*
X1324165D01*
Y675897D01*
X1322965D01*
X1332562Y668699D02*
X1330163D01*
X1328963Y669899D01*
Y672298D01*
X1330163Y673497D01*
X1332562D01*
X1333762Y672298D01*
Y671098D01*
X1328963D01*
X1336161Y673497D02*
Y668699D01*
Y671098D01*
X1337361Y672298D01*
X1338560Y673497D01*
X1339760D01*
X1344558D02*
X1346958D01*
X1348157Y672298D01*
Y668699D01*
X1344558D01*
X1343359Y669899D01*
X1344558Y671098D01*
X1348157D01*
X1350556Y668699D02*
Y673497D01*
X1354155D01*
X1355355Y672298D01*
Y668699D01*
X1362553Y673497D02*
X1358954D01*
X1357754Y672298D01*
Y669899D01*
X1358954Y668699D01*
X1362553D01*
X1368551D02*
X1366151D01*
X1364952Y669899D01*
Y672298D01*
X1366151Y673497D01*
X1368551D01*
X1369750Y672298D01*
Y671098D01*
X1364952D01*
X1381746Y668699D02*
X1379347Y671098D01*
Y673497D01*
X1381746Y675897D01*
X1385345Y672298D02*
X1390144D01*
X1392543Y668699D02*
X1394942Y671098D01*
Y673497D01*
X1392543Y675897D01*
X1140421D02*
Y668699D01*
Y672298D01*
X1145219D01*
Y675897D01*
Y668699D01*
X1148818D02*
X1151217D01*
X1152417Y669899D01*
Y672298D01*
X1151217Y673497D01*
X1148818D01*
X1147618Y672298D01*
Y669899D01*
X1148818Y668699D01*
X1154816D02*
X1157215D01*
X1156015D01*
Y675897D01*
X1154816D01*
X1164413Y668699D02*
X1162014D01*
X1160814Y669899D01*
Y672298D01*
X1162014Y673497D01*
X1164413D01*
X1165612Y672298D01*
Y671098D01*
X1160814D01*
X1175209Y675897D02*
X1180008D01*
X1177608D01*
Y668699D01*
X1183607D02*
X1186006D01*
X1187205Y669899D01*
Y672298D01*
X1186006Y673497D01*
X1183607D01*
X1182407Y672298D01*
Y669899D01*
X1183607Y668699D01*
X1189605D02*
X1192004D01*
X1190804D01*
Y675897D01*
X1189605D01*
X1199201Y668699D02*
X1196802D01*
X1195603Y669899D01*
Y672298D01*
X1196802Y673497D01*
X1199201D01*
X1200401Y672298D01*
Y671098D01*
X1195603D01*
X1202800Y673497D02*
Y668699D01*
Y671098D01*
X1204000Y672298D01*
X1205200Y673497D01*
X1206399D01*
X1211198D02*
X1213597D01*
X1214797Y672298D01*
Y668699D01*
X1211198D01*
X1209998Y669899D01*
X1211198Y671098D01*
X1214797D01*
X1217196Y668699D02*
Y673497D01*
X1220794D01*
X1221994Y672298D01*
Y668699D01*
X1229192Y673497D02*
X1225593D01*
X1224393Y672298D01*
Y669899D01*
X1225593Y668699D01*
X1229192D01*
X1235190D02*
X1232791D01*
X1231591Y669899D01*
Y672298D01*
X1232791Y673497D01*
X1235190D01*
X1236390Y672298D01*
Y671098D01*
X1231591D01*
X1248386Y668699D02*
X1245986Y671098D01*
Y673497D01*
X1248386Y675897D01*
X1251984Y672298D02*
X1256783D01*
X1254384Y674697D02*
Y669899D01*
X1259182Y668699D02*
X1261581Y671098D01*
Y673497D01*
X1259182Y675897D01*
X1055044D02*
Y668699D01*
X1058643D01*
X1059843Y669899D01*
Y674697D01*
X1058643Y675897D01*
X1055044D01*
X1065841Y668699D02*
X1063441D01*
X1062242Y669899D01*
Y672298D01*
X1063441Y673497D01*
X1065841D01*
X1067040Y672298D01*
Y671098D01*
X1062242D01*
X1069440Y668699D02*
X1073038D01*
X1074238Y669899D01*
X1073038Y671098D01*
X1070639D01*
X1069440Y672298D01*
X1070639Y673497D01*
X1074238D01*
X1081436D02*
X1077837D01*
X1076637Y672298D01*
Y669899D01*
X1077837Y668699D01*
X1081436D01*
X1083835Y673497D02*
Y668699D01*
Y671098D01*
X1085034Y672298D01*
X1086234Y673497D01*
X1087434D01*
X1091033Y668699D02*
X1093432D01*
X1092232D01*
Y673497D01*
X1091033D01*
X1097031Y666300D02*
Y673497D01*
X1100630D01*
X1101829Y672298D01*
Y669899D01*
X1100630Y668699D01*
X1097031D01*
X1105428Y674697D02*
Y673497D01*
X1104228D01*
X1106627D01*
X1105428D01*
Y669899D01*
X1106627Y668699D01*
X1110226D02*
X1112626D01*
X1111426D01*
Y673497D01*
X1110226D01*
X1117424Y668699D02*
X1119823D01*
X1121023Y669899D01*
Y672298D01*
X1119823Y673497D01*
X1117424D01*
X1116224Y672298D01*
Y669899D01*
X1117424Y668699D01*
X1123422D02*
Y673497D01*
X1127021D01*
X1128220Y672298D01*
Y668699D01*
X990061Y675897D02*
X994860D01*
X992461D01*
Y668699D01*
X1000858D02*
X998459D01*
X997259Y669899D01*
Y672298D01*
X998459Y673497D01*
X1000858D01*
X1002057Y672298D01*
Y671098D01*
X997259D01*
X1004457Y668699D02*
Y673497D01*
X1005656D01*
X1006856Y672298D01*
Y668699D01*
Y672298D01*
X1008055Y673497D01*
X1009255Y672298D01*
Y668699D01*
X1011654Y666300D02*
Y673497D01*
X1015253D01*
X1016453Y672298D01*
Y669899D01*
X1015253Y668699D01*
X1011654D01*
X1018852D02*
X1021251D01*
X1020052D01*
Y675897D01*
X1018852D01*
X1026050Y673497D02*
X1028449D01*
X1029648Y672298D01*
Y668699D01*
X1026050D01*
X1024850Y669899D01*
X1026050Y671098D01*
X1029648D01*
X1033247Y674697D02*
Y673497D01*
X1032048D01*
X1034447D01*
X1033247D01*
Y669899D01*
X1034447Y668699D01*
X1041645D02*
X1039245D01*
X1038046Y669899D01*
Y672298D01*
X1039245Y673497D01*
X1041645D01*
X1042844Y672298D01*
Y671098D01*
X1038046D01*
X915481Y668699D02*
Y675897D01*
X919080D01*
X920280Y674697D01*
Y672298D01*
X919080Y671098D01*
X915481D01*
X923879Y673497D02*
X926278D01*
X927478Y672298D01*
Y668699D01*
X923879D01*
X922679Y669899D01*
X923879Y671098D01*
X927478D01*
X934675Y675897D02*
Y668699D01*
X931076D01*
X929877Y669899D01*
Y672298D01*
X931076Y673497D01*
X934675D01*
X949071Y674697D02*
X947871Y675897D01*
X945472D01*
X944272Y674697D01*
Y673497D01*
X945472Y672298D01*
X947871D01*
X949071Y671098D01*
Y669899D01*
X947871Y668699D01*
X945472D01*
X944272Y669899D01*
X951470Y675897D02*
Y668699D01*
Y672298D01*
X952669Y673497D01*
X955069D01*
X956268Y672298D01*
Y668699D01*
X959867Y673497D02*
X962266D01*
X963466Y672298D01*
Y668699D01*
X959867D01*
X958667Y669899D01*
X959867Y671098D01*
X963466D01*
X965865Y666300D02*
Y673497D01*
X969464D01*
X970664Y672298D01*
Y669899D01*
X969464Y668699D01*
X965865D01*
X976662D02*
X974262D01*
X973063Y669899D01*
Y672298D01*
X974262Y673497D01*
X976662D01*
X977861Y672298D01*
Y671098D01*
X973063D01*
X856497Y675897D02*
Y671098D01*
X858896Y668699D01*
X861295Y671098D01*
Y675897D01*
X863694Y668699D02*
X866094D01*
X864894D01*
Y673497D01*
X863694D01*
X870892D02*
X873291D01*
X874491Y672298D01*
Y668699D01*
X870892D01*
X869692Y669899D01*
X870892Y671098D01*
X874491D01*
X876890Y668699D02*
X881688Y673497D01*
X884088Y668699D02*
Y675897D01*
X887687D01*
X888886Y674697D01*
Y672298D01*
X887687Y671098D01*
X884088D01*
X892485Y673497D02*
X894884D01*
X896084Y672298D01*
Y668699D01*
X892485D01*
X891285Y669899D01*
X892485Y671098D01*
X896084D01*
X903281Y675897D02*
Y668699D01*
X899683D01*
X898483Y669899D01*
Y672298D01*
X899683Y673497D01*
X903281D01*
X737531Y675897D02*
Y668699D01*
X741130D01*
X742330Y669899D01*
Y674697D01*
X741130Y675897D01*
X737531D01*
X744729Y673497D02*
Y668699D01*
Y671098D01*
X745928Y672298D01*
X747128Y673497D01*
X748328D01*
X751927Y668699D02*
X754326D01*
X753126D01*
Y673497D01*
X751927D01*
X757925Y668699D02*
X760324D01*
X759124D01*
Y675897D01*
X757925D01*
X763923Y668699D02*
X766322D01*
X765122D01*
Y675897D01*
X763923D01*
X777118D02*
Y668699D01*
X781917D01*
X785516Y673497D02*
X787915D01*
X789115Y672298D01*
Y668699D01*
X785516D01*
X784316Y669899D01*
X785516Y671098D01*
X789115D01*
X791514Y673497D02*
Y669899D01*
X792713Y668699D01*
X796312D01*
Y667499D01*
X795113Y666300D01*
X793913D01*
X796312Y668699D02*
Y673497D01*
X802310Y668699D02*
X799911D01*
X798711Y669899D01*
Y672298D01*
X799911Y673497D01*
X802310D01*
X803510Y672298D01*
Y671098D01*
X798711D01*
X805909Y673497D02*
Y668699D01*
Y671098D01*
X807109Y672298D01*
X808308Y673497D01*
X809508D01*
X820304Y668699D02*
Y675897D01*
X823903D01*
X825103Y674697D01*
Y672298D01*
X823903Y671098D01*
X820304D01*
X828702Y673497D02*
X831101D01*
X832300Y672298D01*
Y668699D01*
X828702D01*
X827502Y669899D01*
X828702Y671098D01*
X832300D01*
X834700Y668699D02*
X837099D01*
X835899D01*
Y673497D01*
X834700D01*
X840698D02*
Y668699D01*
Y671098D01*
X841897Y672298D01*
X843097Y673497D01*
X844297D01*
X664151Y675897D02*
Y668699D01*
Y672298D01*
X668949D01*
Y675897D01*
Y668699D01*
X672548D02*
X674948D01*
X676147Y669899D01*
Y672298D01*
X674948Y673497D01*
X672548D01*
X671349Y672298D01*
Y669899D01*
X672548Y668699D01*
X678546D02*
X680945D01*
X679746D01*
Y675897D01*
X678546D01*
X688143Y668699D02*
X685744D01*
X684544Y669899D01*
Y672298D01*
X685744Y673497D01*
X688143D01*
X689343Y672298D01*
Y671098D01*
X684544D01*
X698940Y675897D02*
X703738D01*
X701339D01*
Y668699D01*
X706137Y673497D02*
Y669899D01*
X707337Y668699D01*
X710936D01*
Y667499D01*
X709736Y666300D01*
X708537D01*
X710936Y668699D02*
Y673497D01*
X713335Y666300D02*
Y673497D01*
X716934D01*
X718133Y672298D01*
Y669899D01*
X716934Y668699D01*
X713335D01*
X724132D02*
X721732D01*
X720533Y669899D01*
Y672298D01*
X721732Y673497D01*
X724132D01*
X725331Y672298D01*
Y671098D01*
X720533D01*
X613563Y668699D02*
Y675897D01*
X617162D01*
X618362Y674697D01*
Y672298D01*
X617162Y671098D01*
X613563D01*
X620761Y668699D02*
X623160D01*
X621961D01*
Y675897D01*
X620761D01*
X627959Y673497D02*
X630358D01*
X631558Y672298D01*
Y668699D01*
X627959D01*
X626759Y669899D01*
X627959Y671098D01*
X631558D01*
X635156Y674697D02*
Y673497D01*
X633957D01*
X636356D01*
X635156D01*
Y669899D01*
X636356Y668699D01*
X643554D02*
X641154D01*
X639955Y669899D01*
Y672298D01*
X641154Y673497D01*
X643554D01*
X644753Y672298D01*
Y671098D01*
X639955D01*
X651951Y675897D02*
Y668699D01*
X648352D01*
X647153Y669899D01*
Y672298D01*
X648352Y673497D01*
X651951D01*
X502596Y675897D02*
Y668699D01*
Y672298D01*
X507394D01*
Y675897D01*
Y668699D01*
X510993D02*
X513392D01*
X514592Y669899D01*
Y672298D01*
X513392Y673497D01*
X510993D01*
X509793Y672298D01*
Y669899D01*
X510993Y668699D01*
X516991D02*
X519390D01*
X518191D01*
Y675897D01*
X516991D01*
X526588Y668699D02*
X524189D01*
X522989Y669899D01*
Y672298D01*
X524189Y673497D01*
X526588D01*
X527788Y672298D01*
Y671098D01*
X522989D01*
X542183Y674697D02*
X540983Y675897D01*
X538584D01*
X537385Y674697D01*
Y673497D01*
X538584Y672298D01*
X540983D01*
X542183Y671098D01*
Y669899D01*
X540983Y668699D01*
X538584D01*
X537385Y669899D01*
X544582Y668699D02*
X546981D01*
X545782D01*
Y673497D01*
X544582D01*
X550580D02*
X555379D01*
X550580Y668699D01*
X555379D01*
X561377D02*
X558978D01*
X557778Y669899D01*
Y672298D01*
X558978Y673497D01*
X561377D01*
X562576Y672298D01*
Y671098D01*
X557778D01*
X453408Y674697D02*
X452209Y675897D01*
X449809D01*
X448610Y674697D01*
Y669899D01*
X449809Y668699D01*
X452209D01*
X453408Y669899D01*
X457007Y668699D02*
X459406D01*
X460606Y669899D01*
Y672298D01*
X459406Y673497D01*
X457007D01*
X455807Y672298D01*
Y669899D01*
X457007Y668699D01*
X463005Y673497D02*
Y669899D01*
X464205Y668699D01*
X467803D01*
Y673497D01*
X470203Y668699D02*
Y673497D01*
X473802D01*
X475001Y672298D01*
Y668699D01*
X478600Y674697D02*
Y673497D01*
X477400D01*
X479800D01*
X478600D01*
Y669899D01*
X479800Y668699D01*
X402820Y674697D02*
X401621Y675897D01*
X399222D01*
X398022Y674697D01*
Y673497D01*
X399222Y672298D01*
X401621D01*
X402820Y671098D01*
Y669899D01*
X401621Y668699D01*
X399222D01*
X398022Y669899D01*
X405220Y673497D02*
Y669899D01*
X406419Y668699D01*
X410018D01*
Y667499D01*
X408819Y666300D01*
X407619D01*
X410018Y668699D02*
Y673497D01*
X412417Y668699D02*
Y673497D01*
X413617D01*
X414817Y672298D01*
Y668699D01*
Y672298D01*
X416016Y673497D01*
X417216Y672298D01*
Y668699D01*
X419615Y675897D02*
Y668699D01*
X423214D01*
X424413Y669899D01*
Y671098D01*
Y672298D01*
X423214Y673497D01*
X419615D01*
X428012Y668699D02*
X430412D01*
X431611Y669899D01*
Y672298D01*
X430412Y673497D01*
X428012D01*
X426813Y672298D01*
Y669899D01*
X428012Y668699D01*
X434010D02*
X436410D01*
X435210D01*
Y675897D01*
X434010D01*
M02*
