G04*
G04 #@! TF.GenerationSoftware,Altium Limited,Altium Designer,23.7.1 (13)*
G04*
G04 Layer_Physical_Order=4*
G04 Layer_Color=16711680*
%FSLAX25Y25*%
%MOIN*%
G70*
G04*
G04 #@! TF.SameCoordinates,AA4D2978-76EA-46CB-BF31-C62278C5BCD9*
G04*
G04*
G04 #@! TF.FilePolarity,Positive*
G04*
G01*
G75*
%ADD29R,0.05709X0.03937*%
%ADD31R,0.03799X0.03150*%
%ADD33R,0.03937X0.05709*%
%ADD44R,0.03150X0.03543*%
%ADD115C,0.08268*%
%ADD126C,0.01200*%
%ADD127C,0.06000*%
%ADD128C,0.02000*%
%ADD130C,0.00923*%
%ADD131C,0.01500*%
%ADD132C,0.02500*%
%ADD133C,0.05000*%
%ADD135C,0.10039*%
%ADD136C,0.04000*%
%ADD137C,0.07874*%
%ADD138C,0.03937*%
%ADD139O,0.05512X0.04724*%
%ADD140O,0.07874X0.15748*%
%ADD141O,0.15748X0.07874*%
%ADD142O,0.07087X0.14173*%
%ADD143C,0.05039*%
%ADD144C,0.03150*%
%ADD145C,0.01968*%
%ADD146C,0.02362*%
%ADD192R,0.03543X0.03543*%
%ADD193R,0.03543X0.05906*%
%ADD194R,0.05906X0.03543*%
G04:AMPARAMS|DCode=195|XSize=39.37mil|YSize=57.09mil|CornerRadius=0mil|HoleSize=0mil|Usage=FLASHONLY|Rotation=135.000|XOffset=0mil|YOffset=0mil|HoleType=Round|Shape=Rectangle|*
%AMROTATEDRECTD195*
4,1,4,0.03410,0.00626,-0.00626,-0.03410,-0.03410,-0.00626,0.00626,0.03410,0.03410,0.00626,0.0*
%
%ADD195ROTATEDRECTD195*%

G04:AMPARAMS|DCode=196|XSize=37.99mil|YSize=31.5mil|CornerRadius=0mil|HoleSize=0mil|Usage=FLASHONLY|Rotation=315.000|XOffset=0mil|YOffset=0mil|HoleType=Round|Shape=Rectangle|*
%AMROTATEDRECTD196*
4,1,4,-0.02457,0.00230,-0.00230,0.02457,0.02457,-0.00230,0.00230,-0.02457,-0.02457,0.00230,0.0*
%
%ADD196ROTATEDRECTD196*%

G04:AMPARAMS|DCode=197|XSize=31.5mil|YSize=35.43mil|CornerRadius=0mil|HoleSize=0mil|Usage=FLASHONLY|Rotation=225.000|XOffset=0mil|YOffset=0mil|HoleType=Round|Shape=Rectangle|*
%AMROTATEDRECTD197*
4,1,4,-0.00139,0.02366,0.02366,-0.00139,0.00139,-0.02366,-0.02366,0.00139,-0.00139,0.02366,0.0*
%
%ADD197ROTATEDRECTD197*%

G04:AMPARAMS|DCode=198|XSize=37.99mil|YSize=31.5mil|CornerRadius=0mil|HoleSize=0mil|Usage=FLASHONLY|Rotation=225.000|XOffset=0mil|YOffset=0mil|HoleType=Round|Shape=Rectangle|*
%AMROTATEDRECTD198*
4,1,4,0.00230,0.02457,0.02457,0.00230,-0.00230,-0.02457,-0.02457,-0.00230,0.00230,0.02457,0.0*
%
%ADD198ROTATEDRECTD198*%

G36*
X133450Y39900D02*
X138550Y34800D01*
X166350D01*
X167050Y35500D01*
Y38850D01*
X166400Y39500D01*
X141650Y39500D01*
X138450Y42700D01*
Y45400D01*
X141446Y42404D01*
X143024Y41750D01*
X147950Y41750D01*
X148650Y42450D01*
Y44700D01*
X147800Y45550D01*
X141950D01*
X138000Y49500D01*
X137994Y49455D01*
X133450Y51637D01*
Y43750D01*
Y39900D01*
D02*
G37*
G36*
X137600Y31800D02*
X158600Y31800D01*
X160600Y33800D01*
X160900Y34100D01*
X166600D01*
X167000Y33700D01*
Y30400D01*
X166600Y30000D01*
X160500D01*
X159300Y28800D01*
Y27750D01*
X159050Y27500D01*
X137400D01*
X136950Y27950D01*
Y31150D01*
X137600Y31800D01*
D02*
G37*
G36*
X235300Y33950D02*
X227200D01*
X226000Y32750D01*
Y31450D01*
X227200Y30250D01*
X235450D01*
X235300Y33950D01*
D02*
G37*
G36*
X99300Y108500D02*
X99550Y108250D01*
X103200D01*
X103500Y108550D01*
Y108750D01*
Y119250D01*
X103200Y119550D01*
X99650D01*
X99300Y119200D01*
Y108500D01*
D02*
G37*
G36*
X105300Y109100D02*
X106200Y108200D01*
X110650D01*
X111200Y108750D01*
Y118650D01*
X110250Y119600D01*
X106100D01*
X105300Y118800D01*
X105300Y109100D01*
D02*
G37*
G36*
X234850Y112850D02*
X234850Y106150D01*
X228300Y99600D01*
Y92300D01*
X203650Y67650D01*
Y55000D01*
X201100Y52450D01*
X184550D01*
X182850Y54150D01*
Y69850D01*
X185300Y72300D01*
X202300D01*
X225250Y95250D01*
Y109650D01*
Y113350D01*
X226450Y114550D01*
X233150D01*
X234850Y112850D01*
D02*
G37*
G36*
X196611Y182161D02*
X190500Y176050D01*
Y168900D01*
X193650Y165750D01*
X204900D01*
X208200Y169050D01*
Y176250D01*
X202406Y182044D01*
X196611Y182161D01*
D02*
G37*
%LPC*%
G36*
X186669Y70324D02*
X184647D01*
Y68303D01*
X186669D01*
Y70324D01*
D02*
G37*
G36*
X195702D02*
X193681D01*
Y67553D01*
X192181D01*
Y70324D01*
X188169D01*
Y67553D01*
X187419D01*
Y66803D01*
X184647D01*
Y64781D01*
Y62791D01*
X187419D01*
Y61291D01*
X184647D01*
Y59269D01*
Y57279D01*
X187419D01*
Y56529D01*
X188169D01*
Y53758D01*
X192181D01*
Y56529D01*
X193681D01*
Y53758D01*
X197693D01*
Y56529D01*
X198442D01*
Y57279D01*
X201214D01*
Y59269D01*
Y61291D01*
X198442D01*
Y62791D01*
X201214D01*
Y64813D01*
X199572D01*
Y66803D01*
X199493Y67197D01*
X199564Y67553D01*
X199479Y67982D01*
X199236Y68346D01*
X198872Y68589D01*
X198442Y68674D01*
X195702D01*
Y70324D01*
D02*
G37*
G36*
X201214Y55779D02*
X199193D01*
Y53758D01*
X201214D01*
Y55779D01*
D02*
G37*
G36*
X186669D02*
X184647D01*
Y53758D01*
X186669D01*
Y55779D01*
D02*
G37*
%LPD*%
D29*
X142000Y37200D02*
D03*
Y29720D02*
D03*
X149000Y37200D02*
D03*
Y29720D02*
D03*
X156000Y37200D02*
D03*
Y29720D02*
D03*
D31*
X146000Y43700D02*
D03*
X152299D02*
D03*
X154800Y65450D02*
D03*
X148500D02*
D03*
X101350Y117700D02*
D03*
X107650D02*
D03*
D33*
X101350Y111400D02*
D03*
X108830D02*
D03*
D44*
X152150Y52463D02*
D03*
X155890Y60337D02*
D03*
X148410D02*
D03*
D115*
X125000Y8700D02*
D03*
Y38700D02*
D03*
X55000D02*
D03*
X85000D02*
D03*
Y80200D02*
D03*
X125000D02*
D03*
Y50200D02*
D03*
X55000Y80200D02*
D03*
X12000Y200594D02*
D03*
Y132200D02*
D03*
D126*
X156500Y110750D02*
X172150D01*
X173850Y112450D01*
X218100D01*
X218803Y113153D01*
Y116953D01*
X158150Y42050D02*
X163600D01*
X133054Y110418D02*
X135135Y108337D01*
X133054Y110418D02*
Y111472D01*
X132907Y111619D02*
X133054Y111472D01*
X134988Y108190D02*
X135135Y108337D01*
X134950Y105544D02*
X134988Y105582D01*
Y108190D01*
X134950Y103303D02*
Y105544D01*
X140900Y93350D02*
X143553Y90697D01*
Y89997D02*
Y90697D01*
X148418Y85132D02*
X150426D01*
X154997Y80561D01*
X143553Y89997D02*
X148418Y85132D01*
X154800Y73394D02*
X154997Y73592D01*
Y80561D01*
X154800Y65450D02*
Y73394D01*
X165650Y119400D02*
X165650D01*
Y118734D02*
Y119400D01*
X156350Y128700D02*
X165650Y119400D01*
X147338Y101588D02*
X156500Y110750D01*
X171778Y113880D02*
X172000Y114102D01*
X154800Y114500D02*
X168027D01*
X170897Y117370D01*
X155705Y112728D02*
X168658D01*
X169810Y113880D01*
X171778D01*
X146265Y103288D02*
X155705Y112728D01*
X145288Y104988D02*
X154800Y114500D01*
X170897Y117370D02*
X171212D01*
X183500Y115550D02*
X188600D01*
X142147Y156903D02*
X183500Y115550D01*
X141047Y156903D02*
X142147D01*
X140900Y157050D02*
X141047Y156903D01*
X264923Y54473D02*
X269100Y58650D01*
X264923Y43581D02*
Y54473D01*
X264550Y61250D02*
X264869D01*
X267096Y59023D01*
X268727D01*
X269100Y58650D01*
X271200Y69150D02*
Y78322D01*
X282928Y90050D01*
X264700Y72350D02*
X267825Y69225D01*
X271125D01*
X271200Y69150D01*
X264275Y27525D02*
X273946Y17854D01*
X264275Y27525D02*
Y30825D01*
X264200Y30900D02*
X264275Y30825D01*
X269981Y33550D02*
X270200D01*
X267575Y31144D02*
X269981Y33550D01*
X264444Y31144D02*
X267575D01*
X264200Y30900D02*
X264444Y31144D01*
X338450Y36550D02*
Y83250D01*
X338375Y36475D02*
X338450Y36550D01*
X331650Y90050D02*
X338450Y83250D01*
X187400Y62060D02*
Y67553D01*
X92600Y182600D02*
Y182800D01*
Y182600D02*
X146500Y128700D01*
X91354Y185534D02*
X100307D01*
X88023Y182203D02*
X91354Y185534D01*
X100307D02*
X111169Y174672D01*
X88023Y163173D02*
Y182203D01*
X88400Y187700D02*
X102884D01*
X106762Y183822D01*
X85250Y184550D02*
X88400Y187700D01*
X146500Y128700D02*
X156350D01*
X84775Y161609D02*
Y163991D01*
X102200Y166700D02*
Y166850D01*
X87650Y162800D02*
X88023Y163173D01*
X92700Y157200D02*
X102200Y166700D01*
X85250Y164466D02*
Y184550D01*
X84775Y163991D02*
X85250Y164466D01*
Y92828D02*
X86850Y91228D01*
X84775Y161609D02*
X85250Y161134D01*
Y92828D02*
Y161134D01*
X86850Y91150D02*
Y91228D01*
X138242Y107580D02*
Y107731D01*
X139058Y103288D02*
X146265D01*
X138242Y107580D02*
X140834Y104988D01*
X137600Y104431D02*
X137915D01*
X139058Y103288D01*
X264923Y43581D02*
X277027Y31477D01*
X282100Y27850D02*
X286050Y23900D01*
X296878D02*
X301578Y28600D01*
X286050Y23900D02*
X296878D01*
X155890Y60337D02*
X155895Y60332D01*
Y56555D02*
X155900Y56550D01*
X173550Y60600D02*
X184350Y49800D01*
X170490Y60860D02*
X184250Y47100D01*
X108200Y131327D02*
Y131641D01*
X104938Y128065D02*
X108200Y131327D01*
X104938Y127953D02*
Y128065D01*
X101899Y124914D02*
X104938Y127953D01*
X142084Y107691D02*
X145341D01*
X154300Y116650D01*
X141862Y107469D02*
X142084Y107691D01*
X136665Y101588D02*
X147338D01*
X140834Y104988D02*
X145288D01*
X148388Y99888D02*
X156300Y107800D01*
X150388Y98188D02*
X155450Y103250D01*
X117015Y98188D02*
X150388D01*
X134950Y103303D02*
X136665Y101588D01*
X117278Y108700D02*
X126090Y99888D01*
X148388D01*
X113602Y101600D02*
X117015Y98188D01*
X154300Y116650D02*
X166912D01*
X155450Y103250D02*
X164100D01*
X156300Y107800D02*
X168250D01*
X164100Y103250D02*
X170490Y96860D01*
Y60860D02*
Y96860D01*
X184250Y47100D02*
X232498D01*
X113075Y101600D02*
X113602D01*
X202350Y49800D02*
X204650Y52100D01*
X184350Y49800D02*
X202350D01*
X173550Y60600D02*
Y102500D01*
X116750Y108700D02*
X117278D01*
X168250Y107800D02*
X173550Y102500D01*
X204650Y52100D02*
X232498D01*
X166912Y116650D02*
X170994Y120731D01*
X171308D01*
X146368Y149182D02*
Y149244D01*
Y149182D02*
X178303Y117247D01*
Y115597D02*
Y117247D01*
X144110Y151502D02*
Y151710D01*
X178303Y115597D02*
X178450Y115450D01*
X144110Y151502D02*
X146368Y149244D01*
X115428Y168850D02*
X118600Y165677D01*
X120931D02*
X127677Y158932D01*
X114900Y168850D02*
X115428D01*
X127677Y155473D02*
Y158932D01*
Y155473D02*
X128050Y155100D01*
X118600Y165677D02*
X120931D01*
X218803Y116953D02*
X218950Y117100D01*
X124273Y168273D02*
X142773D01*
X138950Y162500D02*
X139500Y163050D01*
X142773Y168273D02*
X168100Y193600D01*
X141600Y163050D02*
X170500Y191950D01*
X139500Y163050D02*
X141600D01*
X100314Y124914D02*
X101899D01*
X94000Y118600D02*
X100314Y124914D01*
X118127Y20823D02*
X146552D01*
X146850Y20525D01*
X94450Y84950D02*
X101256D01*
X90500Y88900D02*
X94450Y84950D01*
X101256D02*
X108403Y77803D01*
X90500Y88900D02*
Y124300D01*
X165600Y227222D02*
X170500Y222322D01*
Y191950D02*
Y222322D01*
X166450Y222850D02*
X168100Y221200D01*
Y193600D02*
Y221200D01*
X92700Y157050D02*
Y157200D01*
X187419Y56529D02*
X192931D01*
X198442D01*
X192931Y67553D02*
X198442D01*
X187419D02*
X192931D01*
Y62041D02*
Y66795D01*
X198450Y62048D02*
Y66803D01*
X198442Y62041D02*
X198450Y62048D01*
X192931Y62041D02*
X198442D01*
X187419D02*
X192931D01*
X198442Y56529D02*
Y62041D01*
X192931Y56529D02*
Y62041D01*
X187419Y56529D02*
Y62041D01*
X187400Y62060D02*
X187419Y62041D01*
X293900Y6250D02*
X298000Y10350D01*
X285550Y6250D02*
X293900D01*
X285023Y19637D02*
X287561Y17100D01*
X289625D01*
X290981Y15745D01*
X292605D01*
X282928Y90050D02*
X331650D01*
X272573Y27023D02*
X273209Y26280D01*
X275912Y23319D02*
X276811Y22561D01*
X273209Y26280D02*
X275912Y23319D01*
X278400Y13400D02*
X285550Y6250D01*
X120914Y183822D02*
X121136Y183600D01*
X106762Y183822D02*
X120914D01*
X123900Y167900D02*
X124273Y168273D01*
X111169Y174672D02*
X120578D01*
X120800Y174450D01*
X94000Y115100D02*
X97700Y111400D01*
X94000Y115100D02*
Y118600D01*
X97700Y111400D02*
X102776D01*
X90500Y124300D02*
X103650Y137450D01*
X163900Y222850D02*
X166450D01*
X163800Y222950D02*
X163900Y222850D01*
X165600Y227222D02*
Y227750D01*
X103650Y137450D02*
X105197D01*
X105900Y138153D01*
Y155400D01*
X108400Y77800D02*
X108403Y77803D01*
X108400Y30550D02*
Y77800D01*
Y30550D02*
X118127Y20823D01*
X148450Y60337D02*
Y65450D01*
X156500Y43700D02*
X158150Y42050D01*
X152299Y43700D02*
X156500D01*
X152150Y43849D02*
Y52463D01*
Y43849D02*
X152299Y43700D01*
D127*
X9804Y356437D02*
Y375341D01*
X26417Y339823D02*
X40500D01*
X9804Y356437D02*
X26417Y339823D01*
X9445Y375700D02*
X9804Y375341D01*
X127555Y375700D02*
X140600D01*
X161240Y335700D02*
Y355060D01*
X140600Y375700D02*
X161240Y355060D01*
X199500Y175400D02*
Y288200D01*
Y175400D02*
X199600Y175300D01*
X199315Y288385D02*
Y331200D01*
Y288385D02*
X199500Y288200D01*
D128*
X176450Y103089D02*
X176517Y103155D01*
Y109033D01*
X176500Y109050D02*
X176517Y109033D01*
X155895Y56555D02*
Y60332D01*
D130*
X48921Y267149D02*
X49252Y266817D01*
X48921Y267149D02*
Y268505D01*
X50794Y272072D02*
Y272675D01*
X49357Y270635D02*
X50794Y272072D01*
X46860Y270635D02*
X49357D01*
X44877Y268652D02*
X46860Y270635D01*
X170750Y231677D02*
X170750D01*
X44877Y238261D02*
Y268652D01*
X47449Y269212D02*
X48213D01*
X48921Y268505D01*
X46300Y238850D02*
Y268063D01*
X47449Y269212D01*
X156500Y233100D02*
X171339D01*
X157089Y231677D02*
X170750D01*
X171076Y231351D01*
X171862Y230565D01*
X168664Y227367D02*
X171862Y230565D01*
X168664Y227367D02*
X170731Y225300D01*
X173929Y228498D01*
X175996Y226431D01*
X172053Y222488D02*
X175996Y226431D01*
X172053Y222488D02*
X174119Y220422D01*
X178062Y224365D01*
X178062Y224365D01*
Y224365D02*
X178389Y224039D01*
X181050Y221377D01*
Y140050D02*
Y221377D01*
X72311Y210827D02*
X136239D01*
X44877Y238261D02*
X72311Y210827D01*
X182473Y139461D02*
Y221967D01*
X171339Y233100D02*
X182473Y221967D01*
X135650Y212250D02*
X156500Y233100D01*
X46300Y238850D02*
X72900Y212250D01*
X135650D01*
X136239Y210827D02*
X157089Y231677D01*
X170800Y137700D02*
X171090D01*
X172454Y136337D02*
X177337D01*
X171090Y137700D02*
X172454Y136337D01*
X177337D02*
X181050Y140050D01*
X172454Y134914D02*
X177926D01*
X171090Y133550D02*
X172454Y134914D01*
X170800Y133550D02*
X171090D01*
X177926Y134914D02*
X182473Y139461D01*
D131*
X95300Y231100D02*
X98484Y227916D01*
X95300Y231100D02*
Y233650D01*
X98484Y227916D02*
X128534D01*
X95300Y233650D02*
X98472Y236822D01*
X98801D01*
X104966Y222009D02*
X127209D01*
X128850Y223650D02*
Y227600D01*
X127209Y222009D02*
X128850Y223650D01*
X104500Y221543D02*
X104966Y222009D01*
X128534Y227916D02*
X128850Y227600D01*
D132*
X49684Y92450D02*
X71189D01*
X40934Y83700D02*
X49684Y92450D01*
X71189D02*
X83439Y80200D01*
X40500Y83700D02*
X40934D01*
X83439Y80200D02*
X85000D01*
D133*
X135900Y48500D02*
Y72921D01*
X149350Y76050D02*
Y77023D01*
X135900Y72921D02*
X139029Y76050D01*
X149350D01*
Y77023D02*
X151397Y79070D01*
X124375Y39325D02*
X125000Y38700D01*
D135*
X40500Y339823D02*
D03*
Y319823D02*
D03*
Y14200D02*
D03*
Y34200D02*
D03*
Y83700D02*
D03*
Y63700D02*
D03*
D136*
X216189Y8200D02*
D03*
X228000D02*
D03*
D137*
X17157Y243200D02*
D03*
X36843D02*
D03*
X127555Y375700D02*
D03*
X9445D02*
D03*
D138*
X321622Y28600D02*
D03*
X301578D02*
D03*
X311541Y18539D02*
D03*
X199315Y331200D02*
D03*
X219000D02*
D03*
X199500Y288200D02*
D03*
X219185D02*
D03*
X104500Y221543D02*
D03*
Y201857D02*
D03*
D139*
X251850Y66611D02*
D03*
Y48895D02*
D03*
Y54800D02*
D03*
Y60706D02*
D03*
Y72517D02*
D03*
Y78422D02*
D03*
X209000Y116936D02*
D03*
Y122842D02*
D03*
Y134653D02*
D03*
Y140558D02*
D03*
Y146464D02*
D03*
Y128747D02*
D03*
D140*
X29717Y200594D02*
D03*
Y132200D02*
D03*
D141*
X42315Y181696D02*
D03*
Y113302D02*
D03*
D142*
X54520Y204924D02*
D03*
Y136531D02*
D03*
D143*
X141555Y256960D02*
D03*
X82500Y335700D02*
D03*
X102185Y256960D02*
D03*
X161240Y335700D02*
D03*
D144*
X264550Y61250D02*
D03*
X338375Y36475D02*
D03*
X114900Y168850D02*
D03*
X128050Y155100D02*
D03*
X38500Y291193D02*
D03*
Y285443D02*
D03*
X146850Y20525D02*
D03*
X101000Y94650D02*
D03*
Y90100D02*
D03*
X49252Y266817D02*
D03*
X50794Y272675D02*
D03*
X170800Y133550D02*
D03*
Y137700D02*
D03*
X92700Y157050D02*
D03*
X264700Y72350D02*
D03*
X270200Y33550D02*
D03*
X98801Y236822D02*
D03*
X87650Y162800D02*
D03*
X123900Y167900D02*
D03*
X86850Y91150D02*
D03*
X163800Y222950D02*
D03*
X138950Y162500D02*
D03*
X165600Y227750D02*
D03*
X105900Y155400D02*
D03*
X106700Y90100D02*
D03*
Y94650D02*
D03*
X202550Y171250D02*
D03*
X196100D02*
D03*
X202550Y176450D02*
D03*
X196400D02*
D03*
X226250Y219900D02*
D03*
X222500Y215250D02*
D03*
X228750Y214800D02*
D03*
X149350Y76050D02*
D03*
X116750Y108700D02*
D03*
X113075Y101600D02*
D03*
X128850Y227600D02*
D03*
D145*
X188600Y115550D02*
D03*
X135135Y108337D02*
D03*
X140900Y93350D02*
D03*
X165650Y119400D02*
D03*
X218950Y117100D02*
D03*
X144110Y151710D02*
D03*
X140900Y157050D02*
D03*
X178450Y115450D02*
D03*
D146*
X176500Y109050D02*
D03*
X92600Y182800D02*
D03*
X102200Y166850D02*
D03*
X138242Y107731D02*
D03*
X137600Y104431D02*
D03*
X279400Y35400D02*
D03*
X283721Y32979D02*
D03*
X227150Y32100D02*
D03*
X139150Y29550D02*
D03*
X109350Y114450D02*
D03*
X107150D02*
D03*
X232800Y112100D02*
D03*
X227250D02*
D03*
X232900Y106650D02*
D03*
X155900Y56550D02*
D03*
X159800Y31050D02*
D03*
X152950Y29550D02*
D03*
X145400D02*
D03*
X108200Y131641D02*
D03*
X141862Y107469D02*
D03*
X172000Y114102D02*
D03*
X171308Y120731D02*
D03*
X171212Y117370D02*
D03*
X121250Y161850D02*
D03*
X227300Y106650D02*
D03*
X278850Y41300D02*
D03*
X120800Y174450D02*
D03*
X121136Y183600D02*
D03*
D192*
X192931Y67553D02*
D03*
Y56529D02*
D03*
X198442D02*
D03*
X187419Y67553D02*
D03*
X198442Y62041D02*
D03*
X187419D02*
D03*
X192931D02*
D03*
X198442Y67553D02*
D03*
X187419Y56529D02*
D03*
D193*
X176533Y103006D02*
D03*
D03*
X181533D02*
D03*
X186533D02*
D03*
X191533D02*
D03*
X196533D02*
D03*
X201533D02*
D03*
X206533D02*
D03*
X211533D02*
D03*
X216533D02*
D03*
X221533D02*
D03*
D194*
X232498Y32100D02*
D03*
Y37100D02*
D03*
Y42100D02*
D03*
Y47100D02*
D03*
Y52100D02*
D03*
Y57100D02*
D03*
Y62100D02*
D03*
Y67100D02*
D03*
Y72100D02*
D03*
Y77100D02*
D03*
Y82100D02*
D03*
Y87100D02*
D03*
Y92100D02*
D03*
Y97100D02*
D03*
D03*
X163600D02*
D03*
Y92100D02*
D03*
Y87100D02*
D03*
Y82100D02*
D03*
Y77100D02*
D03*
Y72100D02*
D03*
Y67100D02*
D03*
Y62100D02*
D03*
Y57100D02*
D03*
Y52100D02*
D03*
Y47100D02*
D03*
Y42100D02*
D03*
Y37100D02*
D03*
Y32100D02*
D03*
D03*
D195*
X297895Y10455D02*
D03*
X292605Y15745D02*
D03*
D196*
X278400Y13400D02*
D03*
X273946Y17854D02*
D03*
D197*
X276811Y22561D02*
D03*
X282100Y27850D02*
D03*
X285023Y19637D02*
D03*
D198*
X272573Y27023D02*
D03*
X277027Y31477D02*
D03*
M02*
