G04*
G04 #@! TF.GenerationSoftware,Altium Limited,Altium Designer,23.7.1 (13)*
G04*
G04 Layer_Color=128*
%FSLAX25Y25*%
%MOIN*%
G70*
G04*
G04 #@! TF.SameCoordinates,AA4D2978-76EA-46CB-BF31-C62278C5BCD9*
G04*
G04*
G04 #@! TF.FilePolarity,Positive*
G04*
G01*
G75*
%ADD21C,0.00500*%
D21*
X113916Y168850D02*
X115884D01*
X114900Y167866D02*
Y169834D01*
X127066Y155100D02*
X129034D01*
X128050Y154116D02*
Y156084D01*
X145866Y20525D02*
X147834D01*
X146850Y19541D02*
Y21509D01*
X48268Y266817D02*
X50236D01*
X49252Y265833D02*
Y267802D01*
X49810Y272675D02*
X51779D01*
X50794Y271691D02*
Y273659D01*
X169816Y133550D02*
X171784D01*
X170800Y132566D02*
Y134535D01*
X169816Y137700D02*
X171784D01*
X170800Y136716D02*
Y138684D01*
X91716Y157050D02*
X93684D01*
X92700Y156066D02*
Y158034D01*
X86666Y162800D02*
X88634D01*
X87650Y161816D02*
Y163784D01*
X122916Y167900D02*
X124884D01*
X123900Y166916D02*
Y168884D01*
X85866Y91150D02*
X87834D01*
X86850Y90166D02*
Y92134D01*
X162816Y222950D02*
X164784D01*
X163800Y221966D02*
Y223934D01*
X137966Y162500D02*
X139934D01*
X138950Y161516D02*
Y163484D01*
X164616Y227750D02*
X166584D01*
X165600Y226766D02*
Y228734D01*
X104916Y155400D02*
X106884D01*
X105900Y154416D02*
Y156384D01*
X201566Y171250D02*
X203534D01*
X202550Y170266D02*
Y172234D01*
X195116Y171250D02*
X197084D01*
X196100Y170266D02*
Y172234D01*
X201566Y176450D02*
X203534D01*
X202550Y175466D02*
Y177434D01*
X195416Y176450D02*
X197384D01*
X196400Y175466D02*
Y177434D01*
M02*
