G04*
G04 #@! TF.GenerationSoftware,Altium Limited,Altium Designer,23.7.1 (13)*
G04*
G04 Layer_Physical_Order=3*
G04 Layer_Color=128*
%FSLAX25Y25*%
%MOIN*%
G70*
G04*
G04 #@! TF.SameCoordinates,AA4D2978-76EA-46CB-BF31-C62278C5BCD9*
G04*
G04*
G04 #@! TF.FilePolarity,Negative*
G04*
G01*
G75*
%ADD21C,0.00500*%
%ADD147C,0.04000*%
%ADD161C,0.12693*%
%ADD162C,0.09543*%
%ADD163C,0.09150*%
%ADD164C,0.07969*%
G04:AMPARAMS|DCode=165|XSize=69.685mil|YSize=69.685mil|CornerRadius=0mil|HoleSize=0mil|Usage=FLASHONLY|Rotation=0.000|XOffset=0mil|YOffset=0mil|HoleType=Round|Shape=Relief|Width=15mil|Gap=10mil|Entries=4|*
%AMTHD165*
7,0,0,0.06969,0.04969,0.01500,45*
%
%ADD165THD165*%
%ADD166C,0.08756*%
%ADD167C,0.09425*%
%ADD168C,0.09543*%
%ADD169C,0.11512*%
%ADD170C,0.10331*%
%ADD171C,0.08362*%
%ADD173C,0.14268*%
G04:AMPARAMS|DCode=177|XSize=65.748mil|YSize=65.748mil|CornerRadius=0mil|HoleSize=0mil|Usage=FLASHONLY|Rotation=0.000|XOffset=0mil|YOffset=0mil|HoleType=Round|Shape=Relief|Width=15mil|Gap=10mil|Entries=4|*
%AMTHD177*
7,0,0,0.06575,0.04575,0.01500,45*
%
%ADD177THD177*%
%ADD178C,0.07181*%
%ADD179C,0.07575*%
%ADD180R,0.08050X1.04800*%
%ADD181R,0.62100X0.97700*%
%ADD182R,0.80800X0.28950*%
%ADD183R,0.61350X0.43400*%
%ADD184R,1.34700X1.06500*%
%ADD185R,2.41750X0.59500*%
G04:AMPARAMS|DCode=186|XSize=81.496mil|YSize=81.496mil|CornerRadius=0mil|HoleSize=0mil|Usage=FLASHONLY|Rotation=0.000|XOffset=0mil|YOffset=0mil|HoleType=Round|Shape=Relief|Width=15mil|Gap=10mil|Entries=4|*
%AMTHD186*
7,0,0,0.08150,0.06150,0.01500,45*
%
%ADD186THD186*%
G04:AMPARAMS|DCode=187|XSize=84.252mil|YSize=84.252mil|CornerRadius=0mil|HoleSize=0mil|Usage=FLASHONLY|Rotation=0.000|XOffset=0mil|YOffset=0mil|HoleType=Round|Shape=Relief|Width=15mil|Gap=10mil|Entries=4|*
%AMTHD187*
7,0,0,0.08425,0.06425,0.01500,45*
%
%ADD187THD187*%
G04:AMPARAMS|DCode=188|XSize=105.118mil|YSize=105.118mil|CornerRadius=0mil|HoleSize=0mil|Usage=FLASHONLY|Rotation=0.000|XOffset=0mil|YOffset=0mil|HoleType=Round|Shape=Relief|Width=15mil|Gap=10mil|Entries=4|*
%AMTHD188*
7,0,0,0.10512,0.08512,0.01500,45*
%
%ADD188THD188*%
%ADD189O,0.09937X0.17811*%
%ADD190O,0.17811X0.10724*%
%AMTHOVALD191*
21,1,0.01181,0.09724,0,0,270.0*
1,1,0.09724,0.00000,0.00591*
1,1,0.09724,0.00000,-0.00591*
21,0,0.01181,0.07724,0,0,270.0*
1,0,0.07724,0.00000,0.00591*
1,0,0.07724,0.00000,-0.00591*
4,0,4,-0.00530,0.00060,-0.03968,0.03498,-0.02908,0.04559,0.00530,0.01121,-0.00530,0.00060,0.0*
4,0,4,-0.00530,-0.01121,0.02908,-0.04559,0.03968,-0.03498,0.00530,-0.00060,-0.00530,-0.01121,0.0*
4,0,4,-0.00530,0.01121,0.02908,0.04559,0.03968,0.03498,0.00530,0.00060,-0.00530,0.01121,0.0*
4,0,4,-0.00530,-0.00060,-0.03968,-0.03498,-0.02908,-0.04559,0.00530,-0.01121,-0.00530,-0.00060,0.0*
%
%ADD191THOVALD191*%

D21*
X149550Y121400D02*
X150950Y122800D01*
X119636Y86086D02*
X130400Y87350D01*
X109065Y75515D02*
X119636Y86086D01*
X130400Y87350D02*
X133000Y78100D01*
X116687Y62125D02*
X133000Y78100D01*
X131272Y32650D02*
X203750Y66200D01*
X203800Y73900D01*
X131558Y44151D02*
X194650Y71250D01*
Y95550D02*
Y165850D01*
Y71250D02*
Y95550D01*
X145600Y81300D02*
X147500Y90809D01*
X144550Y70650D02*
X145600Y81300D01*
X144550Y70650D02*
X152300Y70200D01*
X161550Y94850D01*
X166550Y130750D02*
X168800Y129050D01*
X166550Y130750D02*
Y141650D01*
X184781Y189704D01*
X169399Y223445D02*
X184781Y189704D01*
X153939Y223681D02*
X169399Y223445D01*
X153939Y223681D02*
X154144Y168335D01*
X123350Y167950D02*
X154144Y168335D01*
X114450Y163350D02*
X123350Y167950D01*
X114450Y163350D02*
X119050Y156300D01*
X127750Y160900D01*
X155500Y160850D01*
Y130400D02*
Y160850D01*
X77500Y73150D02*
X109065Y75515D01*
X60600Y146100D02*
X77500Y73150D01*
X46900Y143800D02*
X60600Y146100D01*
X46900Y143800D02*
X57900Y92350D01*
X67700Y64700D01*
X107659Y66249D01*
X25678Y242029D02*
X46241Y292630D01*
X36800Y297000D02*
X46241Y292630D01*
X10250Y243250D02*
X36800Y297000D01*
X10250Y243250D02*
X47300Y198200D01*
X25678Y242029D02*
X52650Y216150D01*
X64549Y220258D01*
X166746Y231950D02*
X203152Y210350D01*
X232300D01*
X122552Y231950D02*
X166746D01*
X232300Y210350D02*
X233200Y210400D01*
X233150Y223800D02*
X233200Y210400D01*
X202865Y224003D02*
X233150Y223800D01*
X172734Y238892D02*
X202865Y224003D01*
X120500Y239100D02*
X172734Y238892D01*
X64549Y220258D02*
X120500Y239100D01*
X47300Y198200D02*
X57550Y198350D01*
X67550Y214250D01*
X122552Y231950D01*
X150950Y125850D02*
X153250Y128150D01*
X150950Y122800D02*
Y125850D01*
X153250Y128150D02*
X155500Y130400D01*
X148800Y105900D02*
X149550Y106650D01*
Y121400D01*
X114650Y90650D02*
X132354Y91349D01*
X139047Y97400D01*
X143152D01*
X147500Y90809D01*
X98100Y99200D02*
X107250Y99350D01*
X111050Y97200D01*
X115500Y97300D01*
X95200Y96300D02*
X98100Y99200D01*
X115500Y97300D02*
X124100Y105900D01*
X148800D01*
X161550Y94850D02*
Y121800D01*
X168800Y129050D01*
X203800Y164850D02*
X208700Y170200D01*
X208850Y180300D01*
X198600Y183400D02*
X208850Y180300D01*
X190000Y179550D02*
X198600Y183400D01*
X189950Y169350D02*
X190000Y179550D01*
X189950Y169350D02*
X194650Y165850D01*
X203800Y73900D02*
Y164850D01*
X116503Y44601D02*
X116687Y62125D01*
X116503Y44601D02*
X131558Y44151D01*
X107553Y32650D02*
X131272D01*
X107553D02*
X107659Y66249D01*
X95200Y89450D02*
Y96300D01*
Y89450D02*
X99200Y85450D01*
X109450D01*
X114650Y90650D01*
X48200Y130500D02*
X48500Y130200D01*
D147*
X240198Y102148D02*
X360400D01*
X0Y2D02*
X360400D01*
X360598Y200D01*
Y101950D01*
X360400Y102148D02*
X360598Y101950D01*
X240198Y102148D02*
Y400100D01*
X239900Y400398D02*
X240198Y400100D01*
X0Y400398D02*
X239900D01*
X-198Y400200D02*
X0Y400398D01*
X-198Y400200D02*
X0Y2D01*
D161*
X40500Y339823D02*
D03*
Y319823D02*
D03*
Y14200D02*
D03*
Y34200D02*
D03*
Y83700D02*
D03*
Y63700D02*
D03*
D162*
X216189Y8200D02*
D03*
D163*
X36843Y243200D02*
D03*
X141555Y256960D02*
D03*
X82500Y335700D02*
D03*
X102185Y256960D02*
D03*
X161240Y335700D02*
D03*
D164*
X321622Y28600D02*
D03*
X301578D02*
D03*
X311541Y18539D02*
D03*
X264550Y61250D02*
D03*
X338375Y36475D02*
D03*
X114900Y168850D02*
D03*
X128050Y155100D02*
D03*
D03*
X114900Y168850D02*
D03*
X146850Y20525D02*
D03*
D03*
X49252Y266817D02*
D03*
D03*
X50794Y272675D02*
D03*
D03*
X170800Y133550D02*
D03*
D03*
Y137700D02*
D03*
D03*
X92700Y157050D02*
D03*
D03*
X264700Y72350D02*
D03*
X98801Y236822D02*
D03*
X87650Y162800D02*
D03*
D03*
X123900Y167900D02*
D03*
D03*
X86850Y91150D02*
D03*
D03*
X163800Y222950D02*
D03*
D03*
X138950Y162500D02*
D03*
D03*
X165600Y227750D02*
D03*
D03*
X105900Y155400D02*
D03*
D03*
X116750Y108700D02*
D03*
X113075Y101600D02*
D03*
X128850Y227600D02*
D03*
D165*
X162100Y215200D02*
D03*
X158050Y218450D02*
D03*
X166200Y218300D02*
D03*
X324750Y73800D02*
D03*
Y80450D02*
D03*
Y77350D02*
D03*
Y83650D02*
D03*
X38500Y291193D02*
D03*
Y285443D02*
D03*
X101000Y94650D02*
D03*
Y90100D02*
D03*
X270200Y33550D02*
D03*
X106700Y90100D02*
D03*
Y94650D02*
D03*
X202550Y171250D02*
D03*
X196100D02*
D03*
X202550Y176450D02*
D03*
X196400D02*
D03*
X226250Y219900D02*
D03*
X222500Y215250D02*
D03*
X228750Y214800D02*
D03*
X149350Y76050D02*
D03*
D166*
X251850Y66611D02*
D03*
Y54800D02*
D03*
Y60706D02*
D03*
Y72517D02*
D03*
X209000Y122842D02*
D03*
Y134653D02*
D03*
Y140558D02*
D03*
Y128747D02*
D03*
D167*
X251850Y78422D02*
D03*
X209000Y116936D02*
D03*
D168*
X228000Y8200D02*
D03*
D169*
X125000Y8700D02*
D03*
X55000Y38700D02*
D03*
X85000D02*
D03*
Y80200D02*
D03*
X125000Y50200D02*
D03*
X55000Y80200D02*
D03*
D170*
X127555Y375700D02*
D03*
X9445D02*
D03*
D171*
X199315Y331200D02*
D03*
X219000D02*
D03*
X199500Y288200D02*
D03*
X219185D02*
D03*
X104500Y221543D02*
D03*
Y201857D02*
D03*
D173*
X12000Y200594D02*
D03*
Y132200D02*
D03*
D177*
X279400Y35400D02*
D03*
X283721Y32979D02*
D03*
X153950Y119300D02*
D03*
X121250Y161850D02*
D03*
X167000Y187650D02*
D03*
X163300Y183450D02*
D03*
X175900Y191750D02*
D03*
X179300Y188300D02*
D03*
X278850Y41300D02*
D03*
D178*
X188600Y115550D02*
D03*
X135135Y108337D02*
D03*
X140900Y93350D02*
D03*
X165650Y119400D02*
D03*
X218950Y117100D02*
D03*
X144110Y151710D02*
D03*
X140900Y157050D02*
D03*
X178450Y115450D02*
D03*
D179*
X176500Y109050D02*
D03*
X92600Y182800D02*
D03*
X102200Y166850D02*
D03*
X138242Y107731D02*
D03*
X137600Y104431D02*
D03*
X227150Y32100D02*
D03*
X139150Y29550D02*
D03*
X109350Y114450D02*
D03*
X107150D02*
D03*
X232800Y112100D02*
D03*
X227250D02*
D03*
X232900Y106650D02*
D03*
X155900Y56550D02*
D03*
X159800Y31050D02*
D03*
X152950Y29550D02*
D03*
X145400D02*
D03*
X108200Y131641D02*
D03*
X141862Y107469D02*
D03*
X172000Y114102D02*
D03*
X171308Y120731D02*
D03*
X171212Y117370D02*
D03*
X227300Y106650D02*
D03*
X120800Y174450D02*
D03*
X121136Y183600D02*
D03*
D180*
X242825Y50950D02*
D03*
D181*
X32200Y48900D02*
D03*
D182*
X202200Y14425D02*
D03*
D183*
X28214Y328103D02*
D03*
D184*
X122800Y294900D02*
D03*
D185*
X119925Y371100D02*
D03*
D186*
X17157Y243200D02*
D03*
D187*
X251850Y48895D02*
D03*
X209000Y146464D02*
D03*
D188*
X125000Y38700D02*
D03*
Y80200D02*
D03*
D189*
X29717Y200594D02*
D03*
Y132200D02*
D03*
D190*
X42315Y181696D02*
D03*
Y113302D02*
D03*
D191*
X54520Y204924D02*
D03*
Y136531D02*
D03*
M02*
