G04*
G04 #@! TF.GenerationSoftware,Altium Limited,Altium Designer,23.7.1 (13)*
G04*
G04 Layer_Color=32896*
%FSLAX25Y25*%
%MOIN*%
G70*
G04*
G04 #@! TF.SameCoordinates,AA4D2978-76EA-46CB-BF31-C62278C5BCD9*
G04*
G04*
G04 #@! TF.FilePolarity,Positive*
G04*
G01*
G75*
%ADD10C,0.01181*%
%ADD209C,0.03937*%
D10*
X243504Y15699D02*
Y17175D01*
X240846Y15699D02*
Y17175D01*
X243504Y23573D02*
Y25049D01*
X240846Y23573D02*
Y25049D01*
X243504Y31447D02*
Y32923D01*
X240846Y31447D02*
Y32923D01*
X243504Y74852D02*
Y76230D01*
Y70817D02*
Y72293D01*
Y66880D02*
Y68356D01*
Y62943D02*
Y64419D01*
Y59006D02*
Y60482D01*
Y55069D02*
Y56545D01*
Y51132D02*
Y52608D01*
Y47195D02*
Y48671D01*
Y43258D02*
Y44734D01*
Y39321D02*
Y40797D01*
Y35384D02*
Y36860D01*
Y27510D02*
Y28986D01*
Y19636D02*
Y21112D01*
Y11762D02*
Y13238D01*
Y78740D02*
Y80216D01*
Y82677D02*
Y84153D01*
Y86614D02*
Y88090D01*
Y90551D02*
Y92028D01*
X240846Y90551D02*
Y92028D01*
Y86614D02*
Y88090D01*
Y82677D02*
Y84153D01*
Y78740D02*
Y80216D01*
Y11762D02*
Y13238D01*
Y19636D02*
Y21112D01*
Y27510D02*
Y28986D01*
Y35384D02*
Y36860D01*
Y39321D02*
Y40797D01*
Y43258D02*
Y44734D01*
Y47195D02*
Y48671D01*
Y51132D02*
Y52608D01*
Y55069D02*
Y56545D01*
Y59006D02*
Y60482D01*
Y62943D02*
Y64419D01*
Y66880D02*
Y68356D01*
Y70817D02*
Y72293D01*
Y74852D02*
Y76230D01*
D209*
X242224Y492D02*
Y7788D01*
X242210Y94980D02*
Y102276D01*
M02*
