G04*
G04 #@! TF.GenerationSoftware,Altium Limited,Altium Designer,23.7.1 (13)*
G04*
G04 Layer_Color=128*
%FSLAX25Y25*%
%MOIN*%
G70*
G04*
G04 #@! TF.SameCoordinates,AA4D2978-76EA-46CB-BF31-C62278C5BCD9*
G04*
G04*
G04 #@! TF.FilePolarity,Positive*
G04*
G01*
G75*
%ADD21C,0.00500*%
D21*
X269513Y61550D02*
X271087D01*
X270300Y60763D02*
Y62337D01*
X29063Y278200D02*
X30637D01*
X29850Y277413D02*
Y278987D01*
X346513Y78150D02*
X348087D01*
X347300Y77363D02*
Y78937D01*
X289563Y52250D02*
X291137D01*
X290350Y51463D02*
Y53037D01*
X294113Y52250D02*
X295687D01*
X294900Y51463D02*
Y53037D01*
X284963Y52250D02*
X286537D01*
X285750Y51463D02*
Y53037D01*
X290613Y33100D02*
X292187D01*
X291400Y32313D02*
Y33887D01*
X290463Y27700D02*
X292037D01*
X291250Y26913D02*
Y28487D01*
X250263Y86200D02*
X251837D01*
X251050Y85413D02*
Y86987D01*
X257363Y86200D02*
X258937D01*
X258150Y85413D02*
Y86987D01*
X257363Y92100D02*
X258937D01*
X258150Y91313D02*
Y92887D01*
X278113Y82700D02*
X279687D01*
X278900Y81913D02*
Y83487D01*
X284063Y82700D02*
X285637D01*
X284850Y81913D02*
Y83487D01*
X299513Y94200D02*
X301087D01*
X300300Y93413D02*
Y94987D01*
X293113Y94200D02*
X294687D01*
X293900Y93413D02*
Y94987D01*
X333663Y89450D02*
X335237D01*
X334450Y88663D02*
Y90237D01*
X330263Y93450D02*
X331837D01*
X331050Y92663D02*
Y94237D01*
X344063Y52250D02*
X345637D01*
X344850Y51463D02*
Y53037D01*
X338063Y52250D02*
X339637D01*
X338850Y51463D02*
Y53037D01*
X345113Y33250D02*
X346687D01*
X345900Y32463D02*
Y34037D01*
X326563Y27700D02*
X328137D01*
X327350Y26913D02*
Y28487D01*
X329763Y31800D02*
X331337D01*
X330550Y31013D02*
Y32587D01*
X312013Y27200D02*
X313587D01*
X312800Y26413D02*
Y27987D01*
X306813Y27200D02*
X308387D01*
X307600Y26413D02*
Y27987D01*
X46513Y158150D02*
X48087D01*
X47300Y157363D02*
Y158937D01*
X176563Y236200D02*
X178137D01*
X177350Y235413D02*
Y236987D01*
X178013Y134450D02*
X179587D01*
X178800Y133663D02*
Y135237D01*
X140163Y21450D02*
X141737D01*
X140950Y20663D02*
Y22237D01*
X28613Y290050D02*
X30187D01*
X29400Y289263D02*
Y290837D01*
X26213Y237900D02*
X27787D01*
X27000Y237113D02*
Y238687D01*
X30013Y250400D02*
X31587D01*
X30800Y249613D02*
Y251187D01*
X26166Y243849D02*
X27741D01*
X26954Y243061D02*
Y244636D01*
X18163Y212500D02*
X19737D01*
X18950Y211713D02*
Y213287D01*
X40963Y212500D02*
X42537D01*
X41750Y211713D02*
Y213287D01*
X124463Y387550D02*
X126037D01*
X125250Y386763D02*
Y388337D01*
X140113Y219550D02*
X141687D01*
X140900Y218763D02*
Y220337D01*
X215763Y242100D02*
X217337D01*
X216550Y241313D02*
Y242887D01*
X194113Y276650D02*
X195687D01*
X194900Y275863D02*
Y277437D01*
X204313Y271000D02*
X205887D01*
X205100Y270213D02*
Y271787D01*
X199063Y271000D02*
X200637D01*
X199850Y270213D02*
Y271787D01*
X194113Y271000D02*
X195687D01*
X194900Y270213D02*
Y271787D01*
X218263Y171800D02*
X219837D01*
X219050Y171013D02*
Y172587D01*
X207163Y171800D02*
X208737D01*
X207950Y171013D02*
Y172587D01*
X212613Y171800D02*
X214187D01*
X213400Y171013D02*
Y172587D01*
X218263Y177600D02*
X219837D01*
X219050Y176813D02*
Y178387D01*
X212613Y177600D02*
X214187D01*
X213400Y176813D02*
Y178387D01*
X207163Y177600D02*
X208737D01*
X207950Y176813D02*
Y178387D01*
X159753Y195950D02*
X161327D01*
X160540Y195163D02*
Y196737D01*
X153913Y195950D02*
X155487D01*
X154700Y195163D02*
Y196737D01*
X148063Y195950D02*
X149637D01*
X148850Y195163D02*
Y196737D01*
X143013Y195950D02*
X144587D01*
X143800Y195163D02*
Y196737D01*
X171813Y149200D02*
X173387D01*
X172600Y148413D02*
Y149987D01*
X200163Y53900D02*
X201737D01*
X200950Y53113D02*
Y54687D01*
X195613Y54050D02*
X197187D01*
X196400Y53263D02*
Y54837D01*
X151213Y60050D02*
X152787D01*
X152000Y59263D02*
Y60837D01*
X140513Y60650D02*
X142087D01*
X141300Y59863D02*
Y61437D01*
X155563Y106950D02*
X157137D01*
X156350Y106163D02*
Y107737D01*
X161063Y101750D02*
X162637D01*
X161850Y100963D02*
Y102537D01*
X155563Y101750D02*
X157137D01*
X156350Y100963D02*
Y102537D01*
X149913Y101750D02*
X151487D01*
X150700Y100963D02*
Y102537D01*
X149913Y106950D02*
X151487D01*
X150700Y106163D02*
Y107737D01*
X161063Y106950D02*
X162637D01*
X161850Y106163D02*
Y107737D01*
X174313Y142900D02*
X175887D01*
X175100Y142113D02*
Y143687D01*
X171763Y156050D02*
X173337D01*
X172550Y155263D02*
Y156837D01*
X167513Y161300D02*
X169087D01*
X168300Y160513D02*
Y162087D01*
X163013Y156050D02*
X164587D01*
X163800Y155263D02*
Y156837D01*
X110263Y148600D02*
X111837D01*
X111050Y147813D02*
Y149387D01*
X115963Y149350D02*
X117537D01*
X116750Y148563D02*
Y150137D01*
X146157Y157000D02*
X147732D01*
X146945Y156213D02*
Y157787D01*
X152763Y157000D02*
X154337D01*
X153550Y156213D02*
Y157787D01*
X149577Y151599D02*
X151152D01*
X150365Y150811D02*
Y152386D01*
X84013Y125250D02*
X85587D01*
X84800Y124463D02*
Y126037D01*
X83863Y119850D02*
X85437D01*
X84650Y119063D02*
Y120637D01*
X92913Y97050D02*
X94487D01*
X93700Y96263D02*
Y97837D01*
X88563Y101150D02*
X90137D01*
X89350Y100363D02*
Y101937D01*
X84340Y105122D02*
X85915D01*
X85128Y104335D02*
Y105910D01*
X84013Y114200D02*
X85587D01*
X84800Y113413D02*
Y114987D01*
M02*
