M48
;Layer_Color=9474304
;FILE_FORMAT=2:5
INCH,LZ
;TYPE=PLATED
T01F00S00C0.01575
T02F00S00C0.01772
T03F00S00C0.02362
T04F00S00C0.02559
T05F00S00C0.02756
T06F00S00C0.02953
T07F00S00C0.03150
T08F00S00C0.04331
%
T01
X0090551Y0022047
X0080512Y0065551
X0105512Y0064764
X0125984Y0111221
X0203132Y0122029
X0055118Y0088976
X0051772
X0048425
X0044882
T02
X0098032Y0020866
T03
X0069685Y0049803
X0090158Y0048031
X0099606
X0122835Y0041339
X0127953Y003622
X0132677Y0050394
X0140176Y0049213
X0153946Y0051565
X0154331Y0032283
X0149606
X0144882
X0159449
X0173622Y0022835
X0193307
X0201772Y0079724
Y0089567
Y009941
X0177165Y0105118
X0158287Y0102381
X015195Y0099207
X0147644Y010275
X0142307Y0099013
X013817Y0098072
X0141345Y0105899
X0162992Y0074239
X0109055Y0069685
X0100394Y0076378
X0095162Y0072554
X0071063Y0073425
X0070866Y0082284
X0075197Y0087402
T04
X0240908Y0126933
Y0140713
X0018075Y0140319
Y0126539
T05
X0212205Y0122008
Y0127027
Y0132008
Y0137008
X0026004Y0111024
X0021004
X0016024
X0011004
T06
X0085827Y0016535
X011752Y0020866
X0138386Y0006299
T07
X015748Y0129921
X0177165
T08
X0222441Y0029528
X0242126
Y0049213
X0222441
M30
