G04*
G04 #@! TF.GenerationSoftware,Altium Limited,Altium Designer,23.7.1 (13)*
G04*
G04 Layer_Physical_Order=2*
G04 Layer_Color=16711680*
%FSLAX25Y25*%
%MOIN*%
G70*
G04*
G04 #@! TF.SameCoordinates,F4DCA568-12CF-4C60-A2D5-0128ED73B792*
G04*
G04*
G04 #@! TF.FilePolarity,Positive*
G04*
G01*
G75*
%ADD22R,0.07087X0.04528*%
%ADD82C,0.01500*%
%ADD83C,0.02000*%
%ADD84C,0.01200*%
%ADD87C,0.03937*%
%ADD88C,0.08661*%
%ADD89C,0.07874*%
%ADD90C,0.02362*%
%ADD91C,0.03150*%
%ADD92C,0.01800*%
%ADD93R,0.05906X0.05906*%
G36*
X48228Y49213D02*
X84646Y12795D01*
X123031D01*
X131890Y3937D01*
X140748D01*
Y7874D01*
X139764Y8858D01*
X134843D01*
X119095Y24606D01*
X116142D01*
X110236Y18701D01*
X87598D01*
X54134Y52165D01*
Y80512D01*
X59252D01*
X61614Y82874D01*
Y89567D01*
X59449Y90945D01*
X38189D01*
X35630Y88386D01*
Y82874D01*
X37992Y80512D01*
X48228D01*
Y49213D01*
D02*
G37*
D22*
X211811Y33268D02*
D03*
Y44685D02*
D03*
D82*
X125984Y111221D02*
X155512D01*
X158268Y108465D01*
Y102400D02*
Y108465D01*
Y102400D02*
X158287Y102381D01*
X153946Y51565D02*
X173622Y31890D01*
Y22835D02*
Y31890D01*
X119908Y47244D02*
X138208D01*
X140176Y49213D01*
X132087Y6299D02*
X138386D01*
X117520Y20866D02*
X132087Y6299D01*
X80512Y53150D02*
X93898D01*
X105512Y64764D01*
X80512Y53150D02*
Y65551D01*
X74240Y46878D02*
X80512Y53150D01*
X68474Y46878D02*
X74240D01*
X56496Y58856D02*
X68474Y46878D01*
X56496Y58856D02*
Y81299D01*
X99606Y48031D02*
X119121D01*
X119908Y47244D01*
X211221Y44685D02*
X211811D01*
X210531D02*
X211221D01*
X211811D02*
X222638D01*
D83*
X216421Y132792D02*
G03*
X216425Y132788I1462J1365D01*
G01*
X215773Y133486D02*
G03*
X215777Y133481I1466J1360D01*
G01*
X216425Y132788D02*
X222280Y126933D01*
X240908D01*
X213683Y135576D02*
X215773Y133486D01*
X213636Y135576D02*
X213683D01*
X212205Y137008D02*
X213636Y135576D01*
X216425Y132788D02*
X216425Y132788D01*
X215777Y133481D02*
X216421Y132792D01*
X164764Y137008D02*
X212205D01*
X53150Y49213D02*
X85827Y16535D01*
X53150Y49213D02*
Y81998D01*
X157575Y129819D02*
X164764Y137008D01*
D84*
X222489Y21210D02*
G03*
X226244Y24745I-56904J64193D01*
G01*
X231026Y29528D01*
X215551Y9843D02*
Y15059D01*
X222489Y21210D01*
X231026Y29528D02*
X242126D01*
X180118Y99410D02*
X201772D01*
X202921Y102184D02*
X205709Y99397D01*
X200787Y79724D02*
X205709Y84646D01*
Y99397D01*
X173228Y89567D02*
X200787D01*
X172355Y102184D02*
X202921D01*
X141107Y106137D02*
X141345Y105899D01*
X139170Y106137D02*
X141107D01*
X203142Y122019D02*
X212194D01*
X203132Y122029D02*
X203142Y122019D01*
X160217Y76556D02*
X173228Y89567D01*
X166603Y96432D02*
X172355Y102184D01*
X149175Y100356D02*
X150419Y101600D01*
Y103899D01*
X145644Y108674D02*
X150419Y103899D01*
X137637Y108674D02*
X145644D01*
X109055Y80092D02*
X137637Y108674D01*
X150800Y96432D02*
X166603D01*
X149175Y98057D02*
X150800Y96432D01*
X149175Y98057D02*
Y100356D01*
X109055Y69685D02*
Y80092D01*
X134627Y103118D02*
X137808Y106299D01*
X139008D02*
X139170Y106137D01*
X137808Y106299D02*
X139008D01*
X134627Y59324D02*
Y103118D01*
X158417Y77709D02*
X180118Y99410D01*
X158417Y51228D02*
Y77709D01*
X160217Y53365D02*
Y76556D01*
Y53365D02*
X180118Y33465D01*
X175680Y17866D02*
X180118Y22304D01*
Y33465D01*
X178150Y22881D02*
Y31496D01*
X158417Y51228D02*
X178150Y31496D01*
X174934Y19666D02*
X178150Y22881D01*
X142383Y17866D02*
X175680D01*
X122835Y37414D02*
X142383Y17866D01*
X122835Y37414D02*
Y41339D01*
X195079Y44685D02*
X210531D01*
X162992Y74239D02*
X165525D01*
X195079Y44685D01*
X144507Y19666D02*
X174934D01*
X127953Y36220D02*
X144507Y19666D01*
X229724Y95866D02*
X249170Y115312D01*
X208858Y95866D02*
X229724D01*
X240908Y140713D02*
X249170Y132450D01*
Y115312D02*
Y132450D01*
X240908Y140713D02*
X241215Y142842D01*
X90551Y22047D02*
X93860D01*
X95041Y20866D02*
X98032D01*
X93860Y22047D02*
X95041Y20866D01*
X212194Y122019D02*
X212205Y122008D01*
X199796Y105118D02*
X215373Y120695D01*
X188445Y127027D02*
X212205D01*
X177165Y105118D02*
X199796D01*
X203740Y33268D02*
X211811D01*
X193307Y22835D02*
X203740Y33268D01*
X140945Y58097D02*
Y97299D01*
X142307Y98662D01*
Y99013D01*
X147644Y102343D02*
Y102750D01*
X145194Y99893D02*
X147644Y102343D01*
X151956Y99213D02*
X160630D01*
X151950Y99207D02*
X151956Y99213D01*
X160630D02*
X188445Y127027D01*
X159449Y32283D02*
Y42139D01*
X112747Y50394D02*
X132677D01*
X112335Y50806D02*
X112747Y50394D01*
X92932Y50806D02*
X112335D01*
X69685Y49803D02*
X71653Y51772D01*
X75197Y73228D02*
Y87402D01*
X71653Y51772D02*
Y69685D01*
X75197Y73228D01*
X70965Y73524D02*
X71063Y73425D01*
X70965Y73524D02*
Y82185D01*
X70866Y82284D02*
X70965Y82185D01*
X142913Y58674D02*
Y95695D01*
X145194Y97975D01*
X140945Y58097D02*
X149372Y49670D01*
X138170Y94866D02*
Y98072D01*
X145194Y97975D02*
Y99893D01*
X137402Y94097D02*
X138170Y94866D01*
X137402Y59095D02*
Y94097D01*
X215373Y120695D02*
Y128839D01*
X212205Y132008D02*
X215373Y128839D01*
X142913Y58674D02*
X159449Y42139D01*
X144431Y48362D02*
Y49519D01*
X149372Y37243D02*
Y49670D01*
X134627Y59324D02*
X144431Y49519D01*
X137402Y59095D02*
X146231Y50265D01*
Y47617D02*
Y50265D01*
X141339Y45270D02*
X144431Y48362D01*
X144507Y45892D02*
X146231Y47617D01*
X149372Y37243D02*
X154331Y32283D01*
X141339Y35827D02*
X144882Y32283D01*
X141339Y35827D02*
Y45270D01*
X144507Y37383D02*
Y45892D01*
X90158Y48031D02*
X92932Y50806D01*
X144507Y37383D02*
X149606Y32283D01*
X222638Y44685D02*
X222835Y44488D01*
X91395Y85377D02*
X100394Y76378D01*
X91395Y85377D02*
Y87345D01*
X83071Y95669D02*
X91395Y87345D01*
X85293Y82424D02*
X95162Y72554D01*
X76772Y93307D02*
X85293Y84786D01*
Y82424D02*
Y84786D01*
X25591Y95669D02*
X83071D01*
X16727Y93307D02*
X76772D01*
X21004Y100256D02*
X25591Y95669D01*
X21004Y100256D02*
Y111024D01*
X16024Y94010D02*
Y111024D01*
Y94010D02*
X16727Y93307D01*
D87*
X212205Y137008D02*
D03*
Y132008D02*
D03*
Y127027D02*
D03*
Y122008D02*
D03*
X173622Y22835D02*
D03*
X193307D02*
D03*
X26004Y111024D02*
D03*
X21004D02*
D03*
X16024D02*
D03*
X11004D02*
D03*
X138386Y6299D02*
D03*
X117520Y20866D02*
D03*
X85827Y16535D02*
D03*
D88*
X242126Y49213D02*
D03*
Y29528D02*
D03*
X222441D02*
D03*
Y49213D02*
D03*
D89*
X240908Y140713D02*
D03*
Y126933D02*
D03*
X18075Y126539D02*
D03*
Y140319D02*
D03*
X177165Y129921D02*
D03*
X157480D02*
D03*
D90*
X125984Y111221D02*
D03*
X203132Y122029D02*
D03*
X90551Y22047D02*
D03*
X98032Y20866D02*
D03*
X105512Y64764D02*
D03*
X80512Y65551D02*
D03*
X44882Y88976D02*
D03*
X48425D02*
D03*
X51772D02*
D03*
X55118D02*
D03*
D91*
X201772Y79724D02*
D03*
Y89567D02*
D03*
Y99410D02*
D03*
X141345Y105899D02*
D03*
X162992Y74239D02*
D03*
X142307Y99013D02*
D03*
X151950Y99207D02*
D03*
X147644Y102750D02*
D03*
X158287Y102381D02*
D03*
X159449Y32283D02*
D03*
X153946Y51565D02*
D03*
X140176Y49213D02*
D03*
X132677Y50394D02*
D03*
X71063Y73425D02*
D03*
X70866Y82284D02*
D03*
X69685Y49803D02*
D03*
X122835Y41339D02*
D03*
X127953Y36220D02*
D03*
X138170Y98072D02*
D03*
X109055Y69685D02*
D03*
X177165Y105118D02*
D03*
X154331Y32283D02*
D03*
X90158Y48031D02*
D03*
X144882Y32283D02*
D03*
X149606D02*
D03*
X99606Y48031D02*
D03*
X100394Y76378D02*
D03*
X95162Y72554D02*
D03*
X75197Y87402D02*
D03*
D92*
X113189Y16535D02*
X117520Y20866D01*
X85827Y16535D02*
X113189D01*
D93*
X215551Y9843D02*
D03*
M02*
