G04*
G04 #@! TF.GenerationSoftware,Altium Limited,Altium Designer,23.7.1 (13)*
G04*
G04 Layer_Color=32896*
%FSLAX25Y25*%
%MOIN*%
G70*
G04*
G04 #@! TF.SameCoordinates,F4DCA568-12CF-4C60-A2D5-0128ED73B792*
G04*
G04*
G04 #@! TF.FilePolarity,Positive*
G04*
G01*
G75*
%ADD10C,0.00984*%
%ADD11C,0.00394*%
%ADD12C,0.00787*%
D10*
X250984Y11810D02*
X248360D01*
X249672D01*
Y7874D01*
X244425Y11810D02*
X247048D01*
Y7874D01*
X244425D01*
X247048Y9842D02*
X245737D01*
X240489Y11154D02*
X241145Y11810D01*
X242457D01*
X243113Y11154D01*
Y10498D01*
X242457Y9842D01*
X241145D01*
X240489Y9186D01*
Y8530D01*
X241145Y7874D01*
X242457D01*
X243113Y8530D01*
X239177Y11810D02*
X236553D01*
X237865D01*
Y7874D01*
X228682Y11154D02*
X229338Y11810D01*
X230650D01*
X231306Y11154D01*
Y8530D01*
X230650Y7874D01*
X229338D01*
X228682Y8530D01*
Y9842D01*
X229994D01*
X227370Y7874D02*
Y11810D01*
X224746Y7874D01*
Y11810D01*
X223434D02*
Y7874D01*
X221466D01*
X220810Y8530D01*
Y11154D01*
X221466Y11810D01*
X223434D01*
D11*
X212598Y12795D02*
X218504D01*
Y6890D02*
Y12795D01*
X212598Y6890D02*
X218504D01*
X212598D02*
Y12795D01*
X208268Y36220D02*
Y41732D01*
X215354Y36220D02*
Y41732D01*
D12*
X202876Y39985D02*
X203400Y40510D01*
X204450D01*
X204975Y39985D01*
Y37886D01*
X204450Y37361D01*
X203400D01*
X202876Y37886D01*
X201826Y37361D02*
X200777D01*
X201301D01*
Y40510D01*
X201826Y39985D01*
X199202D02*
X198678Y40510D01*
X197628D01*
X197103Y39985D01*
Y39461D01*
X197628Y38936D01*
X198153D01*
X197628D01*
X197103Y38411D01*
Y37886D01*
X197628Y37361D01*
X198678D01*
X199202Y37886D01*
M02*
