G04*
G04 #@! TF.GenerationSoftware,Altium Limited,Altium Designer,23.7.1 (13)*
G04*
G04 Layer_Color=8388736*
%FSLAX25Y25*%
%MOIN*%
G70*
G04*
G04 #@! TF.SameCoordinates,F4DCA568-12CF-4C60-A2D5-0128ED73B792*
G04*
G04*
G04 #@! TF.FilePolarity,Negative*
G04*
G01*
G75*
%ADD46R,0.05906X0.05906*%
%ADD47R,0.11036X0.04737*%
%ADD48R,0.25210X0.20091*%
%ADD49R,0.04193X0.03543*%
%ADD50R,0.04331X0.06102*%
%ADD51R,0.07480X0.04921*%
%ADD52R,0.03543X0.03937*%
%ADD53R,0.07480X0.05236*%
%ADD54R,0.05236X0.07480*%
%ADD55R,0.07480X0.06299*%
%ADD56R,0.04921X0.07480*%
%ADD57R,0.01614X0.06142*%
%ADD58R,0.06142X0.01614*%
G04:AMPARAMS|DCode=59|XSize=66.93mil|YSize=53.15mil|CornerRadius=0mil|HoleSize=0mil|Usage=FLASHONLY|Rotation=225.000|XOffset=0mil|YOffset=0mil|HoleType=Round|Shape=Rectangle|*
%AMROTATEDRECTD59*
4,1,4,0.00487,0.04245,0.04245,0.00487,-0.00487,-0.04245,-0.04245,-0.00487,0.00487,0.04245,0.0*
%
%ADD59ROTATEDRECTD59*%

%ADD60R,0.02559X0.04528*%
%ADD61R,0.06102X0.04331*%
%ADD62R,0.06299X0.07480*%
%ADD63R,0.06312X0.03950*%
%ADD64R,0.07887X0.06115*%
%ADD65R,0.09225X0.03359*%
%ADD66R,0.07099X0.03359*%
%ADD67R,0.02572X0.05131*%
%ADD68R,0.02572X0.05328*%
%ADD69R,0.05918X0.03359*%
%ADD70R,0.05328X0.03162*%
%ADD71R,0.06706X0.05367*%
%ADD72R,0.03543X0.01378*%
%ADD73R,0.01378X0.03543*%
%ADD74R,0.02756X0.04724*%
%ADD75C,0.04331*%
%ADD76C,0.09461*%
%ADD77C,0.08674*%
%ADD78C,0.08268*%
%ADD79C,0.03162*%
%ADD80C,0.03950*%
%ADD81C,0.04737*%
D46*
X215551Y9843D02*
D03*
D47*
X40484Y123795D02*
D03*
Y105842D02*
D03*
X86236Y144295D02*
D03*
Y126342D02*
D03*
D48*
X66075Y114819D02*
D03*
X111827Y135319D02*
D03*
D49*
X197244Y115748D02*
D03*
X190945D02*
D03*
X75591Y38583D02*
D03*
X81890D02*
D03*
D50*
X125984Y101575D02*
D03*
X118504D02*
D03*
X162008Y95669D02*
D03*
X169488D02*
D03*
X162008Y102362D02*
D03*
X169488D02*
D03*
X162008Y88976D02*
D03*
X169488D02*
D03*
X151969Y45866D02*
D03*
X144488D02*
D03*
D51*
X102362Y5118D02*
D03*
Y16535D02*
D03*
X93307D02*
D03*
Y5118D02*
D03*
X73075Y132610D02*
D03*
Y144027D02*
D03*
X142520Y134843D02*
D03*
Y123425D02*
D03*
X130575Y123902D02*
D03*
Y135319D02*
D03*
D52*
X194575Y129756D02*
D03*
X198315Y121882D02*
D03*
X190835D02*
D03*
D53*
X28307Y97244D02*
D03*
X38622D02*
D03*
D54*
X37402Y133031D02*
D03*
Y143347D02*
D03*
D55*
X200787Y57480D02*
D03*
Y68898D02*
D03*
X90158Y65551D02*
D03*
Y54134D02*
D03*
X99213Y65551D02*
D03*
Y54134D02*
D03*
X137402Y43307D02*
D03*
Y31890D02*
D03*
D56*
X179331Y86221D02*
D03*
X190748D02*
D03*
X178543Y48031D02*
D03*
X167126D02*
D03*
X120669Y49606D02*
D03*
X109252D02*
D03*
X117520Y28740D02*
D03*
X128937D02*
D03*
X155905Y6299D02*
D03*
X144488D02*
D03*
D57*
X147638Y92323D02*
D03*
X145669D02*
D03*
X129921D02*
D03*
X131890D02*
D03*
X143701D02*
D03*
X141732D02*
D03*
X139764D02*
D03*
X137795D02*
D03*
X135827D02*
D03*
X125984D02*
D03*
X127953D02*
D03*
X133858D02*
D03*
X147638Y59055D02*
D03*
X145669D02*
D03*
X143701D02*
D03*
X141732D02*
D03*
X139764D02*
D03*
X137795D02*
D03*
X135827D02*
D03*
X133858D02*
D03*
X131890D02*
D03*
X129921D02*
D03*
X127953D02*
D03*
X125984D02*
D03*
D58*
X120177Y64862D02*
D03*
Y66831D02*
D03*
Y68799D02*
D03*
Y70768D02*
D03*
Y72736D02*
D03*
Y74705D02*
D03*
Y76673D02*
D03*
Y78642D02*
D03*
Y80610D02*
D03*
Y82579D02*
D03*
Y84547D02*
D03*
Y86516D02*
D03*
X153445D02*
D03*
Y84547D02*
D03*
Y82579D02*
D03*
Y80610D02*
D03*
Y78642D02*
D03*
Y76673D02*
D03*
Y74705D02*
D03*
Y72736D02*
D03*
Y70768D02*
D03*
Y68799D02*
D03*
Y66831D02*
D03*
Y64862D02*
D03*
D59*
X182622Y69804D02*
D03*
X176497Y75929D02*
D03*
X172321Y59504D02*
D03*
X166197Y65629D02*
D03*
D60*
X159055Y39370D02*
D03*
Y50394D02*
D03*
D61*
X110236Y64764D02*
D03*
Y57284D02*
D03*
D62*
X19488Y18110D02*
D03*
X30906D02*
D03*
D63*
X18701Y45413D02*
D03*
Y49744D02*
D03*
Y54075D02*
D03*
Y58406D02*
D03*
Y62736D02*
D03*
Y67067D02*
D03*
Y71398D02*
D03*
Y75728D02*
D03*
D64*
X10630Y79232D02*
D03*
D65*
X36732Y80512D02*
D03*
D66*
X56732D02*
D03*
D67*
X62657Y79626D02*
D03*
D68*
X65256Y79527D02*
D03*
D69*
X64370Y25787D02*
D03*
D70*
X41043Y25689D02*
D03*
D71*
X9646Y26791D02*
D03*
D72*
X91339Y38583D02*
D03*
X106693D02*
D03*
X91339Y36614D02*
D03*
Y34646D02*
D03*
Y32677D02*
D03*
Y30709D02*
D03*
Y28740D02*
D03*
X106693D02*
D03*
Y30709D02*
D03*
Y32677D02*
D03*
Y34646D02*
D03*
Y36614D02*
D03*
D73*
X94095Y25984D02*
D03*
X96063D02*
D03*
X98032D02*
D03*
X100000D02*
D03*
X101969D02*
D03*
X103937D02*
D03*
Y41339D02*
D03*
X101969D02*
D03*
X100000D02*
D03*
X98032D02*
D03*
X96063D02*
D03*
X94095D02*
D03*
D74*
X144587Y15354D02*
D03*
X149508D02*
D03*
X154429D02*
D03*
X159350D02*
D03*
Y26378D02*
D03*
X154429D02*
D03*
X149508D02*
D03*
X144587D02*
D03*
D75*
X212205Y137008D02*
D03*
Y132008D02*
D03*
Y127027D02*
D03*
Y122008D02*
D03*
X173622Y22835D02*
D03*
X193307D02*
D03*
X26004Y111024D02*
D03*
X21004D02*
D03*
X16024D02*
D03*
X11004D02*
D03*
D76*
X242126Y49213D02*
D03*
Y29528D02*
D03*
X222441D02*
D03*
Y49213D02*
D03*
D77*
X240908Y140713D02*
D03*
Y126933D02*
D03*
X18075Y126539D02*
D03*
Y140319D02*
D03*
D78*
X177165Y129921D02*
D03*
X157480D02*
D03*
D79*
X125984Y111221D02*
D03*
X203132Y122029D02*
D03*
X90551Y22047D02*
D03*
X98032Y20866D02*
D03*
X105512Y64764D02*
D03*
X80512Y65551D02*
D03*
X44882Y88976D02*
D03*
X48425D02*
D03*
X51772D02*
D03*
X55118D02*
D03*
D80*
X201772Y79724D02*
D03*
Y89567D02*
D03*
Y99410D02*
D03*
X141345Y105899D02*
D03*
X162992Y74239D02*
D03*
X142307Y99013D02*
D03*
X151950Y99207D02*
D03*
X147644Y102750D02*
D03*
X158287Y102381D02*
D03*
X159449Y32283D02*
D03*
X153946Y51565D02*
D03*
X140176Y49213D02*
D03*
X132677Y50394D02*
D03*
X71063Y73425D02*
D03*
X70866Y82284D02*
D03*
X69685Y49803D02*
D03*
X122835Y41339D02*
D03*
X127953Y36220D02*
D03*
X138170Y98072D02*
D03*
X109055Y69685D02*
D03*
X177165Y105118D02*
D03*
X154331Y32283D02*
D03*
X90158Y48031D02*
D03*
X144882Y32283D02*
D03*
X149606D02*
D03*
X99606Y48031D02*
D03*
X100394Y76378D02*
D03*
X95162Y72554D02*
D03*
X75197Y87402D02*
D03*
D81*
X138386Y6299D02*
D03*
X117520Y20866D02*
D03*
X85827Y16535D02*
D03*
M02*
