G04*
G04 #@! TF.GenerationSoftware,Altium Limited,Altium Designer,23.7.1 (13)*
G04*
G04 Layer_Color=8421504*
%FSLAX25Y25*%
%MOIN*%
G70*
G04*
G04 #@! TF.SameCoordinates,F4DCA568-12CF-4C60-A2D5-0128ED73B792*
G04*
G04*
G04 #@! TF.FilePolarity,Positive*
G04*
G01*
G75*
%ADD17R,0.10236X0.03937*%
%ADD18R,0.24410X0.19291*%
%ADD19R,0.03799X0.03150*%
%ADD20R,0.07520X0.04095*%
%ADD21R,0.03937X0.05709*%
%ADD22R,0.07087X0.04528*%
%ADD23R,0.03150X0.03543*%
%ADD24R,0.07087X0.04842*%
%ADD25R,0.04842X0.07087*%
%ADD26R,0.07087X0.05906*%
%ADD27R,0.04528X0.07087*%
%ADD28R,0.01181X0.05709*%
%ADD29R,0.05709X0.01181*%
G04:AMPARAMS|DCode=30|XSize=62.99mil|YSize=49.21mil|CornerRadius=0mil|HoleSize=0mil|Usage=FLASHONLY|Rotation=225.000|XOffset=0mil|YOffset=0mil|HoleType=Round|Shape=Rectangle|*
%AMROTATEDRECTD30*
4,1,4,0.00487,0.03967,0.03967,0.00487,-0.00487,-0.03967,-0.03967,-0.00487,0.00487,0.03967,0.0*
%
%ADD30ROTATEDRECTD30*%

%ADD31R,0.02165X0.04134*%
%ADD32R,0.05709X0.03937*%
%ADD33R,0.05906X0.07087*%
%ADD34R,0.05512X0.03150*%
%ADD35R,0.07087X0.05315*%
%ADD36R,0.08425X0.02559*%
%ADD37R,0.06299X0.02559*%
%ADD38R,0.01772X0.04331*%
%ADD39R,0.01772X0.04528*%
%ADD40R,0.05118X0.02559*%
%ADD41R,0.04528X0.02362*%
%ADD42R,0.05906X0.04567*%
%ADD43R,0.03150X0.00984*%
%ADD44R,0.00984X0.03150*%
%ADD45R,0.02362X0.04331*%
D17*
X40484Y123795D02*
D03*
Y105842D02*
D03*
X86236Y144295D02*
D03*
Y126342D02*
D03*
D18*
X66075Y114819D02*
D03*
X111827Y135319D02*
D03*
D19*
X197244Y115748D02*
D03*
X190945D02*
D03*
X75591Y38583D02*
D03*
X81890D02*
D03*
D20*
X210630Y109409D02*
D03*
Y99410D02*
D03*
Y89410D02*
D03*
Y79409D02*
D03*
Y69410D02*
D03*
D21*
X125984Y101575D02*
D03*
X118504D02*
D03*
X162008Y95669D02*
D03*
X169488D02*
D03*
X162008Y102362D02*
D03*
X169488D02*
D03*
X162008Y88976D02*
D03*
X169488D02*
D03*
X151969Y45866D02*
D03*
X144488D02*
D03*
D22*
X102362Y5118D02*
D03*
Y16535D02*
D03*
X93307D02*
D03*
Y5118D02*
D03*
X73075Y132610D02*
D03*
Y144027D02*
D03*
X142520Y134843D02*
D03*
Y123425D02*
D03*
X130575Y123902D02*
D03*
Y135319D02*
D03*
D23*
X194575Y129756D02*
D03*
X198315Y121882D02*
D03*
X190835D02*
D03*
D24*
X28307Y97244D02*
D03*
X38622D02*
D03*
D25*
X37402Y133031D02*
D03*
Y143347D02*
D03*
D26*
X200787Y57480D02*
D03*
Y68898D02*
D03*
X90158Y65551D02*
D03*
Y54134D02*
D03*
X99213Y65551D02*
D03*
Y54134D02*
D03*
X137402Y43307D02*
D03*
Y31890D02*
D03*
D27*
X179331Y86221D02*
D03*
X190748D02*
D03*
X178543Y48031D02*
D03*
X167126D02*
D03*
X120669Y49606D02*
D03*
X109252D02*
D03*
X117520Y28740D02*
D03*
X128937D02*
D03*
X155905Y6299D02*
D03*
X144488D02*
D03*
D28*
X147638Y92323D02*
D03*
X145669D02*
D03*
X129921D02*
D03*
X131890D02*
D03*
X143701D02*
D03*
X141732D02*
D03*
X139764D02*
D03*
X137795D02*
D03*
X135827D02*
D03*
X125984D02*
D03*
X127953D02*
D03*
X133858D02*
D03*
X147638Y59055D02*
D03*
X145669D02*
D03*
X143701D02*
D03*
X141732D02*
D03*
X139764D02*
D03*
X137795D02*
D03*
X135827D02*
D03*
X133858D02*
D03*
X131890D02*
D03*
X129921D02*
D03*
X127953D02*
D03*
X125984D02*
D03*
D29*
X120177Y64862D02*
D03*
Y66831D02*
D03*
Y68799D02*
D03*
Y70768D02*
D03*
Y72736D02*
D03*
Y74705D02*
D03*
Y76673D02*
D03*
Y78642D02*
D03*
Y80610D02*
D03*
Y82579D02*
D03*
Y84547D02*
D03*
Y86516D02*
D03*
X153445D02*
D03*
Y84547D02*
D03*
Y82579D02*
D03*
Y80610D02*
D03*
Y78642D02*
D03*
Y76673D02*
D03*
Y74705D02*
D03*
Y72736D02*
D03*
Y70768D02*
D03*
Y68799D02*
D03*
Y66831D02*
D03*
Y64862D02*
D03*
D30*
X182622Y69804D02*
D03*
X176497Y75929D02*
D03*
X172321Y59504D02*
D03*
X166197Y65629D02*
D03*
D31*
X159055Y39370D02*
D03*
Y50394D02*
D03*
D32*
X110236Y64764D02*
D03*
Y57284D02*
D03*
D33*
X19488Y18110D02*
D03*
X30906D02*
D03*
D34*
X18701Y45413D02*
D03*
Y49744D02*
D03*
Y54075D02*
D03*
Y58406D02*
D03*
Y62736D02*
D03*
Y67067D02*
D03*
Y71398D02*
D03*
Y75728D02*
D03*
D35*
X10630Y79232D02*
D03*
D36*
X36732Y80512D02*
D03*
D37*
X56732D02*
D03*
D38*
X62657Y79626D02*
D03*
D39*
X65256Y79527D02*
D03*
D40*
X64370Y25787D02*
D03*
D41*
X41043Y25689D02*
D03*
D42*
X9646Y26791D02*
D03*
D43*
X91339Y38583D02*
D03*
X106693D02*
D03*
X91339Y36614D02*
D03*
Y34646D02*
D03*
Y32677D02*
D03*
Y30709D02*
D03*
Y28740D02*
D03*
X106693D02*
D03*
Y30709D02*
D03*
Y32677D02*
D03*
Y34646D02*
D03*
Y36614D02*
D03*
D44*
X94095Y25984D02*
D03*
X96063D02*
D03*
X98032D02*
D03*
X100000D02*
D03*
X101969D02*
D03*
X103937D02*
D03*
Y41339D02*
D03*
X101969D02*
D03*
X100000D02*
D03*
X98032D02*
D03*
X96063D02*
D03*
X94095D02*
D03*
D45*
X144587Y15354D02*
D03*
X149508D02*
D03*
X154429D02*
D03*
X159350D02*
D03*
Y26378D02*
D03*
X154429D02*
D03*
X149508D02*
D03*
X144587D02*
D03*
M02*
