G04*
G04 #@! TF.GenerationSoftware,Altium Limited,Altium Designer,23.7.1 (13)*
G04*
G04 Layer_Color=16711935*
%FSLAX25Y25*%
%MOIN*%
G70*
G04*
G04 #@! TF.SameCoordinates,F4DCA568-12CF-4C60-A2D5-0128ED73B792*
G04*
G04*
G04 #@! TF.FilePolarity,Negative*
G04*
G01*
G75*
%ADD46R,0.05906X0.05906*%
%ADD51R,0.07480X0.04921*%
%ADD75C,0.04331*%
%ADD76C,0.09461*%
%ADD77C,0.08674*%
%ADD78C,0.08268*%
%ADD79C,0.03162*%
%ADD80C,0.03950*%
%ADD81C,0.04737*%
D46*
X215551Y9843D02*
D03*
D51*
X211811Y33268D02*
D03*
Y44685D02*
D03*
D75*
X212205Y137008D02*
D03*
Y132008D02*
D03*
Y127027D02*
D03*
Y122008D02*
D03*
X173622Y22835D02*
D03*
X193307D02*
D03*
X26004Y111024D02*
D03*
X21004D02*
D03*
X16024D02*
D03*
X11004D02*
D03*
D76*
X242126Y49213D02*
D03*
Y29528D02*
D03*
X222441D02*
D03*
Y49213D02*
D03*
D77*
X240908Y140713D02*
D03*
Y126933D02*
D03*
X18075Y126539D02*
D03*
Y140319D02*
D03*
D78*
X177165Y129921D02*
D03*
X157480D02*
D03*
D79*
X125984Y111221D02*
D03*
X203132Y122029D02*
D03*
X90551Y22047D02*
D03*
X98032Y20866D02*
D03*
X105512Y64764D02*
D03*
X80512Y65551D02*
D03*
X44882Y88976D02*
D03*
X48425D02*
D03*
X51772D02*
D03*
X55118D02*
D03*
D80*
X201772Y79724D02*
D03*
Y89567D02*
D03*
Y99410D02*
D03*
X141345Y105899D02*
D03*
X162992Y74239D02*
D03*
X142307Y99013D02*
D03*
X151950Y99207D02*
D03*
X147644Y102750D02*
D03*
X158287Y102381D02*
D03*
X159449Y32283D02*
D03*
X153946Y51565D02*
D03*
X140176Y49213D02*
D03*
X132677Y50394D02*
D03*
X71063Y73425D02*
D03*
X70866Y82284D02*
D03*
X69685Y49803D02*
D03*
X122835Y41339D02*
D03*
X127953Y36220D02*
D03*
X138170Y98072D02*
D03*
X109055Y69685D02*
D03*
X177165Y105118D02*
D03*
X154331Y32283D02*
D03*
X90158Y48031D02*
D03*
X144882Y32283D02*
D03*
X149606D02*
D03*
X99606Y48031D02*
D03*
X100394Y76378D02*
D03*
X95162Y72554D02*
D03*
X75197Y87402D02*
D03*
D81*
X138386Y6299D02*
D03*
X117520Y20866D02*
D03*
X85827Y16535D02*
D03*
M02*
